<?xml version="1.0" encoding="utf-8" standalone="no"?>
<!DOCTYPE svg PUBLIC "-//W3C//DTD SVG 1.1//EN"
  "http://www.w3.org/Graphics/SVG/1.1/DTD/svg11.dtd">
<svg xmlns:xlink="http://www.w3.org/1999/xlink" width="469.303281pt" height="353.911063pt" viewBox="0 0 469.303281 353.911063" xmlns="http://www.w3.org/2000/svg" version="1.1">
 <metadata>
  <rdf:RDF xmlns:dc="http://purl.org/dc/elements/1.1/" xmlns:cc="http://creativecommons.org/ns#" xmlns:rdf="http://www.w3.org/1999/02/22-rdf-syntax-ns#">
   <cc:Work>
    <dc:type rdf:resource="http://purl.org/dc/dcmitype/StillImage"/>
    <dc:date>2026-09-14T20:54:56.479326</dc:date>
    <dc:format>image/svg+xml</dc:format>
    <dc:creator>
     <cc:Agent>
      <dc:title>Matplotlib v3.10.9, https://matplotlib.org/</dc:title>
     </cc:Agent>
    </dc:creator>
   </cc:Work>
  </rdf:RDF>
 </metadata>
 <defs>
  <style type="text/css">*{stroke-linejoin: round; stroke-linecap: butt}</style>
 </defs>
 <g id="figure_1">
  <g id="patch_1">
   <path d="M 0 353.911063 
L 469.303281 353.911063 
L 469.303281 0 
L 0 0 
z
" style="fill: #ffffff"/>
  </g>
  <g id="axes_1">
   <g id="patch_2">
    <path d="M 58.543281 301.927 
L 449.143281 301.927 
L 449.143281 63.535 
L 58.543281 63.535 
z
" style="fill: #ffffff"/>
   </g>
   <g id="matplotlib.axis_1">
    <g id="xtick_1">
     <g id="line2d_1">
      <path d="M 78.74673 301.927 
L 78.74673 63.535 
" clip-path="url(#p66bcbcc9b9)" style="fill: none; stroke: #e8e7e3; stroke-width: 0.9; stroke-linecap: square"/>
     </g>
     <g id="line2d_2"/>
     <g id="text_1">
      <!-- 1 -->
      <g style="fill: #52514e" transform="translate(75.406417 313.405359) scale(0.105 -0.105)">
       <defs>
        <path id="DejaVuSans-31" d="M 794 531 
L 1825 531 
L 1825 4091 
L 703 3866 
L 703 4441 
L 1819 4666 
L 2450 4666 
L 2450 531 
L 3481 531 
L 3481 0 
L 794 0 
L 794 531 
z
" transform="scale(0.015625)"/>
       </defs>
       <use xlink:href="#DejaVuSans-31"/>
      </g>
     </g>
    </g>
    <g id="xtick_2">
     <g id="line2d_3">
      <path d="M 146.091557 301.927 
L 146.091557 63.535 
" clip-path="url(#p66bcbcc9b9)" style="fill: none; stroke: #e8e7e3; stroke-width: 0.9; stroke-linecap: square"/>
     </g>
     <g id="line2d_4"/>
     <g id="text_2">
      <!-- 2 -->
      <g style="fill: #52514e" transform="translate(142.751245 313.405359) scale(0.105 -0.105)">
       <defs>
        <path id="DejaVuSans-32" d="M 1228 531 
L 3431 531 
L 3431 0 
L 469 0 
L 469 531 
Q 828 903 1448 1529 
Q 2069 2156 2228 2338 
Q 2531 2678 2651 2914 
Q 2772 3150 2772 3378 
Q 2772 3750 2511 3984 
Q 2250 4219 1831 4219 
Q 1534 4219 1204 4116 
Q 875 4013 500 3803 
L 500 4441 
Q 881 4594 1212 4672 
Q 1544 4750 1819 4750 
Q 2544 4750 2975 4387 
Q 3406 4025 3406 3419 
Q 3406 3131 3298 2873 
Q 3191 2616 2906 2266 
Q 2828 2175 2409 1742 
Q 1991 1309 1228 531 
z
" transform="scale(0.015625)"/>
       </defs>
       <use xlink:href="#DejaVuSans-32"/>
      </g>
     </g>
    </g>
    <g id="xtick_3">
     <g id="line2d_5">
      <path d="M 213.436385 301.927 
L 213.436385 63.535 
" clip-path="url(#p66bcbcc9b9)" style="fill: none; stroke: #e8e7e3; stroke-width: 0.9; stroke-linecap: square"/>
     </g>
     <g id="line2d_6"/>
     <g id="text_3">
      <!-- 3 -->
      <g style="fill: #52514e" transform="translate(210.096072 313.405359) scale(0.105 -0.105)">
       <defs>
        <path id="DejaVuSans-33" d="M 2597 2516 
Q 3050 2419 3304 2112 
Q 3559 1806 3559 1356 
Q 3559 666 3084 287 
Q 2609 -91 1734 -91 
Q 1441 -91 1130 -33 
Q 819 25 488 141 
L 488 750 
Q 750 597 1062 519 
Q 1375 441 1716 441 
Q 2309 441 2620 675 
Q 2931 909 2931 1356 
Q 2931 1769 2642 2001 
Q 2353 2234 1838 2234 
L 1294 2234 
L 1294 2753 
L 1863 2753 
Q 2328 2753 2575 2939 
Q 2822 3125 2822 3475 
Q 2822 3834 2567 4026 
Q 2313 4219 1838 4219 
Q 1578 4219 1281 4162 
Q 984 4106 628 3988 
L 628 4550 
Q 988 4650 1302 4700 
Q 1616 4750 1894 4750 
Q 2613 4750 3031 4423 
Q 3450 4097 3450 3541 
Q 3450 3153 3228 2886 
Q 3006 2619 2597 2516 
z
" transform="scale(0.015625)"/>
       </defs>
       <use xlink:href="#DejaVuSans-33"/>
      </g>
     </g>
    </g>
    <g id="xtick_4">
     <g id="line2d_7">
      <path d="M 280.781212 301.927 
L 280.781212 63.535 
" clip-path="url(#p66bcbcc9b9)" style="fill: none; stroke: #e8e7e3; stroke-width: 0.9; stroke-linecap: square"/>
     </g>
     <g id="line2d_8"/>
     <g id="text_4">
      <!-- 4 -->
      <g style="fill: #52514e" transform="translate(277.4409 313.405359) scale(0.105 -0.105)">
       <defs>
        <path id="DejaVuSans-34" d="M 2419 4116 
L 825 1625 
L 2419 1625 
L 2419 4116 
z
M 2253 4666 
L 3047 4666 
L 3047 1625 
L 3713 1625 
L 3713 1100 
L 3047 1100 
L 3047 0 
L 2419 0 
L 2419 1100 
L 313 1100 
L 313 1709 
L 2253 4666 
z
" transform="scale(0.015625)"/>
       </defs>
       <use xlink:href="#DejaVuSans-34"/>
      </g>
     </g>
    </g>
    <g id="xtick_5">
     <g id="line2d_9">
      <path d="M 348.12604 301.927 
L 348.12604 63.535 
" clip-path="url(#p66bcbcc9b9)" style="fill: none; stroke: #e8e7e3; stroke-width: 0.9; stroke-linecap: square"/>
     </g>
     <g id="line2d_10"/>
     <g id="text_5">
      <!-- 5 -->
      <g style="fill: #52514e" transform="translate(344.785727 313.405359) scale(0.105 -0.105)">
       <defs>
        <path id="DejaVuSans-35" d="M 691 4666 
L 3169 4666 
L 3169 4134 
L 1269 4134 
L 1269 2991 
Q 1406 3038 1543 3061 
Q 1681 3084 1819 3084 
Q 2600 3084 3056 2656 
Q 3513 2228 3513 1497 
Q 3513 744 3044 326 
Q 2575 -91 1722 -91 
Q 1428 -91 1123 -41 
Q 819 9 494 109 
L 494 744 
Q 775 591 1075 516 
Q 1375 441 1709 441 
Q 2250 441 2565 725 
Q 2881 1009 2881 1497 
Q 2881 1984 2565 2268 
Q 2250 2553 1709 2553 
Q 1456 2553 1204 2497 
Q 953 2441 691 2322 
L 691 4666 
z
" transform="scale(0.015625)"/>
       </defs>
       <use xlink:href="#DejaVuSans-35"/>
      </g>
     </g>
    </g>
    <g id="xtick_6">
     <g id="line2d_11">
      <path d="M 415.470867 301.927 
L 415.470867 63.535 
" clip-path="url(#p66bcbcc9b9)" style="fill: none; stroke: #e8e7e3; stroke-width: 0.9; stroke-linecap: square"/>
     </g>
     <g id="line2d_12"/>
     <g id="text_6">
      <!-- 6 -->
      <g style="fill: #52514e" transform="translate(412.130555 313.405359) scale(0.105 -0.105)">
       <defs>
        <path id="DejaVuSans-36" d="M 2113 2584 
Q 1688 2584 1439 2293 
Q 1191 2003 1191 1497 
Q 1191 994 1439 701 
Q 1688 409 2113 409 
Q 2538 409 2786 701 
Q 3034 994 3034 1497 
Q 3034 2003 2786 2293 
Q 2538 2584 2113 2584 
z
M 3366 4563 
L 3366 3988 
Q 3128 4100 2886 4159 
Q 2644 4219 2406 4219 
Q 1781 4219 1451 3797 
Q 1122 3375 1075 2522 
Q 1259 2794 1537 2939 
Q 1816 3084 2150 3084 
Q 2853 3084 3261 2657 
Q 3669 2231 3669 1497 
Q 3669 778 3244 343 
Q 2819 -91 2113 -91 
Q 1303 -91 875 529 
Q 447 1150 447 2328 
Q 447 3434 972 4092 
Q 1497 4750 2381 4750 
Q 2619 4750 2861 4703 
Q 3103 4656 3366 4563 
z
" transform="scale(0.015625)"/>
       </defs>
       <use xlink:href="#DejaVuSans-36"/>
      </g>
     </g>
    </g>
    <g id="text_7">
     <!-- inlet velocity  [m/s] -->
     <g style="fill: #52514e" transform="translate(203.07168 331.567391) scale(0.105 -0.105)">
      <defs>
       <path id="DejaVuSans-69" d="M 603 3500 
L 1178 3500 
L 1178 0 
L 603 0 
L 603 3500 
z
M 603 4863 
L 1178 4863 
L 1178 4134 
L 603 4134 
L 603 4863 
z
" transform="scale(0.015625)"/>
       <path id="DejaVuSans-6e" d="M 3513 2113 
L 3513 0 
L 2938 0 
L 2938 2094 
Q 2938 2591 2744 2837 
Q 2550 3084 2163 3084 
Q 1697 3084 1428 2787 
Q 1159 2491 1159 1978 
L 1159 0 
L 581 0 
L 581 3500 
L 1159 3500 
L 1159 2956 
Q 1366 3272 1645 3428 
Q 1925 3584 2291 3584 
Q 2894 3584 3203 3211 
Q 3513 2838 3513 2113 
z
" transform="scale(0.015625)"/>
       <path id="DejaVuSans-6c" d="M 603 4863 
L 1178 4863 
L 1178 0 
L 603 0 
L 603 4863 
z
" transform="scale(0.015625)"/>
       <path id="DejaVuSans-65" d="M 3597 1894 
L 3597 1613 
L 953 1613 
Q 991 1019 1311 708 
Q 1631 397 2203 397 
Q 2534 397 2845 478 
Q 3156 559 3463 722 
L 3463 178 
Q 3153 47 2828 -22 
Q 2503 -91 2169 -91 
Q 1331 -91 842 396 
Q 353 884 353 1716 
Q 353 2575 817 3079 
Q 1281 3584 2069 3584 
Q 2775 3584 3186 3129 
Q 3597 2675 3597 1894 
z
M 3022 2063 
Q 3016 2534 2758 2815 
Q 2500 3097 2075 3097 
Q 1594 3097 1305 2825 
Q 1016 2553 972 2059 
L 3022 2063 
z
" transform="scale(0.015625)"/>
       <path id="DejaVuSans-74" d="M 1172 4494 
L 1172 3500 
L 2356 3500 
L 2356 3053 
L 1172 3053 
L 1172 1153 
Q 1172 725 1289 603 
Q 1406 481 1766 481 
L 2356 481 
L 2356 0 
L 1766 0 
Q 1100 0 847 248 
Q 594 497 594 1153 
L 594 3053 
L 172 3053 
L 172 3500 
L 594 3500 
L 594 4494 
L 1172 4494 
z
" transform="scale(0.015625)"/>
       <path id="DejaVuSans-20" transform="scale(0.015625)"/>
       <path id="DejaVuSans-76" d="M 191 3500 
L 800 3500 
L 1894 563 
L 2988 3500 
L 3597 3500 
L 2284 0 
L 1503 0 
L 191 3500 
z
" transform="scale(0.015625)"/>
       <path id="DejaVuSans-6f" d="M 1959 3097 
Q 1497 3097 1228 2736 
Q 959 2375 959 1747 
Q 959 1119 1226 758 
Q 1494 397 1959 397 
Q 2419 397 2687 759 
Q 2956 1122 2956 1747 
Q 2956 2369 2687 2733 
Q 2419 3097 1959 3097 
z
M 1959 3584 
Q 2709 3584 3137 3096 
Q 3566 2609 3566 1747 
Q 3566 888 3137 398 
Q 2709 -91 1959 -91 
Q 1206 -91 779 398 
Q 353 888 353 1747 
Q 353 2609 779 3096 
Q 1206 3584 1959 3584 
z
" transform="scale(0.015625)"/>
       <path id="DejaVuSans-63" d="M 3122 3366 
L 3122 2828 
Q 2878 2963 2633 3030 
Q 2388 3097 2138 3097 
Q 1578 3097 1268 2742 
Q 959 2388 959 1747 
Q 959 1106 1268 751 
Q 1578 397 2138 397 
Q 2388 397 2633 464 
Q 2878 531 3122 666 
L 3122 134 
Q 2881 22 2623 -34 
Q 2366 -91 2075 -91 
Q 1284 -91 818 406 
Q 353 903 353 1747 
Q 353 2603 823 3093 
Q 1294 3584 2113 3584 
Q 2378 3584 2631 3529 
Q 2884 3475 3122 3366 
z
" transform="scale(0.015625)"/>
       <path id="DejaVuSans-79" d="M 2059 -325 
Q 1816 -950 1584 -1140 
Q 1353 -1331 966 -1331 
L 506 -1331 
L 506 -850 
L 844 -850 
Q 1081 -850 1212 -737 
Q 1344 -625 1503 -206 
L 1606 56 
L 191 3500 
L 800 3500 
L 1894 763 
L 2988 3500 
L 3597 3500 
L 2059 -325 
z
" transform="scale(0.015625)"/>
       <path id="DejaVuSans-5b" d="M 550 4863 
L 1875 4863 
L 1875 4416 
L 1125 4416 
L 1125 -397 
L 1875 -397 
L 1875 -844 
L 550 -844 
L 550 4863 
z
" transform="scale(0.015625)"/>
       <path id="DejaVuSans-6d" d="M 3328 2828 
Q 3544 3216 3844 3400 
Q 4144 3584 4550 3584 
Q 5097 3584 5394 3201 
Q 5691 2819 5691 2113 
L 5691 0 
L 5113 0 
L 5113 2094 
Q 5113 2597 4934 2840 
Q 4756 3084 4391 3084 
Q 3944 3084 3684 2787 
Q 3425 2491 3425 1978 
L 3425 0 
L 2847 0 
L 2847 2094 
Q 2847 2600 2669 2842 
Q 2491 3084 2119 3084 
Q 1678 3084 1418 2786 
Q 1159 2488 1159 1978 
L 1159 0 
L 581 0 
L 581 3500 
L 1159 3500 
L 1159 2956 
Q 1356 3278 1631 3431 
Q 1906 3584 2284 3584 
Q 2666 3584 2933 3390 
Q 3200 3197 3328 2828 
z
" transform="scale(0.015625)"/>
       <path id="DejaVuSans-2f" d="M 1625 4666 
L 2156 4666 
L 531 -594 
L 0 -594 
L 1625 4666 
z
" transform="scale(0.015625)"/>
       <path id="DejaVuSans-73" d="M 2834 3397 
L 2834 2853 
Q 2591 2978 2328 3040 
Q 2066 3103 1784 3103 
Q 1356 3103 1142 2972 
Q 928 2841 928 2578 
Q 928 2378 1081 2264 
Q 1234 2150 1697 2047 
L 1894 2003 
Q 2506 1872 2764 1633 
Q 3022 1394 3022 966 
Q 3022 478 2636 193 
Q 2250 -91 1575 -91 
Q 1294 -91 989 -36 
Q 684 19 347 128 
L 347 722 
Q 666 556 975 473 
Q 1284 391 1588 391 
Q 1994 391 2212 530 
Q 2431 669 2431 922 
Q 2431 1156 2273 1281 
Q 2116 1406 1581 1522 
L 1381 1569 
Q 847 1681 609 1914 
Q 372 2147 372 2553 
Q 372 3047 722 3315 
Q 1072 3584 1716 3584 
Q 2034 3584 2315 3537 
Q 2597 3491 2834 3397 
z
" transform="scale(0.015625)"/>
       <path id="DejaVuSans-5d" d="M 1947 4863 
L 1947 -844 
L 622 -844 
L 622 -397 
L 1369 -397 
L 1369 4416 
L 622 4416 
L 622 4863 
L 1947 4863 
z
" transform="scale(0.015625)"/>
      </defs>
      <use xlink:href="#DejaVuSans-69"/>
      <use xlink:href="#DejaVuSans-6e" transform="translate(27.783203 0)"/>
      <use xlink:href="#DejaVuSans-6c" transform="translate(91.162109 0)"/>
      <use xlink:href="#DejaVuSans-65" transform="translate(118.945312 0)"/>
      <use xlink:href="#DejaVuSans-74" transform="translate(180.46875 0)"/>
      <use xlink:href="#DejaVuSans-20" transform="translate(219.677734 0)"/>
      <use xlink:href="#DejaVuSans-76" transform="translate(251.464844 0)"/>
      <use xlink:href="#DejaVuSans-65" transform="translate(310.644531 0)"/>
      <use xlink:href="#DejaVuSans-6c" transform="translate(372.167969 0)"/>
      <use xlink:href="#DejaVuSans-6f" transform="translate(399.951172 0)"/>
      <use xlink:href="#DejaVuSans-63" transform="translate(461.132812 0)"/>
      <use xlink:href="#DejaVuSans-69" transform="translate(516.113281 0)"/>
      <use xlink:href="#DejaVuSans-74" transform="translate(543.896484 0)"/>
      <use xlink:href="#DejaVuSans-79" transform="translate(583.105469 0)"/>
      <use xlink:href="#DejaVuSans-20" transform="translate(642.285156 0)"/>
      <use xlink:href="#DejaVuSans-20" transform="translate(674.072266 0)"/>
      <use xlink:href="#DejaVuSans-5b" transform="translate(705.859375 0)"/>
      <use xlink:href="#DejaVuSans-6d" transform="translate(744.873047 0)"/>
      <use xlink:href="#DejaVuSans-2f" transform="translate(842.285156 0)"/>
      <use xlink:href="#DejaVuSans-73" transform="translate(875.976562 0)"/>
      <use xlink:href="#DejaVuSans-5d" transform="translate(928.076172 0)"/>
     </g>
    </g>
   </g>
   <g id="matplotlib.axis_2">
    <g id="ytick_1">
     <g id="line2d_13">
      <path d="M 58.543281 301.927 
L 449.143281 301.927 
" clip-path="url(#p66bcbcc9b9)" style="fill: none; stroke: #e8e7e3; stroke-width: 0.9; stroke-linecap: square"/>
     </g>
     <g id="line2d_14"/>
     <g id="text_8">
      <!-- 0.0 -->
      <g style="fill: #52514e" transform="translate(38.345 305.91618) scale(0.105 -0.105)">
       <defs>
        <path id="DejaVuSans-30" d="M 2034 4250 
Q 1547 4250 1301 3770 
Q 1056 3291 1056 2328 
Q 1056 1369 1301 889 
Q 1547 409 2034 409 
Q 2525 409 2770 889 
Q 3016 1369 3016 2328 
Q 3016 3291 2770 3770 
Q 2525 4250 2034 4250 
z
M 2034 4750 
Q 2819 4750 3233 4129 
Q 3647 3509 3647 2328 
Q 3647 1150 3233 529 
Q 2819 -91 2034 -91 
Q 1250 -91 836 529 
Q 422 1150 422 2328 
Q 422 3509 836 4129 
Q 1250 4750 2034 4750 
z
" transform="scale(0.015625)"/>
        <path id="DejaVuSans-2e" d="M 684 794 
L 1344 794 
L 1344 0 
L 684 0 
L 684 794 
z
" transform="scale(0.015625)"/>
       </defs>
       <use xlink:href="#DejaVuSans-30"/>
       <use xlink:href="#DejaVuSans-2e" transform="translate(63.623047 0)"/>
       <use xlink:href="#DejaVuSans-30" transform="translate(95.410156 0)"/>
      </g>
     </g>
    </g>
    <g id="ytick_2">
     <g id="line2d_15">
      <path d="M 58.543281 268.817 
L 449.143281 268.817 
" clip-path="url(#p66bcbcc9b9)" style="fill: none; stroke: #e8e7e3; stroke-width: 0.9; stroke-linecap: square"/>
     </g>
     <g id="line2d_16"/>
     <g id="text_9">
      <!-- 0.1 -->
      <g style="fill: #52514e" transform="translate(38.345 272.80618) scale(0.105 -0.105)">
       <use xlink:href="#DejaVuSans-30"/>
       <use xlink:href="#DejaVuSans-2e" transform="translate(63.623047 0)"/>
       <use xlink:href="#DejaVuSans-31" transform="translate(95.410156 0)"/>
      </g>
     </g>
    </g>
    <g id="ytick_3">
     <g id="line2d_17">
      <path d="M 58.543281 235.707 
L 449.143281 235.707 
" clip-path="url(#p66bcbcc9b9)" style="fill: none; stroke: #e8e7e3; stroke-width: 0.9; stroke-linecap: square"/>
     </g>
     <g id="line2d_18"/>
     <g id="text_10">
      <!-- 0.2 -->
      <g style="fill: #52514e" transform="translate(38.345 239.69618) scale(0.105 -0.105)">
       <use xlink:href="#DejaVuSans-30"/>
       <use xlink:href="#DejaVuSans-2e" transform="translate(63.623047 0)"/>
       <use xlink:href="#DejaVuSans-32" transform="translate(95.410156 0)"/>
      </g>
     </g>
    </g>
    <g id="ytick_4">
     <g id="line2d_19">
      <path d="M 58.543281 202.597 
L 449.143281 202.597 
" clip-path="url(#p66bcbcc9b9)" style="fill: none; stroke: #e8e7e3; stroke-width: 0.9; stroke-linecap: square"/>
     </g>
     <g id="line2d_20"/>
     <g id="text_11">
      <!-- 0.3 -->
      <g style="fill: #52514e" transform="translate(38.345 206.58618) scale(0.105 -0.105)">
       <use xlink:href="#DejaVuSans-30"/>
       <use xlink:href="#DejaVuSans-2e" transform="translate(63.623047 0)"/>
       <use xlink:href="#DejaVuSans-33" transform="translate(95.410156 0)"/>
      </g>
     </g>
    </g>
    <g id="ytick_5">
     <g id="line2d_21">
      <path d="M 58.543281 169.487 
L 449.143281 169.487 
" clip-path="url(#p66bcbcc9b9)" style="fill: none; stroke: #e8e7e3; stroke-width: 0.9; stroke-linecap: square"/>
     </g>
     <g id="line2d_22"/>
     <g id="text_12">
      <!-- 0.4 -->
      <g style="fill: #52514e" transform="translate(38.345 173.47618) scale(0.105 -0.105)">
       <use xlink:href="#DejaVuSans-30"/>
       <use xlink:href="#DejaVuSans-2e" transform="translate(63.623047 0)"/>
       <use xlink:href="#DejaVuSans-34" transform="translate(95.410156 0)"/>
      </g>
     </g>
    </g>
    <g id="ytick_6">
     <g id="line2d_23">
      <path d="M 58.543281 136.377 
L 449.143281 136.377 
" clip-path="url(#p66bcbcc9b9)" style="fill: none; stroke: #e8e7e3; stroke-width: 0.9; stroke-linecap: square"/>
     </g>
     <g id="line2d_24"/>
     <g id="text_13">
      <!-- 0.5 -->
      <g style="fill: #52514e" transform="translate(38.345 140.36618) scale(0.105 -0.105)">
       <use xlink:href="#DejaVuSans-30"/>
       <use xlink:href="#DejaVuSans-2e" transform="translate(63.623047 0)"/>
       <use xlink:href="#DejaVuSans-35" transform="translate(95.410156 0)"/>
      </g>
     </g>
    </g>
    <g id="ytick_7">
     <g id="line2d_25">
      <path d="M 58.543281 103.267 
L 449.143281 103.267 
" clip-path="url(#p66bcbcc9b9)" style="fill: none; stroke: #e8e7e3; stroke-width: 0.9; stroke-linecap: square"/>
     </g>
     <g id="line2d_26"/>
     <g id="text_14">
      <!-- 0.6 -->
      <g style="fill: #52514e" transform="translate(38.345 107.25618) scale(0.105 -0.105)">
       <use xlink:href="#DejaVuSans-30"/>
       <use xlink:href="#DejaVuSans-2e" transform="translate(63.623047 0)"/>
       <use xlink:href="#DejaVuSans-36" transform="translate(95.410156 0)"/>
      </g>
     </g>
    </g>
    <g id="ytick_8">
     <g id="line2d_27">
      <path d="M 58.543281 70.157 
L 449.143281 70.157 
" clip-path="url(#p66bcbcc9b9)" style="fill: none; stroke: #e8e7e3; stroke-width: 0.9; stroke-linecap: square"/>
     </g>
     <g id="line2d_28"/>
     <g id="text_15">
      <!-- 0.7 -->
      <g style="fill: #52514e" transform="translate(38.345 74.14618) scale(0.105 -0.105)">
       <defs>
        <path id="DejaVuSans-37" d="M 525 4666 
L 3525 4666 
L 3525 4397 
L 1831 0 
L 1172 0 
L 2766 4134 
L 525 4134 
L 525 4666 
z
" transform="scale(0.015625)"/>
       </defs>
       <use xlink:href="#DejaVuSans-30"/>
       <use xlink:href="#DejaVuSans-2e" transform="translate(63.623047 0)"/>
       <use xlink:href="#DejaVuSans-37" transform="translate(95.410156 0)"/>
      </g>
     </g>
    </g>
    <g id="text_16">
     <!-- $\Delta p$  [Pa] -->
     <g style="fill: #52514e" transform="translate(28.14 203.521) rotate(-90) scale(0.105 -0.105)">
      <defs>
       <path id="DejaVuSans-394" d="M 2188 4044 
L 906 525 
L 3472 525 
L 2188 4044 
z
M 50 0 
L 1831 4666 
L 2547 4666 
L 4325 0 
L 50 0 
z
" transform="scale(0.015625)"/>
       <path id="DejaVuSans-Oblique-70" d="M 3175 2156 
Q 3175 2616 2975 2859 
Q 2775 3103 2400 3103 
Q 2144 3103 1911 2972 
Q 1678 2841 1497 2591 
Q 1319 2344 1212 1994 
Q 1106 1644 1106 1300 
Q 1106 863 1306 627 
Q 1506 391 1875 391 
Q 2147 391 2380 519 
Q 2613 647 2778 891 
Q 2956 1147 3065 1494 
Q 3175 1841 3175 2156 
z
M 1394 2969 
Q 1625 3272 1939 3428 
Q 2253 3584 2638 3584 
Q 3175 3584 3472 3232 
Q 3769 2881 3769 2247 
Q 3769 1728 3584 1258 
Q 3400 788 3053 416 
Q 2822 169 2531 39 
Q 2241 -91 1919 -91 
Q 1547 -91 1294 64 
Q 1041 219 916 525 
L 556 -1331 
L -19 -1331 
L 922 3500 
L 1497 3500 
L 1394 2969 
z
" transform="scale(0.015625)"/>
       <path id="DejaVuSans-50" d="M 1259 4147 
L 1259 2394 
L 2053 2394 
Q 2494 2394 2734 2622 
Q 2975 2850 2975 3272 
Q 2975 3691 2734 3919 
Q 2494 4147 2053 4147 
L 1259 4147 
z
M 628 4666 
L 2053 4666 
Q 2838 4666 3239 4311 
Q 3641 3956 3641 3272 
Q 3641 2581 3239 2228 
Q 2838 1875 2053 1875 
L 1259 1875 
L 1259 0 
L 628 0 
L 628 4666 
z
" transform="scale(0.015625)"/>
       <path id="DejaVuSans-61" d="M 2194 1759 
Q 1497 1759 1228 1600 
Q 959 1441 959 1056 
Q 959 750 1161 570 
Q 1363 391 1709 391 
Q 2188 391 2477 730 
Q 2766 1069 2766 1631 
L 2766 1759 
L 2194 1759 
z
M 3341 1997 
L 3341 0 
L 2766 0 
L 2766 531 
Q 2569 213 2275 61 
Q 1981 -91 1556 -91 
Q 1019 -91 701 211 
Q 384 513 384 1019 
Q 384 1609 779 1909 
Q 1175 2209 1959 2209 
L 2766 2209 
L 2766 2266 
Q 2766 2663 2505 2880 
Q 2244 3097 1772 3097 
Q 1472 3097 1187 3025 
Q 903 2953 641 2809 
L 641 3341 
Q 956 3463 1253 3523 
Q 1550 3584 1831 3584 
Q 2591 3584 2966 3190 
Q 3341 2797 3341 1997 
z
" transform="scale(0.015625)"/>
      </defs>
      <use xlink:href="#DejaVuSans-394" transform="translate(0 0.015625)"/>
      <use xlink:href="#DejaVuSans-Oblique-70" transform="translate(68.408203 0.015625)"/>
      <use xlink:href="#DejaVuSans-20" transform="translate(131.884766 0.015625)"/>
      <use xlink:href="#DejaVuSans-20" transform="translate(163.671875 0.015625)"/>
      <use xlink:href="#DejaVuSans-5b" transform="translate(195.458984 0.015625)"/>
      <use xlink:href="#DejaVuSans-50" transform="translate(234.472656 0.015625)"/>
      <use xlink:href="#DejaVuSans-61" transform="translate(294.775391 0.015625)"/>
      <use xlink:href="#DejaVuSans-5d" transform="translate(356.054688 0.015625)"/>
     </g>
    </g>
   </g>
   <g id="FillBetweenPolyCollection_1">
    <defs>
     <path id="mb31606ad26" d="M 68.645005 -58.162201 
L 68.645005 -57.660742 
L 69.895052 -57.885193 
L 71.145098 -58.113491 
L 72.395144 -58.345618 
L 73.64519 -58.581558 
L 74.895236 -58.821296 
L 76.145282 -59.064816 
L 77.395328 -59.312104 
L 78.645374 -59.563144 
L 79.895421 -59.817922 
L 81.145467 -60.076424 
L 82.395513 -60.338636 
L 83.645559 -60.604544 
L 84.895605 -60.874136 
L 86.145651 -61.147399 
L 87.395697 -61.424319 
L 88.645743 -61.704885 
L 89.89579 -61.989085 
L 91.145836 -62.276905 
L 92.395882 -62.568335 
L 93.645928 -62.863363 
L 94.895974 -63.161979 
L 96.14602 -63.46417 
L 97.396066 -63.769925 
L 98.646113 -64.079236 
L 99.896159 -64.392089 
L 101.146205 -64.708477 
L 102.396251 -65.028387 
L 103.646297 -65.351811 
L 104.896343 -65.678738 
L 106.146389 -66.009159 
L 107.396435 -66.343065 
L 108.646482 -66.680445 
L 109.896528 -67.021292 
L 111.146574 -67.365595 
L 112.39662 -67.713345 
L 113.646666 -68.064535 
L 114.896712 -68.419155 
L 116.146758 -68.777197 
L 117.396804 -69.138653 
L 118.646851 -69.503513 
L 119.896897 -69.87177 
L 121.146943 -70.243417 
L 122.396989 -70.618444 
L 123.647035 -70.996844 
L 124.897081 -71.37861 
L 126.147127 -71.763733 
L 127.397174 -72.152207 
L 128.64722 -72.544023 
L 129.897266 -72.939175 
L 131.147312 -73.337655 
L 132.397358 -73.739456 
L 133.647404 -74.144571 
L 134.89745 -74.552994 
L 136.147496 -74.964716 
L 137.397543 -75.379731 
L 138.647589 -75.798033 
L 139.897635 -76.219615 
L 141.147681 -76.644471 
L 142.397727 -77.072593 
L 143.647773 -77.503976 
L 144.897819 -77.938613 
L 146.147865 -78.376498 
L 147.397912 -78.817624 
L 148.647958 -79.261986 
L 149.898004 -79.709578 
L 151.14805 -80.160393 
L 152.398096 -80.614425 
L 153.648142 -81.07167 
L 154.898188 -81.53212 
L 156.148235 -81.99577 
L 157.398281 -82.462615 
L 158.648327 -82.932648 
L 159.898373 -83.405865 
L 161.148419 -83.88226 
L 162.398465 -84.361827 
L 163.648511 -84.84456 
L 164.898557 -85.330456 
L 166.148604 -85.819507 
L 167.39865 -86.31171 
L 168.648696 -86.807058 
L 169.898742 -87.305547 
L 171.148788 -87.807172 
L 172.398834 -88.311927 
L 173.64888 -88.819808 
L 174.898927 -89.330809 
L 176.148973 -89.844926 
L 177.399019 -90.362154 
L 178.649065 -90.882488 
L 179.899111 -91.405923 
L 181.149157 -91.932455 
L 182.399203 -92.462078 
L 183.649249 -92.994789 
L 184.899296 -93.530582 
L 186.149342 -94.069453 
L 187.399388 -94.611398 
L 188.649434 -95.156411 
L 189.89948 -95.70449 
L 191.149526 -96.255628 
L 192.399572 -96.809822 
L 193.649618 -97.367068 
L 194.899665 -97.92736 
L 196.149711 -98.490696 
L 197.399757 -99.05707 
L 198.649803 -99.626478 
L 199.899849 -100.198917 
L 201.149895 -100.774382 
L 202.399941 -101.352869 
L 203.649988 -101.934374 
L 204.900034 -102.518893 
L 206.15008 -103.106422 
L 207.400126 -103.696957 
L 208.650172 -104.290494 
L 209.900218 -104.887029 
L 211.150264 -105.486558 
L 212.40031 -106.089078 
L 213.650357 -106.694584 
L 214.900403 -107.303073 
L 216.150449 -107.914541 
L 217.400495 -108.528984 
L 218.650541 -109.146399 
L 219.900587 -109.766782 
L 221.150633 -110.390129 
L 222.400679 -111.016436 
L 223.650726 -111.645701 
L 224.900772 -112.277919 
L 226.150818 -112.913087 
L 227.400864 -113.551201 
L 228.65091 -114.192258 
L 229.900956 -114.836254 
L 231.151002 -115.483187 
L 232.401049 -116.133051 
L 233.651095 -116.785845 
L 234.901141 -117.441565 
L 236.151187 -118.100207 
L 237.401233 -118.761768 
L 238.651279 -119.426244 
L 239.901325 -120.093633 
L 241.151371 -120.763931 
L 242.401418 -121.437135 
L 243.651464 -122.113241 
L 244.90151 -122.792247 
L 246.151556 -123.474149 
L 247.401602 -124.158944 
L 248.651648 -124.846629 
L 249.901694 -125.537201 
L 251.15174 -126.230657 
L 252.401787 -126.926993 
L 253.651833 -127.626206 
L 254.901879 -128.328294 
L 256.151925 -129.033254 
L 257.401971 -129.741082 
L 258.652017 -130.451775 
L 259.902063 -131.165331 
L 261.15211 -131.881746 
L 262.402156 -132.601018 
L 263.652202 -133.323143 
L 264.902248 -134.04812 
L 266.152294 -134.775944 
L 267.40234 -135.506613 
L 268.652386 -136.240124 
L 269.902432 -136.976474 
L 271.152479 -137.715661 
L 272.402525 -138.457682 
L 273.652571 -139.202533 
L 274.902617 -139.950213 
L 276.152663 -140.700718 
L 277.402709 -141.454046 
L 278.652755 -142.210193 
L 279.902801 -142.969158 
L 281.152848 -143.730937 
L 282.402894 -144.495528 
L 283.65294 -145.262928 
L 284.902986 -146.033134 
L 286.153032 -146.806145 
L 287.403078 -147.581956 
L 288.653124 -148.360567 
L 289.903171 -149.141973 
L 291.153217 -149.926173 
L 292.403263 -150.713164 
L 293.653309 -151.502943 
L 294.903355 -152.295508 
L 296.153401 -153.090856 
L 297.403447 -153.888985 
L 298.653493 -154.689892 
L 299.90354 -155.493575 
L 301.153586 -156.300032 
L 302.403632 -157.109259 
L 303.653678 -157.921255 
L 304.903724 -158.736017 
L 306.15377 -159.553542 
L 307.403816 -160.373829 
L 308.653862 -161.196874 
L 309.903909 -162.022676 
L 311.153955 -162.851232 
L 312.404001 -163.68254 
L 313.654047 -164.516597 
L 314.904093 -165.353401 
L 316.154139 -166.192949 
L 317.404185 -167.03524 
L 318.654232 -167.880271 
L 319.904278 -168.72804 
L 321.154324 -169.578544 
L 322.40437 -170.431782 
L 323.654416 -171.287751 
L 324.904462 -172.146448 
L 326.154508 -173.007872 
L 327.404554 -173.87202 
L 328.654601 -174.73889 
L 329.904647 -175.60848 
L 331.154693 -176.480788 
L 332.404739 -177.355811 
L 333.654785 -178.233548 
L 334.904831 -179.113995 
L 336.154877 -179.997152 
L 337.404924 -180.883016 
L 338.65497 -181.771584 
L 339.905016 -182.662855 
L 341.155062 -183.556827 
L 342.405108 -184.453497 
L 343.655154 -185.352863 
L 344.9052 -186.254924 
L 346.155246 -187.159676 
L 347.405293 -188.067119 
L 348.655339 -188.97725 
L 349.905385 -189.890067 
L 351.155431 -190.805568 
L 352.405477 -191.72375 
L 353.655523 -192.644613 
L 354.905569 -193.568154 
L 356.155615 -194.49437 
L 357.405662 -195.42326 
L 358.655708 -196.354823 
L 359.905754 -197.289055 
L 361.1558 -198.225956 
L 362.405846 -199.165522 
L 363.655892 -200.107752 
L 364.905938 -201.052645 
L 366.155985 -202.000198 
L 367.406031 -202.950409 
L 368.656077 -203.903277 
L 369.906123 -204.858799 
L 371.156169 -205.816973 
L 372.406215 -206.777798 
L 373.656261 -207.741272 
L 374.906307 -208.707393 
L 376.156354 -209.676159 
L 377.4064 -210.647569 
L 378.656446 -211.621619 
L 379.906492 -212.598309 
L 381.156538 -213.577637 
L 382.406584 -214.559601 
L 383.65663 -215.544198 
L 384.906676 -216.531428 
L 386.156723 -217.521288 
L 387.406769 -218.513777 
L 388.656815 -219.508892 
L 389.906861 -220.506633 
L 391.156907 -221.506997 
L 392.406953 -222.509982 
L 393.656999 -223.515587 
L 394.907046 -224.52381 
L 396.157092 -225.534649 
L 397.407138 -226.548102 
L 398.657184 -227.564168 
L 399.90723 -228.582845 
L 401.157276 -229.604132 
L 402.407322 -230.628026 
L 403.657368 -231.654525 
L 404.907415 -232.683629 
L 406.157461 -233.715335 
L 407.407507 -234.749642 
L 408.657553 -235.786548 
L 409.907599 -236.826051 
L 411.157645 -237.86815 
L 412.407691 -238.912843 
L 413.657737 -239.960129 
L 414.907784 -241.010005 
L 416.15783 -242.06247 
L 417.407876 -243.117523 
L 418.657922 -244.175161 
L 419.907968 -245.235383 
L 421.158014 -246.298188 
L 422.40806 -247.363574 
L 423.658107 -248.43154 
L 424.908153 -249.502083 
L 426.158199 -250.575202 
L 427.408245 -251.650895 
L 428.658291 -252.729162 
L 429.908337 -253.81 
L 431.158383 -254.893407 
L 432.408429 -255.979383 
L 433.658476 -257.067925 
L 434.908522 -258.159033 
L 436.158568 -259.252704 
L 437.408614 -260.348937 
L 438.65866 -261.44773 
L 439.908706 -262.549083 
L 441.158752 -263.652992 
L 442.408798 -264.759458 
L 442.408798 -283.555321 
L 442.408798 -283.555321 
L 441.158752 -282.351114 
L 439.908706 -281.149689 
L 438.65866 -279.951047 
L 437.408614 -278.75519 
L 436.158568 -277.562119 
L 434.908522 -276.371837 
L 433.658476 -275.184345 
L 432.408429 -273.999644 
L 431.158383 -272.817737 
L 429.908337 -271.638625 
L 428.658291 -270.462309 
L 427.408245 -269.288792 
L 426.158199 -268.118076 
L 424.908153 -266.950161 
L 423.658107 -265.78505 
L 422.40806 -264.622744 
L 421.158014 -263.463245 
L 419.907968 -262.306556 
L 418.657922 -261.152677 
L 417.407876 -260.00161 
L 416.15783 -258.853358 
L 414.907784 -257.707921 
L 413.657737 -256.565303 
L 412.407691 -255.425504 
L 411.157645 -254.288526 
L 409.907599 -253.154372 
L 408.657553 -252.023042 
L 407.407507 -250.894539 
L 406.157461 -249.768865 
L 404.907415 -248.646022 
L 403.657368 -247.52601 
L 402.407322 -246.408833 
L 401.157276 -245.294492 
L 399.90723 -244.182988 
L 398.657184 -243.074325 
L 397.407138 -241.968503 
L 396.157092 -240.865524 
L 394.907046 -239.765391 
L 393.656999 -238.668105 
L 392.406953 -237.573669 
L 391.156907 -236.482083 
L 389.906861 -235.393351 
L 388.656815 -234.307473 
L 387.406769 -233.224452 
L 386.156723 -232.14429 
L 384.906676 -231.066989 
L 383.65663 -229.992551 
L 382.406584 -228.920977 
L 381.156538 -227.852271 
L 379.906492 -226.786432 
L 378.656446 -225.723465 
L 377.4064 -224.66337 
L 376.156354 -223.606149 
L 374.906307 -222.551806 
L 373.656261 -221.500341 
L 372.406215 -220.451757 
L 371.156169 -219.406056 
L 369.906123 -218.363239 
L 368.656077 -217.323309 
L 367.406031 -216.286269 
L 366.155985 -215.252119 
L 364.905938 -214.220863 
L 363.655892 -213.192501 
L 362.405846 -212.167037 
L 361.1558 -211.144473 
L 359.905754 -210.12481 
L 358.655708 -209.108051 
L 357.405662 -208.094197 
L 356.155615 -207.083252 
L 354.905569 -206.075216 
L 353.655523 -205.070093 
L 352.405477 -204.067885 
L 351.155431 -203.068593 
L 349.905385 -202.07222 
L 348.655339 -201.078768 
L 347.405293 -200.088239 
L 346.155246 -199.100636 
L 344.9052 -198.11596 
L 343.655154 -197.134215 
L 342.405108 -196.155402 
L 341.155062 -195.179523 
L 339.905016 -194.206581 
L 338.65497 -193.236578 
L 337.404924 -192.269516 
L 336.154877 -191.305398 
L 334.904831 -190.344227 
L 333.654785 -189.386003 
L 332.404739 -188.43073 
L 331.154693 -187.47841 
L 329.904647 -186.529046 
L 328.654601 -185.582639 
L 327.404554 -184.639192 
L 326.154508 -183.698708 
L 324.904462 -182.761189 
L 323.654416 -181.826637 
L 322.40437 -180.895056 
L 321.154324 -179.966446 
L 319.904278 -179.040811 
L 318.654232 -178.118153 
L 317.404185 -177.198475 
L 316.154139 -176.281778 
L 314.904093 -175.368067 
L 313.654047 -174.457343 
L 312.404001 -173.549608 
L 311.153955 -172.644865 
L 309.903909 -171.743118 
L 308.653862 -170.844367 
L 307.403816 -169.948617 
L 306.15377 -169.055869 
L 304.903724 -168.166126 
L 303.653678 -167.279391 
L 302.403632 -166.395666 
L 301.153586 -165.514954 
L 299.90354 -164.637258 
L 298.653493 -163.76258 
L 297.403447 -162.890923 
L 296.153401 -162.02229 
L 294.903355 -161.156684 
L 293.653309 -160.294106 
L 292.403263 -159.434561 
L 291.153217 -158.57805 
L 289.903171 -157.724576 
L 288.653124 -156.874143 
L 287.403078 -156.026753 
L 286.153032 -155.182409 
L 284.902986 -154.341113 
L 283.65294 -153.502869 
L 282.402894 -152.66768 
L 281.152848 -151.835547 
L 279.902801 -151.006475 
L 278.652755 -150.180466 
L 277.402709 -149.357523 
L 276.152663 -148.537649 
L 274.902617 -147.720847 
L 273.652571 -146.90712 
L 272.402525 -146.096471 
L 271.152479 -145.288903 
L 269.902432 -144.484419 
L 268.652386 -143.683021 
L 267.40234 -142.884714 
L 266.152294 -142.0895 
L 264.902248 -141.297383 
L 263.652202 -140.508365 
L 262.402156 -139.722449 
L 261.15211 -138.939639 
L 259.902063 -138.159938 
L 258.652017 -137.383349 
L 257.401971 -136.609875 
L 256.151925 -135.83952 
L 254.901879 -135.072287 
L 253.651833 -134.308179 
L 252.401787 -133.547199 
L 251.15174 -132.789351 
L 249.901694 -132.034638 
L 248.651648 -131.283064 
L 247.401602 -130.534631 
L 246.151556 -129.789343 
L 244.90151 -129.047204 
L 243.651464 -128.308217 
L 242.401418 -127.572386 
L 241.151371 -126.839713 
L 239.901325 -126.110204 
L 238.651279 -125.38386 
L 237.401233 -124.660686 
L 236.151187 -123.940685 
L 234.901141 -123.223861 
L 233.651095 -122.510217 
L 232.401049 -121.799758 
L 231.151002 -121.092486 
L 229.900956 -120.388406 
L 228.65091 -119.687521 
L 227.400864 -118.989835 
L 226.150818 -118.295352 
L 224.900772 -117.604076 
L 223.650726 -116.91601 
L 222.400679 -116.231158 
L 221.150633 -115.549524 
L 219.900587 -114.871113 
L 218.650541 -114.195928 
L 217.400495 -113.523973 
L 216.150449 -112.855251 
L 214.900403 -112.189768 
L 213.650357 -111.527528 
L 212.40031 -110.868533 
L 211.150264 -110.212789 
L 209.900218 -109.560299 
L 208.650172 -108.911068 
L 207.400126 -108.2651 
L 206.15008 -107.6224 
L 204.900034 -106.98297 
L 203.649988 -106.346817 
L 202.399941 -105.713944 
L 201.149895 -105.084355 
L 199.899849 -104.458056 
L 198.649803 -103.835049 
L 197.399757 -103.215341 
L 196.149711 -102.598935 
L 194.899665 -101.985837 
L 193.649618 -101.37605 
L 192.399572 -100.769579 
L 191.149526 -100.166429 
L 189.89948 -99.566605 
L 188.649434 -98.970112 
L 187.399388 -98.376953 
L 186.149342 -97.787135 
L 184.899296 -97.200662 
L 183.649249 -96.617538 
L 182.399203 -96.03777 
L 181.149157 -95.461361 
L 179.899111 -94.888318 
L 178.649065 -94.318644 
L 177.399019 -93.752346 
L 176.148973 -93.189428 
L 174.898927 -92.629895 
L 173.64888 -92.073754 
L 172.398834 -91.521008 
L 171.148788 -90.971665 
L 169.898742 -90.425728 
L 168.648696 -89.883204 
L 167.39865 -89.344099 
L 166.148604 -88.808417 
L 164.898557 -88.276164 
L 163.648511 -87.747346 
L 162.398465 -87.221969 
L 161.148419 -86.700039 
L 159.898373 -86.181562 
L 158.648327 -85.666542 
L 157.398281 -85.154988 
L 156.148235 -84.646903 
L 154.898188 -84.142296 
L 153.648142 -83.641171 
L 152.398096 -83.143535 
L 151.14805 -82.649395 
L 149.898004 -82.158757 
L 148.647958 -81.671626 
L 147.397912 -81.188011 
L 146.147865 -80.707917 
L 144.897819 -80.231351 
L 143.647773 -79.758319 
L 142.397727 -79.28883 
L 141.147681 -78.822888 
L 139.897635 -78.360503 
L 138.647589 -77.90168 
L 137.397543 -77.446426 
L 136.147496 -76.994749 
L 134.89745 -76.546657 
L 133.647404 -76.102156 
L 132.397358 -75.661255 
L 131.147312 -75.22396 
L 129.897266 -74.79028 
L 128.64722 -74.360221 
L 127.397174 -73.933793 
L 126.147127 -73.511003 
L 124.897081 -73.091859 
L 123.647035 -72.67637 
L 122.396989 -72.264543 
L 121.146943 -71.856387 
L 119.896897 -71.45191 
L 118.646851 -71.051122 
L 117.396804 -70.654031 
L 116.146758 -70.260646 
L 114.896712 -69.870976 
L 113.646666 -69.48503 
L 112.39662 -69.102817 
L 111.146574 -68.724347 
L 109.896528 -68.34963 
L 108.646482 -67.978674 
L 107.396435 -67.611491 
L 106.146389 -67.248089 
L 104.896343 -66.88848 
L 103.646297 -66.532673 
L 102.396251 -66.180679 
L 101.146205 -65.832509 
L 99.896159 -65.488173 
L 98.646113 -65.147683 
L 97.396066 -64.811049 
L 96.14602 -64.478284 
L 94.895974 -64.149398 
L 93.645928 -63.824404 
L 92.395882 -63.503314 
L 91.145836 -63.18614 
L 89.89579 -62.872895 
L 88.645743 -62.56359 
L 87.395697 -62.25824 
L 86.145651 -61.956857 
L 84.895605 -61.659456 
L 83.645559 -61.366049 
L 82.395513 -61.076651 
L 81.145467 -60.791276 
L 79.895421 -60.509939 
L 78.645374 -60.232654 
L 77.395328 -59.959439 
L 76.145282 -59.690306 
L 74.895236 -59.425274 
L 73.64519 -59.164359 
L 72.395144 -58.907576 
L 71.145098 -58.654944 
L 69.895052 -58.406479 
L 68.645005 -58.162201 
z
"/>
    </defs>
    <g clip-path="url(#p66bcbcc9b9)">
     <use xlink:href="#mb31606ad26" x="0" y="353.911063" style="fill: #eb6834; fill-opacity: 0.14"/>
    </g>
   </g>
   <g id="line2d_29">
    <path d="M 68.645005 295.999591 
L 78.645374 294.013163 
L 88.645743 291.776825 
L 98.646113 289.297603 
L 108.646482 286.581503 
L 118.646851 283.633745 
L 128.64722 280.45894 
L 138.647589 277.061206 
L 148.647958 273.444256 
L 158.648327 269.611467 
L 169.898742 265.045425 
L 181.149157 260.214155 
L 192.399572 255.121362 
L 203.649988 249.770467 
L 214.900403 244.164642 
L 226.150818 238.306843 
L 237.401233 232.199836 
L 248.651648 225.846216 
L 259.902063 219.248428 
L 271.152479 212.40878 
L 282.402894 205.329459 
L 294.903355 197.184967 
L 307.403816 188.74984 
L 319.904278 180.026637 
L 332.404739 171.017792 
L 344.9052 161.725621 
L 357.405662 152.152334 
L 369.906123 142.300044 
L 382.406584 132.170773 
L 394.907046 121.766462 
L 407.407507 111.088972 
L 419.907968 100.140093 
L 433.658476 87.784927 
L 442.408798 79.753673 
L 442.408798 79.753673 
" clip-path="url(#p66bcbcc9b9)" style="fill: none; stroke: #eb6834; stroke-opacity: 0.55; stroke-width: 1.6; stroke-linecap: square"/>
   </g>
   <g id="patch_3">
    <path d="M 58.543281 301.927 
L 58.543281 63.535 
" style="fill: none; stroke: #e8e7e3; stroke-linejoin: miter; stroke-linecap: square"/>
   </g>
   <g id="patch_4">
    <path d="M 58.543281 301.927 
L 449.143281 301.927 
" style="fill: none; stroke: #e8e7e3; stroke-linejoin: miter; stroke-linecap: square"/>
   </g>
   <g id="line2d_30">
    <defs>
     <path id="m0f78232023" d="M 0 3.25 
C 0.86191 3.25 1.688635 2.907559 2.298097 2.298097 
C 2.907559 1.688635 3.25 0.86191 3.25 0 
C 3.25 -0.86191 2.907559 -1.688635 2.298097 -2.298097 
C 1.688635 -2.907559 0.86191 -3.25 0 -3.25 
C -0.86191 -3.25 -1.688635 -2.907559 -2.298097 -2.298097 
C -2.907559 -1.688635 -3.25 -0.86191 -3.25 0 
C -3.25 0.86191 -2.907559 1.688635 -2.298097 2.298097 
C -1.688635 2.907559 -0.86191 3.25 0 3.25 
z
" style="stroke: #ffffff; stroke-width: 1.6"/>
    </defs>
    <g clip-path="url(#p66bcbcc9b9)">
     <use xlink:href="#m0f78232023" x="78.74673" y="293.718071" style="fill: #eb6834; stroke: #ffffff; stroke-width: 1.6"/>
     <use xlink:href="#m0f78232023" x="146.091557" y="275.259842" style="fill: #eb6834; stroke: #ffffff; stroke-width: 1.6"/>
     <use xlink:href="#m0f78232023" x="213.436385" y="246.678959" style="fill: #eb6834; stroke: #ffffff; stroke-width: 1.6"/>
     <use xlink:href="#m0f78232023" x="280.781212" y="207.608927" style="fill: #eb6834; stroke: #ffffff; stroke-width: 1.6"/>
     <use xlink:href="#m0f78232023" x="348.12604" y="157.942437" style="fill: #eb6834; stroke: #ffffff; stroke-width: 1.6"/>
     <use xlink:href="#m0f78232023" x="415.470867" y="97.319451" style="fill: #eb6834; stroke: #ffffff; stroke-width: 1.6"/>
    </g>
   </g>
   <g id="text_17">
    <!-- 0.618 Pa -->
    <g style="fill: #0b0b0b" transform="translate(368.132508 87.319451) scale(0.095 -0.095)">
     <defs>
      <path id="DejaVuSans-38" d="M 2034 2216 
Q 1584 2216 1326 1975 
Q 1069 1734 1069 1313 
Q 1069 891 1326 650 
Q 1584 409 2034 409 
Q 2484 409 2743 651 
Q 3003 894 3003 1313 
Q 3003 1734 2745 1975 
Q 2488 2216 2034 2216 
z
M 1403 2484 
Q 997 2584 770 2862 
Q 544 3141 544 3541 
Q 544 4100 942 4425 
Q 1341 4750 2034 4750 
Q 2731 4750 3128 4425 
Q 3525 4100 3525 3541 
Q 3525 3141 3298 2862 
Q 3072 2584 2669 2484 
Q 3125 2378 3379 2068 
Q 3634 1759 3634 1313 
Q 3634 634 3220 271 
Q 2806 -91 2034 -91 
Q 1263 -91 848 271 
Q 434 634 434 1313 
Q 434 1759 690 2068 
Q 947 2378 1403 2484 
z
M 1172 3481 
Q 1172 3119 1398 2916 
Q 1625 2713 2034 2713 
Q 2441 2713 2670 2916 
Q 2900 3119 2900 3481 
Q 2900 3844 2670 4047 
Q 2441 4250 2034 4250 
Q 1625 4250 1398 4047 
Q 1172 3844 1172 3481 
z
" transform="scale(0.015625)"/>
     </defs>
     <use xlink:href="#DejaVuSans-30"/>
     <use xlink:href="#DejaVuSans-2e" transform="translate(63.623047 0)"/>
     <use xlink:href="#DejaVuSans-36" transform="translate(95.410156 0)"/>
     <use xlink:href="#DejaVuSans-31" transform="translate(159.033203 0)"/>
     <use xlink:href="#DejaVuSans-38" transform="translate(222.65625 0)"/>
     <use xlink:href="#DejaVuSans-20" transform="translate(286.279297 0)"/>
     <use xlink:href="#DejaVuSans-50" transform="translate(318.066406 0)"/>
     <use xlink:href="#DejaVuSans-61" transform="translate(373.869141 0)"/>
    </g>
   </g>
   <g id="text_18">
    <!-- $\Delta p = 0.0240\,V^{1.795}$ -->
    <g style="fill: #52514e" transform="translate(82.113971 145.477) scale(0.1 -0.1)">
     <defs>
      <path id="DejaVuSans-3d" d="M 678 2906 
L 4684 2906 
L 4684 2381 
L 678 2381 
L 678 2906 
z
M 678 1631 
L 4684 1631 
L 4684 1100 
L 678 1100 
L 678 1631 
z
" transform="scale(0.015625)"/>
      <path id="DejaVuSans-Oblique-56" d="M 1319 0 
L 500 4666 
L 1119 4666 
L 1797 653 
L 4063 4666 
L 4750 4666 
L 2053 0 
L 1319 0 
z
" transform="scale(0.015625)"/>
      <path id="DejaVuSans-39" d="M 703 97 
L 703 672 
Q 941 559 1184 500 
Q 1428 441 1663 441 
Q 2288 441 2617 861 
Q 2947 1281 2994 2138 
Q 2813 1869 2534 1725 
Q 2256 1581 1919 1581 
Q 1219 1581 811 2004 
Q 403 2428 403 3163 
Q 403 3881 828 4315 
Q 1253 4750 1959 4750 
Q 2769 4750 3195 4129 
Q 3622 3509 3622 2328 
Q 3622 1225 3098 567 
Q 2575 -91 1691 -91 
Q 1453 -91 1209 -44 
Q 966 3 703 97 
z
M 1959 2075 
Q 2384 2075 2632 2365 
Q 2881 2656 2881 3163 
Q 2881 3666 2632 3958 
Q 2384 4250 1959 4250 
Q 1534 4250 1286 3958 
Q 1038 3666 1038 3163 
Q 1038 2656 1286 2365 
Q 1534 2075 1959 2075 
z
" transform="scale(0.015625)"/>
     </defs>
     <use xlink:href="#DejaVuSans-394" transform="translate(0 0.765625)"/>
     <use xlink:href="#DejaVuSans-Oblique-70" transform="translate(68.408203 0.765625)"/>
     <use xlink:href="#DejaVuSans-3d" transform="translate(151.367188 0.765625)"/>
     <use xlink:href="#DejaVuSans-30" transform="translate(254.638672 0.765625)"/>
     <use xlink:href="#DejaVuSans-2e" transform="translate(318.261719 0.765625)"/>
     <use xlink:href="#DejaVuSans-30" transform="translate(350.048828 0.765625)"/>
     <use xlink:href="#DejaVuSans-32" transform="translate(413.671875 0.765625)"/>
     <use xlink:href="#DejaVuSans-34" transform="translate(477.294922 0.765625)"/>
     <use xlink:href="#DejaVuSans-30" transform="translate(540.917969 0.765625)"/>
     <use xlink:href="#DejaVuSans-Oblique-56" transform="translate(620.776692 0.765625)"/>
     <use xlink:href="#DejaVuSans-31" transform="translate(696.201666 39.046875) scale(0.7)"/>
     <use xlink:href="#DejaVuSans-2e" transform="translate(740.737799 39.046875) scale(0.7)"/>
     <use xlink:href="#DejaVuSans-37" transform="translate(757.563775 39.046875) scale(0.7)"/>
     <use xlink:href="#DejaVuSans-39" transform="translate(802.099908 39.046875) scale(0.7)"/>
     <use xlink:href="#DejaVuSans-35" transform="translate(846.636041 39.046875) scale(0.7)"/>
    </g>
    <!-- shaded: ±4.23 % (formal 2nd order; -->
    <g style="fill: #52514e" transform="translate(82.113971 156.695125) scale(0.1 -0.1)">
     <defs>
      <path id="DejaVuSans-68" d="M 3513 2113 
L 3513 0 
L 2938 0 
L 2938 2094 
Q 2938 2591 2744 2837 
Q 2550 3084 2163 3084 
Q 1697 3084 1428 2787 
Q 1159 2491 1159 1978 
L 1159 0 
L 581 0 
L 581 4863 
L 1159 4863 
L 1159 2956 
Q 1366 3272 1645 3428 
Q 1925 3584 2291 3584 
Q 2894 3584 3203 3211 
Q 3513 2838 3513 2113 
z
" transform="scale(0.015625)"/>
      <path id="DejaVuSans-64" d="M 2906 2969 
L 2906 4863 
L 3481 4863 
L 3481 0 
L 2906 0 
L 2906 525 
Q 2725 213 2448 61 
Q 2172 -91 1784 -91 
Q 1150 -91 751 415 
Q 353 922 353 1747 
Q 353 2572 751 3078 
Q 1150 3584 1784 3584 
Q 2172 3584 2448 3432 
Q 2725 3281 2906 2969 
z
M 947 1747 
Q 947 1113 1208 752 
Q 1469 391 1925 391 
Q 2381 391 2643 752 
Q 2906 1113 2906 1747 
Q 2906 2381 2643 2742 
Q 2381 3103 1925 3103 
Q 1469 3103 1208 2742 
Q 947 2381 947 1747 
z
" transform="scale(0.015625)"/>
      <path id="DejaVuSans-3a" d="M 750 794 
L 1409 794 
L 1409 0 
L 750 0 
L 750 794 
z
M 750 3309 
L 1409 3309 
L 1409 2516 
L 750 2516 
L 750 3309 
z
" transform="scale(0.015625)"/>
      <path id="DejaVuSans-b1" d="M 2944 4013 
L 2944 2803 
L 4684 2803 
L 4684 2272 
L 2944 2272 
L 2944 1063 
L 2419 1063 
L 2419 2272 
L 678 2272 
L 678 2803 
L 2419 2803 
L 2419 4013 
L 2944 4013 
z
M 678 531 
L 4684 531 
L 4684 0 
L 678 0 
L 678 531 
z
" transform="scale(0.015625)"/>
      <path id="DejaVuSans-25" d="M 4653 2053 
Q 4381 2053 4226 1822 
Q 4072 1591 4072 1178 
Q 4072 772 4226 539 
Q 4381 306 4653 306 
Q 4919 306 5073 539 
Q 5228 772 5228 1178 
Q 5228 1588 5073 1820 
Q 4919 2053 4653 2053 
z
M 4653 2450 
Q 5147 2450 5437 2106 
Q 5728 1763 5728 1178 
Q 5728 594 5436 251 
Q 5144 -91 4653 -91 
Q 4153 -91 3862 251 
Q 3572 594 3572 1178 
Q 3572 1766 3864 2108 
Q 4156 2450 4653 2450 
z
M 1428 4353 
Q 1159 4353 1004 4120 
Q 850 3888 850 3481 
Q 850 3069 1003 2837 
Q 1156 2606 1428 2606 
Q 1700 2606 1854 2837 
Q 2009 3069 2009 3481 
Q 2009 3884 1853 4118 
Q 1697 4353 1428 4353 
z
M 4250 4750 
L 4750 4750 
L 1831 -91 
L 1331 -91 
L 4250 4750 
z
M 1428 4750 
Q 1922 4750 2215 4408 
Q 2509 4066 2509 3481 
Q 2509 2891 2217 2550 
Q 1925 2209 1428 2209 
Q 931 2209 642 2551 
Q 353 2894 353 3481 
Q 353 4063 643 4406 
Q 934 4750 1428 4750 
z
" transform="scale(0.015625)"/>
      <path id="DejaVuSans-28" d="M 1984 4856 
Q 1566 4138 1362 3434 
Q 1159 2731 1159 2009 
Q 1159 1288 1364 580 
Q 1569 -128 1984 -844 
L 1484 -844 
Q 1016 -109 783 600 
Q 550 1309 550 2009 
Q 550 2706 781 3412 
Q 1013 4119 1484 4856 
L 1984 4856 
z
" transform="scale(0.015625)"/>
      <path id="DejaVuSans-66" d="M 2375 4863 
L 2375 4384 
L 1825 4384 
Q 1516 4384 1395 4259 
Q 1275 4134 1275 3809 
L 1275 3500 
L 2222 3500 
L 2222 3053 
L 1275 3053 
L 1275 0 
L 697 0 
L 697 3053 
L 147 3053 
L 147 3500 
L 697 3500 
L 697 3744 
Q 697 4328 969 4595 
Q 1241 4863 1831 4863 
L 2375 4863 
z
" transform="scale(0.015625)"/>
      <path id="DejaVuSans-72" d="M 2631 2963 
Q 2534 3019 2420 3045 
Q 2306 3072 2169 3072 
Q 1681 3072 1420 2755 
Q 1159 2438 1159 1844 
L 1159 0 
L 581 0 
L 581 3500 
L 1159 3500 
L 1159 2956 
Q 1341 3275 1631 3429 
Q 1922 3584 2338 3584 
Q 2397 3584 2469 3576 
Q 2541 3569 2628 3553 
L 2631 2963 
z
" transform="scale(0.015625)"/>
      <path id="DejaVuSans-3b" d="M 750 3309 
L 1409 3309 
L 1409 2516 
L 750 2516 
L 750 3309 
z
M 750 794 
L 1409 794 
L 1409 256 
L 897 -744 
L 494 -744 
L 750 256 
L 750 794 
z
" transform="scale(0.015625)"/>
     </defs>
     <use xlink:href="#DejaVuSans-73"/>
     <use xlink:href="#DejaVuSans-68" transform="translate(52.099609 0)"/>
     <use xlink:href="#DejaVuSans-61" transform="translate(115.478516 0)"/>
     <use xlink:href="#DejaVuSans-64" transform="translate(176.757812 0)"/>
     <use xlink:href="#DejaVuSans-65" transform="translate(240.234375 0)"/>
     <use xlink:href="#DejaVuSans-64" transform="translate(301.757812 0)"/>
     <use xlink:href="#DejaVuSans-3a" transform="translate(365.234375 0)"/>
     <use xlink:href="#DejaVuSans-20" transform="translate(398.925781 0)"/>
     <use xlink:href="#DejaVuSans-b1" transform="translate(430.712891 0)"/>
     <use xlink:href="#DejaVuSans-34" transform="translate(514.501953 0)"/>
     <use xlink:href="#DejaVuSans-2e" transform="translate(578.125 0)"/>
     <use xlink:href="#DejaVuSans-32" transform="translate(609.912109 0)"/>
     <use xlink:href="#DejaVuSans-33" transform="translate(673.535156 0)"/>
     <use xlink:href="#DejaVuSans-20" transform="translate(737.158203 0)"/>
     <use xlink:href="#DejaVuSans-25" transform="translate(768.945312 0)"/>
     <use xlink:href="#DejaVuSans-20" transform="translate(863.964844 0)"/>
     <use xlink:href="#DejaVuSans-28" transform="translate(895.751953 0)"/>
     <use xlink:href="#DejaVuSans-66" transform="translate(934.765625 0)"/>
     <use xlink:href="#DejaVuSans-6f" transform="translate(969.970703 0)"/>
     <use xlink:href="#DejaVuSans-72" transform="translate(1031.152344 0)"/>
     <use xlink:href="#DejaVuSans-6d" transform="translate(1070.515625 0)"/>
     <use xlink:href="#DejaVuSans-61" transform="translate(1167.927734 0)"/>
     <use xlink:href="#DejaVuSans-6c" transform="translate(1229.207031 0)"/>
     <use xlink:href="#DejaVuSans-20" transform="translate(1256.990234 0)"/>
     <use xlink:href="#DejaVuSans-32" transform="translate(1288.777344 0)"/>
     <use xlink:href="#DejaVuSans-6e" transform="translate(1352.400391 0)"/>
     <use xlink:href="#DejaVuSans-64" transform="translate(1415.779297 0)"/>
     <use xlink:href="#DejaVuSans-20" transform="translate(1479.255859 0)"/>
     <use xlink:href="#DejaVuSans-6f" transform="translate(1511.042969 0)"/>
     <use xlink:href="#DejaVuSans-72" transform="translate(1572.224609 0)"/>
     <use xlink:href="#DejaVuSans-64" transform="translate(1611.587891 0)"/>
     <use xlink:href="#DejaVuSans-65" transform="translate(1675.064453 0)"/>
     <use xlink:href="#DejaVuSans-72" transform="translate(1736.587891 0)"/>
     <use xlink:href="#DejaVuSans-3b" transform="translate(1777.701172 0)"/>
    </g>
    <!-- the triplet was not asymptotic for $\Delta p$) -->
    <g style="fill: #52514e" transform="translate(82.113971 167.894813) scale(0.1 -0.1)">
     <defs>
      <path id="DejaVuSans-70" d="M 1159 525 
L 1159 -1331 
L 581 -1331 
L 581 3500 
L 1159 3500 
L 1159 2969 
Q 1341 3281 1617 3432 
Q 1894 3584 2278 3584 
Q 2916 3584 3314 3078 
Q 3713 2572 3713 1747 
Q 3713 922 3314 415 
Q 2916 -91 2278 -91 
Q 1894 -91 1617 61 
Q 1341 213 1159 525 
z
M 3116 1747 
Q 3116 2381 2855 2742 
Q 2594 3103 2138 3103 
Q 1681 3103 1420 2742 
Q 1159 2381 1159 1747 
Q 1159 1113 1420 752 
Q 1681 391 2138 391 
Q 2594 391 2855 752 
Q 3116 1113 3116 1747 
z
" transform="scale(0.015625)"/>
      <path id="DejaVuSans-77" d="M 269 3500 
L 844 3500 
L 1563 769 
L 2278 3500 
L 2956 3500 
L 3675 769 
L 4391 3500 
L 4966 3500 
L 4050 0 
L 3372 0 
L 2619 2869 
L 1863 0 
L 1184 0 
L 269 3500 
z
" transform="scale(0.015625)"/>
      <path id="DejaVuSans-29" d="M 513 4856 
L 1013 4856 
Q 1481 4119 1714 3412 
Q 1947 2706 1947 2009 
Q 1947 1309 1714 600 
Q 1481 -109 1013 -844 
L 513 -844 
Q 928 -128 1133 580 
Q 1338 1288 1338 2009 
Q 1338 2731 1133 3434 
Q 928 4138 513 4856 
z
" transform="scale(0.015625)"/>
     </defs>
     <use xlink:href="#DejaVuSans-74" transform="translate(0 0.015625)"/>
     <use xlink:href="#DejaVuSans-68" transform="translate(39.208984 0.015625)"/>
     <use xlink:href="#DejaVuSans-65" transform="translate(102.587891 0.015625)"/>
     <use xlink:href="#DejaVuSans-20" transform="translate(164.111328 0.015625)"/>
     <use xlink:href="#DejaVuSans-74" transform="translate(195.898438 0.015625)"/>
     <use xlink:href="#DejaVuSans-72" transform="translate(235.107422 0.015625)"/>
     <use xlink:href="#DejaVuSans-69" transform="translate(276.220703 0.015625)"/>
     <use xlink:href="#DejaVuSans-70" transform="translate(304.003906 0.015625)"/>
     <use xlink:href="#DejaVuSans-6c" transform="translate(367.480469 0.015625)"/>
     <use xlink:href="#DejaVuSans-65" transform="translate(395.263672 0.015625)"/>
     <use xlink:href="#DejaVuSans-74" transform="translate(456.787109 0.015625)"/>
     <use xlink:href="#DejaVuSans-20" transform="translate(495.996094 0.015625)"/>
     <use xlink:href="#DejaVuSans-77" transform="translate(527.783203 0.015625)"/>
     <use xlink:href="#DejaVuSans-61" transform="translate(609.570312 0.015625)"/>
     <use xlink:href="#DejaVuSans-73" transform="translate(670.849609 0.015625)"/>
     <use xlink:href="#DejaVuSans-20" transform="translate(722.949219 0.015625)"/>
     <use xlink:href="#DejaVuSans-6e" transform="translate(754.736328 0.015625)"/>
     <use xlink:href="#DejaVuSans-6f" transform="translate(818.115234 0.015625)"/>
     <use xlink:href="#DejaVuSans-74" transform="translate(879.296875 0.015625)"/>
     <use xlink:href="#DejaVuSans-20" transform="translate(918.505859 0.015625)"/>
     <use xlink:href="#DejaVuSans-61" transform="translate(950.292969 0.015625)"/>
     <use xlink:href="#DejaVuSans-73" transform="translate(1011.572266 0.015625)"/>
     <use xlink:href="#DejaVuSans-79" transform="translate(1063.671875 0.015625)"/>
     <use xlink:href="#DejaVuSans-6d" transform="translate(1122.851562 0.015625)"/>
     <use xlink:href="#DejaVuSans-70" transform="translate(1220.263672 0.015625)"/>
     <use xlink:href="#DejaVuSans-74" transform="translate(1283.740234 0.015625)"/>
     <use xlink:href="#DejaVuSans-6f" transform="translate(1322.949219 0.015625)"/>
     <use xlink:href="#DejaVuSans-74" transform="translate(1384.130859 0.015625)"/>
     <use xlink:href="#DejaVuSans-69" transform="translate(1423.339844 0.015625)"/>
     <use xlink:href="#DejaVuSans-63" transform="translate(1451.123047 0.015625)"/>
     <use xlink:href="#DejaVuSans-20" transform="translate(1506.103516 0.015625)"/>
     <use xlink:href="#DejaVuSans-66" transform="translate(1537.890625 0.015625)"/>
     <use xlink:href="#DejaVuSans-6f" transform="translate(1573.095703 0.015625)"/>
     <use xlink:href="#DejaVuSans-72" transform="translate(1634.277344 0.015625)"/>
     <use xlink:href="#DejaVuSans-20" transform="translate(1675.390625 0.015625)"/>
     <use xlink:href="#DejaVuSans-394" transform="translate(1707.177734 0.015625)"/>
     <use xlink:href="#DejaVuSans-Oblique-70" transform="translate(1775.585938 0.015625)"/>
     <use xlink:href="#DejaVuSans-29" transform="translate(1839.0625 0.015625)"/>
    </g>
   </g>
   <g id="text_19">
    <!-- area-weighted static pressure at the inlet, outlet held at 0 Pa gauge -->
    <g style="fill: #52514e" transform="translate(58.543281 52.559297) scale(0.095 -0.095)">
     <defs>
      <path id="DejaVuSans-2d" d="M 313 2009 
L 1997 2009 
L 1997 1497 
L 313 1497 
L 313 2009 
z
" transform="scale(0.015625)"/>
      <path id="DejaVuSans-67" d="M 2906 1791 
Q 2906 2416 2648 2759 
Q 2391 3103 1925 3103 
Q 1463 3103 1205 2759 
Q 947 2416 947 1791 
Q 947 1169 1205 825 
Q 1463 481 1925 481 
Q 2391 481 2648 825 
Q 2906 1169 2906 1791 
z
M 3481 434 
Q 3481 -459 3084 -895 
Q 2688 -1331 1869 -1331 
Q 1566 -1331 1297 -1286 
Q 1028 -1241 775 -1147 
L 775 -588 
Q 1028 -725 1275 -790 
Q 1522 -856 1778 -856 
Q 2344 -856 2625 -561 
Q 2906 -266 2906 331 
L 2906 616 
Q 2728 306 2450 153 
Q 2172 0 1784 0 
Q 1141 0 747 490 
Q 353 981 353 1791 
Q 353 2603 747 3093 
Q 1141 3584 1784 3584 
Q 2172 3584 2450 3431 
Q 2728 3278 2906 2969 
L 2906 3500 
L 3481 3500 
L 3481 434 
z
" transform="scale(0.015625)"/>
      <path id="DejaVuSans-75" d="M 544 1381 
L 544 3500 
L 1119 3500 
L 1119 1403 
Q 1119 906 1312 657 
Q 1506 409 1894 409 
Q 2359 409 2629 706 
Q 2900 1003 2900 1516 
L 2900 3500 
L 3475 3500 
L 3475 0 
L 2900 0 
L 2900 538 
Q 2691 219 2414 64 
Q 2138 -91 1772 -91 
Q 1169 -91 856 284 
Q 544 659 544 1381 
z
M 1991 3584 
L 1991 3584 
z
" transform="scale(0.015625)"/>
      <path id="DejaVuSans-2c" d="M 750 794 
L 1409 794 
L 1409 256 
L 897 -744 
L 494 -744 
L 750 256 
L 750 794 
z
" transform="scale(0.015625)"/>
     </defs>
     <use xlink:href="#DejaVuSans-61"/>
     <use xlink:href="#DejaVuSans-72" transform="translate(61.279297 0)"/>
     <use xlink:href="#DejaVuSans-65" transform="translate(100.142578 0)"/>
     <use xlink:href="#DejaVuSans-61" transform="translate(161.666016 0)"/>
     <use xlink:href="#DejaVuSans-2d" transform="translate(222.945312 0)"/>
     <use xlink:href="#DejaVuSans-77" transform="translate(259.029297 0)"/>
     <use xlink:href="#DejaVuSans-65" transform="translate(340.816406 0)"/>
     <use xlink:href="#DejaVuSans-69" transform="translate(402.339844 0)"/>
     <use xlink:href="#DejaVuSans-67" transform="translate(430.123047 0)"/>
     <use xlink:href="#DejaVuSans-68" transform="translate(493.599609 0)"/>
     <use xlink:href="#DejaVuSans-74" transform="translate(556.978516 0)"/>
     <use xlink:href="#DejaVuSans-65" transform="translate(596.1875 0)"/>
     <use xlink:href="#DejaVuSans-64" transform="translate(657.710938 0)"/>
     <use xlink:href="#DejaVuSans-20" transform="translate(721.1875 0)"/>
     <use xlink:href="#DejaVuSans-73" transform="translate(752.974609 0)"/>
     <use xlink:href="#DejaVuSans-74" transform="translate(805.074219 0)"/>
     <use xlink:href="#DejaVuSans-61" transform="translate(844.283203 0)"/>
     <use xlink:href="#DejaVuSans-74" transform="translate(905.5625 0)"/>
     <use xlink:href="#DejaVuSans-69" transform="translate(944.771484 0)"/>
     <use xlink:href="#DejaVuSans-63" transform="translate(972.554688 0)"/>
     <use xlink:href="#DejaVuSans-20" transform="translate(1027.535156 0)"/>
     <use xlink:href="#DejaVuSans-70" transform="translate(1059.322266 0)"/>
     <use xlink:href="#DejaVuSans-72" transform="translate(1122.798828 0)"/>
     <use xlink:href="#DejaVuSans-65" transform="translate(1161.662109 0)"/>
     <use xlink:href="#DejaVuSans-73" transform="translate(1223.185547 0)"/>
     <use xlink:href="#DejaVuSans-73" transform="translate(1275.285156 0)"/>
     <use xlink:href="#DejaVuSans-75" transform="translate(1327.384766 0)"/>
     <use xlink:href="#DejaVuSans-72" transform="translate(1390.763672 0)"/>
     <use xlink:href="#DejaVuSans-65" transform="translate(1429.626953 0)"/>
     <use xlink:href="#DejaVuSans-20" transform="translate(1491.150391 0)"/>
     <use xlink:href="#DejaVuSans-61" transform="translate(1522.9375 0)"/>
     <use xlink:href="#DejaVuSans-74" transform="translate(1584.216797 0)"/>
     <use xlink:href="#DejaVuSans-20" transform="translate(1623.425781 0)"/>
     <use xlink:href="#DejaVuSans-74" transform="translate(1655.212891 0)"/>
     <use xlink:href="#DejaVuSans-68" transform="translate(1694.421875 0)"/>
     <use xlink:href="#DejaVuSans-65" transform="translate(1757.800781 0)"/>
     <use xlink:href="#DejaVuSans-20" transform="translate(1819.324219 0)"/>
     <use xlink:href="#DejaVuSans-69" transform="translate(1851.111328 0)"/>
     <use xlink:href="#DejaVuSans-6e" transform="translate(1878.894531 0)"/>
     <use xlink:href="#DejaVuSans-6c" transform="translate(1942.273438 0)"/>
     <use xlink:href="#DejaVuSans-65" transform="translate(1970.056641 0)"/>
     <use xlink:href="#DejaVuSans-74" transform="translate(2031.580078 0)"/>
     <use xlink:href="#DejaVuSans-2c" transform="translate(2070.789062 0)"/>
     <use xlink:href="#DejaVuSans-20" transform="translate(2102.576172 0)"/>
     <use xlink:href="#DejaVuSans-6f" transform="translate(2134.363281 0)"/>
     <use xlink:href="#DejaVuSans-75" transform="translate(2195.544922 0)"/>
     <use xlink:href="#DejaVuSans-74" transform="translate(2258.923828 0)"/>
     <use xlink:href="#DejaVuSans-6c" transform="translate(2298.132812 0)"/>
     <use xlink:href="#DejaVuSans-65" transform="translate(2325.916016 0)"/>
     <use xlink:href="#DejaVuSans-74" transform="translate(2387.439453 0)"/>
     <use xlink:href="#DejaVuSans-20" transform="translate(2426.648438 0)"/>
     <use xlink:href="#DejaVuSans-68" transform="translate(2458.435547 0)"/>
     <use xlink:href="#DejaVuSans-65" transform="translate(2521.814453 0)"/>
     <use xlink:href="#DejaVuSans-6c" transform="translate(2583.337891 0)"/>
     <use xlink:href="#DejaVuSans-64" transform="translate(2611.121094 0)"/>
     <use xlink:href="#DejaVuSans-20" transform="translate(2674.597656 0)"/>
     <use xlink:href="#DejaVuSans-61" transform="translate(2706.384766 0)"/>
     <use xlink:href="#DejaVuSans-74" transform="translate(2767.664062 0)"/>
     <use xlink:href="#DejaVuSans-20" transform="translate(2806.873047 0)"/>
     <use xlink:href="#DejaVuSans-30" transform="translate(2838.660156 0)"/>
     <use xlink:href="#DejaVuSans-20" transform="translate(2902.283203 0)"/>
     <use xlink:href="#DejaVuSans-50" transform="translate(2934.070312 0)"/>
     <use xlink:href="#DejaVuSans-61" transform="translate(2989.873047 0)"/>
     <use xlink:href="#DejaVuSans-20" transform="translate(3051.152344 0)"/>
     <use xlink:href="#DejaVuSans-67" transform="translate(3082.939453 0)"/>
     <use xlink:href="#DejaVuSans-61" transform="translate(3146.416016 0)"/>
     <use xlink:href="#DejaVuSans-75" transform="translate(3207.695312 0)"/>
     <use xlink:href="#DejaVuSans-67" transform="translate(3271.074219 0)"/>
     <use xlink:href="#DejaVuSans-65" transform="translate(3334.550781 0)"/>
    </g>
   </g>
   <g id="text_20">
    <!-- Pressure drop rises as $V^{1.8}$, not $V^2$ -->
    <g style="fill: #0b0b0b" transform="translate(58.543281 31.535) scale(0.125 -0.125)">
     <defs>
      <path id="DejaVuSans-Bold-50" d="M 588 4666 
L 2584 4666 
Q 3475 4666 3951 4270 
Q 4428 3875 4428 3144 
Q 4428 2409 3951 2014 
Q 3475 1619 2584 1619 
L 1791 1619 
L 1791 0 
L 588 0 
L 588 4666 
z
M 1791 3794 
L 1791 2491 
L 2456 2491 
Q 2806 2491 2997 2661 
Q 3188 2831 3188 3144 
Q 3188 3456 2997 3625 
Q 2806 3794 2456 3794 
L 1791 3794 
z
" transform="scale(0.015625)"/>
      <path id="DejaVuSans-Bold-72" d="M 3138 2547 
Q 2991 2616 2845 2648 
Q 2700 2681 2553 2681 
Q 2122 2681 1889 2404 
Q 1656 2128 1656 1613 
L 1656 0 
L 538 0 
L 538 3500 
L 1656 3500 
L 1656 2925 
Q 1872 3269 2151 3426 
Q 2431 3584 2822 3584 
Q 2878 3584 2943 3579 
Q 3009 3575 3134 3559 
L 3138 2547 
z
" transform="scale(0.015625)"/>
      <path id="DejaVuSans-Bold-65" d="M 4031 1759 
L 4031 1441 
L 1416 1441 
Q 1456 1047 1700 850 
Q 1944 653 2381 653 
Q 2734 653 3104 758 
Q 3475 863 3866 1075 
L 3866 213 
Q 3469 63 3072 -14 
Q 2675 -91 2278 -91 
Q 1328 -91 801 392 
Q 275 875 275 1747 
Q 275 2603 792 3093 
Q 1309 3584 2216 3584 
Q 3041 3584 3536 3087 
Q 4031 2591 4031 1759 
z
M 2881 2131 
Q 2881 2450 2695 2645 
Q 2509 2841 2209 2841 
Q 1884 2841 1681 2658 
Q 1478 2475 1428 2131 
L 2881 2131 
z
" transform="scale(0.015625)"/>
      <path id="DejaVuSans-Bold-73" d="M 3272 3391 
L 3272 2541 
Q 2913 2691 2578 2766 
Q 2244 2841 1947 2841 
Q 1628 2841 1473 2761 
Q 1319 2681 1319 2516 
Q 1319 2381 1436 2309 
Q 1553 2238 1856 2203 
L 2053 2175 
Q 2913 2066 3209 1816 
Q 3506 1566 3506 1031 
Q 3506 472 3093 190 
Q 2681 -91 1863 -91 
Q 1516 -91 1145 -36 
Q 775 19 384 128 
L 384 978 
Q 719 816 1070 734 
Q 1422 653 1784 653 
Q 2113 653 2278 743 
Q 2444 834 2444 1013 
Q 2444 1163 2330 1236 
Q 2216 1309 1875 1350 
L 1678 1375 
Q 931 1469 631 1722 
Q 331 1975 331 2491 
Q 331 3047 712 3315 
Q 1094 3584 1881 3584 
Q 2191 3584 2531 3537 
Q 2872 3491 3272 3391 
z
" transform="scale(0.015625)"/>
      <path id="DejaVuSans-Bold-75" d="M 500 1363 
L 500 3500 
L 1625 3500 
L 1625 3150 
Q 1625 2866 1622 2436 
Q 1619 2006 1619 1863 
Q 1619 1441 1641 1255 
Q 1663 1069 1716 984 
Q 1784 875 1895 815 
Q 2006 756 2150 756 
Q 2500 756 2700 1025 
Q 2900 1294 2900 1772 
L 2900 3500 
L 4019 3500 
L 4019 0 
L 2900 0 
L 2900 506 
Q 2647 200 2364 54 
Q 2081 -91 1741 -91 
Q 1134 -91 817 281 
Q 500 653 500 1363 
z
" transform="scale(0.015625)"/>
      <path id="DejaVuSans-Bold-20" transform="scale(0.015625)"/>
      <path id="DejaVuSans-Bold-64" d="M 2919 2988 
L 2919 4863 
L 4044 4863 
L 4044 0 
L 2919 0 
L 2919 506 
Q 2688 197 2409 53 
Q 2131 -91 1766 -91 
Q 1119 -91 703 423 
Q 288 938 288 1747 
Q 288 2556 703 3070 
Q 1119 3584 1766 3584 
Q 2128 3584 2408 3439 
Q 2688 3294 2919 2988 
z
M 2181 722 
Q 2541 722 2730 984 
Q 2919 1247 2919 1747 
Q 2919 2247 2730 2509 
Q 2541 2772 2181 2772 
Q 1825 2772 1636 2509 
Q 1447 2247 1447 1747 
Q 1447 1247 1636 984 
Q 1825 722 2181 722 
z
" transform="scale(0.015625)"/>
      <path id="DejaVuSans-Bold-6f" d="M 2203 2784 
Q 1831 2784 1636 2517 
Q 1441 2250 1441 1747 
Q 1441 1244 1636 976 
Q 1831 709 2203 709 
Q 2569 709 2762 976 
Q 2956 1244 2956 1747 
Q 2956 2250 2762 2517 
Q 2569 2784 2203 2784 
z
M 2203 3584 
Q 3106 3584 3614 3096 
Q 4122 2609 4122 1747 
Q 4122 884 3614 396 
Q 3106 -91 2203 -91 
Q 1297 -91 786 396 
Q 275 884 275 1747 
Q 275 2609 786 3096 
Q 1297 3584 2203 3584 
z
" transform="scale(0.015625)"/>
      <path id="DejaVuSans-Bold-70" d="M 1656 506 
L 1656 -1331 
L 538 -1331 
L 538 3500 
L 1656 3500 
L 1656 2988 
Q 1888 3294 2169 3439 
Q 2450 3584 2816 3584 
Q 3463 3584 3878 3070 
Q 4294 2556 4294 1747 
Q 4294 938 3878 423 
Q 3463 -91 2816 -91 
Q 2450 -91 2169 54 
Q 1888 200 1656 506 
z
M 2400 2772 
Q 2041 2772 1848 2508 
Q 1656 2244 1656 1747 
Q 1656 1250 1848 986 
Q 2041 722 2400 722 
Q 2759 722 2948 984 
Q 3138 1247 3138 1747 
Q 3138 2247 2948 2509 
Q 2759 2772 2400 2772 
z
" transform="scale(0.015625)"/>
      <path id="DejaVuSans-Bold-69" d="M 538 3500 
L 1656 3500 
L 1656 0 
L 538 0 
L 538 3500 
z
M 538 4863 
L 1656 4863 
L 1656 3950 
L 538 3950 
L 538 4863 
z
" transform="scale(0.015625)"/>
      <path id="DejaVuSans-Bold-61" d="M 2106 1575 
Q 1756 1575 1579 1456 
Q 1403 1338 1403 1106 
Q 1403 894 1545 773 
Q 1688 653 1941 653 
Q 2256 653 2472 879 
Q 2688 1106 2688 1447 
L 2688 1575 
L 2106 1575 
z
M 3816 1997 
L 3816 0 
L 2688 0 
L 2688 519 
Q 2463 200 2181 54 
Q 1900 -91 1497 -91 
Q 953 -91 614 226 
Q 275 544 275 1050 
Q 275 1666 698 1953 
Q 1122 2241 2028 2241 
L 2688 2241 
L 2688 2328 
Q 2688 2594 2478 2717 
Q 2269 2841 1825 2841 
Q 1466 2841 1156 2769 
Q 847 2697 581 2553 
L 581 3406 
Q 941 3494 1303 3539 
Q 1666 3584 2028 3584 
Q 2975 3584 3395 3211 
Q 3816 2838 3816 1997 
z
" transform="scale(0.015625)"/>
      <path id="DejaVuSans-Bold-2c" d="M 653 1209 
L 1778 1209 
L 1778 256 
L 1006 -909 
L 341 -909 
L 653 256 
L 653 1209 
z
" transform="scale(0.015625)"/>
      <path id="DejaVuSans-Bold-6e" d="M 4056 2131 
L 4056 0 
L 2931 0 
L 2931 347 
L 2931 1631 
Q 2931 2084 2911 2256 
Q 2891 2428 2841 2509 
Q 2775 2619 2662 2680 
Q 2550 2741 2406 2741 
Q 2056 2741 1856 2470 
Q 1656 2200 1656 1722 
L 1656 0 
L 538 0 
L 538 3500 
L 1656 3500 
L 1656 2988 
Q 1909 3294 2193 3439 
Q 2478 3584 2822 3584 
Q 3428 3584 3742 3212 
Q 4056 2841 4056 2131 
z
" transform="scale(0.015625)"/>
      <path id="DejaVuSans-Bold-74" d="M 1759 4494 
L 1759 3500 
L 2913 3500 
L 2913 2700 
L 1759 2700 
L 1759 1216 
Q 1759 972 1856 886 
Q 1953 800 2241 800 
L 2816 800 
L 2816 0 
L 1856 0 
Q 1194 0 917 276 
Q 641 553 641 1216 
L 641 2700 
L 84 2700 
L 84 3500 
L 641 3500 
L 641 4494 
L 1759 4494 
z
" transform="scale(0.015625)"/>
     </defs>
     <use xlink:href="#DejaVuSans-Bold-50" transform="translate(0 0.765625)"/>
     <use xlink:href="#DejaVuSans-Bold-72" transform="translate(73.291016 0.765625)"/>
     <use xlink:href="#DejaVuSans-Bold-65" transform="translate(122.607422 0.765625)"/>
     <use xlink:href="#DejaVuSans-Bold-73" transform="translate(190.429688 0.765625)"/>
     <use xlink:href="#DejaVuSans-Bold-73" transform="translate(249.951172 0.765625)"/>
     <use xlink:href="#DejaVuSans-Bold-75" transform="translate(309.472656 0.765625)"/>
     <use xlink:href="#DejaVuSans-Bold-72" transform="translate(380.664062 0.765625)"/>
     <use xlink:href="#DejaVuSans-Bold-65" transform="translate(429.980469 0.765625)"/>
     <use xlink:href="#DejaVuSans-Bold-20" transform="translate(497.802734 0.765625)"/>
     <use xlink:href="#DejaVuSans-Bold-64" transform="translate(532.617188 0.765625)"/>
     <use xlink:href="#DejaVuSans-Bold-72" transform="translate(604.199219 0.765625)"/>
     <use xlink:href="#DejaVuSans-Bold-6f" transform="translate(653.515625 0.765625)"/>
     <use xlink:href="#DejaVuSans-Bold-70" transform="translate(722.216797 0.765625)"/>
     <use xlink:href="#DejaVuSans-Bold-20" transform="translate(793.798828 0.765625)"/>
     <use xlink:href="#DejaVuSans-Bold-72" transform="translate(828.613281 0.765625)"/>
     <use xlink:href="#DejaVuSans-Bold-69" transform="translate(877.929688 0.765625)"/>
     <use xlink:href="#DejaVuSans-Bold-73" transform="translate(912.207031 0.765625)"/>
     <use xlink:href="#DejaVuSans-Bold-65" transform="translate(971.728516 0.765625)"/>
     <use xlink:href="#DejaVuSans-Bold-73" transform="translate(1039.550781 0.765625)"/>
     <use xlink:href="#DejaVuSans-Bold-20" transform="translate(1099.072266 0.765625)"/>
     <use xlink:href="#DejaVuSans-Bold-61" transform="translate(1133.886719 0.765625)"/>
     <use xlink:href="#DejaVuSans-Bold-73" transform="translate(1201.367188 0.765625)"/>
     <use xlink:href="#DejaVuSans-Bold-20" transform="translate(1260.888672 0.765625)"/>
     <use xlink:href="#DejaVuSans-Oblique-56" transform="translate(1295.703125 0.765625)"/>
     <use xlink:href="#DejaVuSans-31" transform="translate(1371.128099 39.046875) scale(0.7)"/>
     <use xlink:href="#DejaVuSans-2e" transform="translate(1415.664232 39.046875) scale(0.7)"/>
     <use xlink:href="#DejaVuSans-38" transform="translate(1436.077708 39.046875) scale(0.7)"/>
     <use xlink:href="#DejaVuSans-Bold-2c" transform="translate(1483.348216 0.765625)"/>
     <use xlink:href="#DejaVuSans-Bold-20" transform="translate(1521.336497 0.765625)"/>
     <use xlink:href="#DejaVuSans-Bold-6e" transform="translate(1556.150951 0.765625)"/>
     <use xlink:href="#DejaVuSans-Bold-6f" transform="translate(1627.342357 0.765625)"/>
     <use xlink:href="#DejaVuSans-Bold-74" transform="translate(1696.043529 0.765625)"/>
     <use xlink:href="#DejaVuSans-Bold-20" transform="translate(1743.846263 0.765625)"/>
     <use xlink:href="#DejaVuSans-Oblique-56" transform="translate(1778.660716 0.765625)"/>
     <use xlink:href="#DejaVuSans-32" transform="translate(1854.08569 39.046875) scale(0.7)"/>
    </g>
   </g>
  </g>
 </g>
 <defs>
  <clipPath id="p66bcbcc9b9">
   <rect x="58.543281" y="63.535" width="390.6" height="238.392"/>
  </clipPath>
 </defs>
</svg>
