<?xml version="1.0" encoding="utf-8" standalone="no"?>
<!DOCTYPE svg PUBLIC "-//W3C//DTD SVG 1.1//EN"
  "http://www.w3.org/Graphics/SVG/1.1/DTD/svg11.dtd">
<svg xmlns:xlink="http://www.w3.org/1999/xlink" width="480.440313pt" height="363.122109pt" viewBox="0 0 480.440313 363.122109" xmlns="http://www.w3.org/2000/svg" version="1.1">
 <metadata>
  <rdf:RDF xmlns:dc="http://purl.org/dc/elements/1.1/" xmlns:cc="http://creativecommons.org/ns#" xmlns:rdf="http://www.w3.org/1999/02/22-rdf-syntax-ns#">
   <cc:Work>
    <dc:type rdf:resource="http://purl.org/dc/dcmitype/StillImage"/>
    <dc:date>2026-09-14T20:54:58.964093</dc:date>
    <dc:format>image/svg+xml</dc:format>
    <dc:creator>
     <cc:Agent>
      <dc:title>Matplotlib v3.10.9, https://matplotlib.org/</dc:title>
     </cc:Agent>
    </dc:creator>
   </cc:Work>
  </rdf:RDF>
 </metadata>
 <defs>
  <style type="text/css">*{stroke-linejoin: round; stroke-linecap: butt}</style>
 </defs>
 <g id="figure_1">
  <g id="patch_1">
   <path d="M 0 363.122109 
L 480.440313 363.122109 
L 480.440313 0 
L 0 0 
z
" style="fill: #ffffff"/>
  </g>
  <g id="axes_1">
   <g id="patch_2">
    <path d="M 58.520313 311.138047 
L 460.280313 311.138047 
L 460.280313 61.658047 
L 58.520313 61.658047 
z
" style="fill: #ffffff"/>
   </g>
   <g id="matplotlib.axis_1">
    <g id="xtick_1">
     <g id="line2d_1">
      <path d="M 79.301002 311.138047 
L 79.301002 61.658047 
" clip-path="url(#p4df8010ed9)" style="fill: none; stroke: #e8e7e3; stroke-width: 0.9; stroke-linecap: square"/>
     </g>
     <g id="line2d_2"/>
     <g id="text_1">
      <!-- 1 -->
      <g style="fill: #52514e" transform="translate(75.96069 322.616406) scale(0.105 -0.105)">
       <defs>
        <path id="DejaVuSans-31" d="M 794 531 
L 1825 531 
L 1825 4091 
L 703 3866 
L 703 4441 
L 1819 4666 
L 2450 4666 
L 2450 531 
L 3481 531 
L 3481 0 
L 794 0 
L 794 531 
z
" transform="scale(0.015625)"/>
       </defs>
       <use xlink:href="#DejaVuSans-31"/>
      </g>
     </g>
    </g>
    <g id="xtick_2">
     <g id="line2d_3">
      <path d="M 148.569968 311.138047 
L 148.569968 61.658047 
" clip-path="url(#p4df8010ed9)" style="fill: none; stroke: #e8e7e3; stroke-width: 0.9; stroke-linecap: square"/>
     </g>
     <g id="line2d_4"/>
     <g id="text_2">
      <!-- 2 -->
      <g style="fill: #52514e" transform="translate(145.229655 322.616406) scale(0.105 -0.105)">
       <defs>
        <path id="DejaVuSans-32" d="M 1228 531 
L 3431 531 
L 3431 0 
L 469 0 
L 469 531 
Q 828 903 1448 1529 
Q 2069 2156 2228 2338 
Q 2531 2678 2651 2914 
Q 2772 3150 2772 3378 
Q 2772 3750 2511 3984 
Q 2250 4219 1831 4219 
Q 1534 4219 1204 4116 
Q 875 4013 500 3803 
L 500 4441 
Q 881 4594 1212 4672 
Q 1544 4750 1819 4750 
Q 2544 4750 2975 4387 
Q 3406 4025 3406 3419 
Q 3406 3131 3298 2873 
Q 3191 2616 2906 2266 
Q 2828 2175 2409 1742 
Q 1991 1309 1228 531 
z
" transform="scale(0.015625)"/>
       </defs>
       <use xlink:href="#DejaVuSans-32"/>
      </g>
     </g>
    </g>
    <g id="xtick_3">
     <g id="line2d_5">
      <path d="M 217.838933 311.138047 
L 217.838933 61.658047 
" clip-path="url(#p4df8010ed9)" style="fill: none; stroke: #e8e7e3; stroke-width: 0.9; stroke-linecap: square"/>
     </g>
     <g id="line2d_6"/>
     <g id="text_3">
      <!-- 3 -->
      <g style="fill: #52514e" transform="translate(214.498621 322.616406) scale(0.105 -0.105)">
       <defs>
        <path id="DejaVuSans-33" d="M 2597 2516 
Q 3050 2419 3304 2112 
Q 3559 1806 3559 1356 
Q 3559 666 3084 287 
Q 2609 -91 1734 -91 
Q 1441 -91 1130 -33 
Q 819 25 488 141 
L 488 750 
Q 750 597 1062 519 
Q 1375 441 1716 441 
Q 2309 441 2620 675 
Q 2931 909 2931 1356 
Q 2931 1769 2642 2001 
Q 2353 2234 1838 2234 
L 1294 2234 
L 1294 2753 
L 1863 2753 
Q 2328 2753 2575 2939 
Q 2822 3125 2822 3475 
Q 2822 3834 2567 4026 
Q 2313 4219 1838 4219 
Q 1578 4219 1281 4162 
Q 984 4106 628 3988 
L 628 4550 
Q 988 4650 1302 4700 
Q 1616 4750 1894 4750 
Q 2613 4750 3031 4423 
Q 3450 4097 3450 3541 
Q 3450 3153 3228 2886 
Q 3006 2619 2597 2516 
z
" transform="scale(0.015625)"/>
       </defs>
       <use xlink:href="#DejaVuSans-33"/>
      </g>
     </g>
    </g>
    <g id="xtick_4">
     <g id="line2d_7">
      <path d="M 287.107899 311.138047 
L 287.107899 61.658047 
" clip-path="url(#p4df8010ed9)" style="fill: none; stroke: #e8e7e3; stroke-width: 0.9; stroke-linecap: square"/>
     </g>
     <g id="line2d_8"/>
     <g id="text_4">
      <!-- 4 -->
      <g style="fill: #52514e" transform="translate(283.767586 322.616406) scale(0.105 -0.105)">
       <defs>
        <path id="DejaVuSans-34" d="M 2419 4116 
L 825 1625 
L 2419 1625 
L 2419 4116 
z
M 2253 4666 
L 3047 4666 
L 3047 1625 
L 3713 1625 
L 3713 1100 
L 3047 1100 
L 3047 0 
L 2419 0 
L 2419 1100 
L 313 1100 
L 313 1709 
L 2253 4666 
z
" transform="scale(0.015625)"/>
       </defs>
       <use xlink:href="#DejaVuSans-34"/>
      </g>
     </g>
    </g>
    <g id="xtick_5">
     <g id="line2d_9">
      <path d="M 356.376864 311.138047 
L 356.376864 61.658047 
" clip-path="url(#p4df8010ed9)" style="fill: none; stroke: #e8e7e3; stroke-width: 0.9; stroke-linecap: square"/>
     </g>
     <g id="line2d_10"/>
     <g id="text_5">
      <!-- 5 -->
      <g style="fill: #52514e" transform="translate(353.036552 322.616406) scale(0.105 -0.105)">
       <defs>
        <path id="DejaVuSans-35" d="M 691 4666 
L 3169 4666 
L 3169 4134 
L 1269 4134 
L 1269 2991 
Q 1406 3038 1543 3061 
Q 1681 3084 1819 3084 
Q 2600 3084 3056 2656 
Q 3513 2228 3513 1497 
Q 3513 744 3044 326 
Q 2575 -91 1722 -91 
Q 1428 -91 1123 -41 
Q 819 9 494 109 
L 494 744 
Q 775 591 1075 516 
Q 1375 441 1709 441 
Q 2250 441 2565 725 
Q 2881 1009 2881 1497 
Q 2881 1984 2565 2268 
Q 2250 2553 1709 2553 
Q 1456 2553 1204 2497 
Q 953 2441 691 2322 
L 691 4666 
z
" transform="scale(0.015625)"/>
       </defs>
       <use xlink:href="#DejaVuSans-35"/>
      </g>
     </g>
    </g>
    <g id="xtick_6">
     <g id="line2d_11">
      <path d="M 425.64583 311.138047 
L 425.64583 61.658047 
" clip-path="url(#p4df8010ed9)" style="fill: none; stroke: #e8e7e3; stroke-width: 0.9; stroke-linecap: square"/>
     </g>
     <g id="line2d_12"/>
     <g id="text_6">
      <!-- 6 -->
      <g style="fill: #52514e" transform="translate(422.305517 322.616406) scale(0.105 -0.105)">
       <defs>
        <path id="DejaVuSans-36" d="M 2113 2584 
Q 1688 2584 1439 2293 
Q 1191 2003 1191 1497 
Q 1191 994 1439 701 
Q 1688 409 2113 409 
Q 2538 409 2786 701 
Q 3034 994 3034 1497 
Q 3034 2003 2786 2293 
Q 2538 2584 2113 2584 
z
M 3366 4563 
L 3366 3988 
Q 3128 4100 2886 4159 
Q 2644 4219 2406 4219 
Q 1781 4219 1451 3797 
Q 1122 3375 1075 2522 
Q 1259 2794 1537 2939 
Q 1816 3084 2150 3084 
Q 2853 3084 3261 2657 
Q 3669 2231 3669 1497 
Q 3669 778 3244 343 
Q 2819 -91 2113 -91 
Q 1303 -91 875 529 
Q 447 1150 447 2328 
Q 447 3434 972 4092 
Q 1497 4750 2381 4750 
Q 2619 4750 2861 4703 
Q 3103 4656 3366 4563 
z
" transform="scale(0.015625)"/>
       </defs>
       <use xlink:href="#DejaVuSans-36"/>
      </g>
     </g>
    </g>
    <g id="text_7">
     <!-- inlet velocity  [m/s] -->
     <g style="fill: #52514e" transform="translate(208.628711 340.778438) scale(0.105 -0.105)">
      <defs>
       <path id="DejaVuSans-69" d="M 603 3500 
L 1178 3500 
L 1178 0 
L 603 0 
L 603 3500 
z
M 603 4863 
L 1178 4863 
L 1178 4134 
L 603 4134 
L 603 4863 
z
" transform="scale(0.015625)"/>
       <path id="DejaVuSans-6e" d="M 3513 2113 
L 3513 0 
L 2938 0 
L 2938 2094 
Q 2938 2591 2744 2837 
Q 2550 3084 2163 3084 
Q 1697 3084 1428 2787 
Q 1159 2491 1159 1978 
L 1159 0 
L 581 0 
L 581 3500 
L 1159 3500 
L 1159 2956 
Q 1366 3272 1645 3428 
Q 1925 3584 2291 3584 
Q 2894 3584 3203 3211 
Q 3513 2838 3513 2113 
z
" transform="scale(0.015625)"/>
       <path id="DejaVuSans-6c" d="M 603 4863 
L 1178 4863 
L 1178 0 
L 603 0 
L 603 4863 
z
" transform="scale(0.015625)"/>
       <path id="DejaVuSans-65" d="M 3597 1894 
L 3597 1613 
L 953 1613 
Q 991 1019 1311 708 
Q 1631 397 2203 397 
Q 2534 397 2845 478 
Q 3156 559 3463 722 
L 3463 178 
Q 3153 47 2828 -22 
Q 2503 -91 2169 -91 
Q 1331 -91 842 396 
Q 353 884 353 1716 
Q 353 2575 817 3079 
Q 1281 3584 2069 3584 
Q 2775 3584 3186 3129 
Q 3597 2675 3597 1894 
z
M 3022 2063 
Q 3016 2534 2758 2815 
Q 2500 3097 2075 3097 
Q 1594 3097 1305 2825 
Q 1016 2553 972 2059 
L 3022 2063 
z
" transform="scale(0.015625)"/>
       <path id="DejaVuSans-74" d="M 1172 4494 
L 1172 3500 
L 2356 3500 
L 2356 3053 
L 1172 3053 
L 1172 1153 
Q 1172 725 1289 603 
Q 1406 481 1766 481 
L 2356 481 
L 2356 0 
L 1766 0 
Q 1100 0 847 248 
Q 594 497 594 1153 
L 594 3053 
L 172 3053 
L 172 3500 
L 594 3500 
L 594 4494 
L 1172 4494 
z
" transform="scale(0.015625)"/>
       <path id="DejaVuSans-20" transform="scale(0.015625)"/>
       <path id="DejaVuSans-76" d="M 191 3500 
L 800 3500 
L 1894 563 
L 2988 3500 
L 3597 3500 
L 2284 0 
L 1503 0 
L 191 3500 
z
" transform="scale(0.015625)"/>
       <path id="DejaVuSans-6f" d="M 1959 3097 
Q 1497 3097 1228 2736 
Q 959 2375 959 1747 
Q 959 1119 1226 758 
Q 1494 397 1959 397 
Q 2419 397 2687 759 
Q 2956 1122 2956 1747 
Q 2956 2369 2687 2733 
Q 2419 3097 1959 3097 
z
M 1959 3584 
Q 2709 3584 3137 3096 
Q 3566 2609 3566 1747 
Q 3566 888 3137 398 
Q 2709 -91 1959 -91 
Q 1206 -91 779 398 
Q 353 888 353 1747 
Q 353 2609 779 3096 
Q 1206 3584 1959 3584 
z
" transform="scale(0.015625)"/>
       <path id="DejaVuSans-63" d="M 3122 3366 
L 3122 2828 
Q 2878 2963 2633 3030 
Q 2388 3097 2138 3097 
Q 1578 3097 1268 2742 
Q 959 2388 959 1747 
Q 959 1106 1268 751 
Q 1578 397 2138 397 
Q 2388 397 2633 464 
Q 2878 531 3122 666 
L 3122 134 
Q 2881 22 2623 -34 
Q 2366 -91 2075 -91 
Q 1284 -91 818 406 
Q 353 903 353 1747 
Q 353 2603 823 3093 
Q 1294 3584 2113 3584 
Q 2378 3584 2631 3529 
Q 2884 3475 3122 3366 
z
" transform="scale(0.015625)"/>
       <path id="DejaVuSans-79" d="M 2059 -325 
Q 1816 -950 1584 -1140 
Q 1353 -1331 966 -1331 
L 506 -1331 
L 506 -850 
L 844 -850 
Q 1081 -850 1212 -737 
Q 1344 -625 1503 -206 
L 1606 56 
L 191 3500 
L 800 3500 
L 1894 763 
L 2988 3500 
L 3597 3500 
L 2059 -325 
z
" transform="scale(0.015625)"/>
       <path id="DejaVuSans-5b" d="M 550 4863 
L 1875 4863 
L 1875 4416 
L 1125 4416 
L 1125 -397 
L 1875 -397 
L 1875 -844 
L 550 -844 
L 550 4863 
z
" transform="scale(0.015625)"/>
       <path id="DejaVuSans-6d" d="M 3328 2828 
Q 3544 3216 3844 3400 
Q 4144 3584 4550 3584 
Q 5097 3584 5394 3201 
Q 5691 2819 5691 2113 
L 5691 0 
L 5113 0 
L 5113 2094 
Q 5113 2597 4934 2840 
Q 4756 3084 4391 3084 
Q 3944 3084 3684 2787 
Q 3425 2491 3425 1978 
L 3425 0 
L 2847 0 
L 2847 2094 
Q 2847 2600 2669 2842 
Q 2491 3084 2119 3084 
Q 1678 3084 1418 2786 
Q 1159 2488 1159 1978 
L 1159 0 
L 581 0 
L 581 3500 
L 1159 3500 
L 1159 2956 
Q 1356 3278 1631 3431 
Q 1906 3584 2284 3584 
Q 2666 3584 2933 3390 
Q 3200 3197 3328 2828 
z
" transform="scale(0.015625)"/>
       <path id="DejaVuSans-2f" d="M 1625 4666 
L 2156 4666 
L 531 -594 
L 0 -594 
L 1625 4666 
z
" transform="scale(0.015625)"/>
       <path id="DejaVuSans-73" d="M 2834 3397 
L 2834 2853 
Q 2591 2978 2328 3040 
Q 2066 3103 1784 3103 
Q 1356 3103 1142 2972 
Q 928 2841 928 2578 
Q 928 2378 1081 2264 
Q 1234 2150 1697 2047 
L 1894 2003 
Q 2506 1872 2764 1633 
Q 3022 1394 3022 966 
Q 3022 478 2636 193 
Q 2250 -91 1575 -91 
Q 1294 -91 989 -36 
Q 684 19 347 128 
L 347 722 
Q 666 556 975 473 
Q 1284 391 1588 391 
Q 1994 391 2212 530 
Q 2431 669 2431 922 
Q 2431 1156 2273 1281 
Q 2116 1406 1581 1522 
L 1381 1569 
Q 847 1681 609 1914 
Q 372 2147 372 2553 
Q 372 3047 722 3315 
Q 1072 3584 1716 3584 
Q 2034 3584 2315 3537 
Q 2597 3491 2834 3397 
z
" transform="scale(0.015625)"/>
       <path id="DejaVuSans-5d" d="M 1947 4863 
L 1947 -844 
L 622 -844 
L 622 -397 
L 1369 -397 
L 1369 4416 
L 622 4416 
L 622 4863 
L 1947 4863 
z
" transform="scale(0.015625)"/>
      </defs>
      <use xlink:href="#DejaVuSans-69"/>
      <use xlink:href="#DejaVuSans-6e" transform="translate(27.783203 0)"/>
      <use xlink:href="#DejaVuSans-6c" transform="translate(91.162109 0)"/>
      <use xlink:href="#DejaVuSans-65" transform="translate(118.945312 0)"/>
      <use xlink:href="#DejaVuSans-74" transform="translate(180.46875 0)"/>
      <use xlink:href="#DejaVuSans-20" transform="translate(219.677734 0)"/>
      <use xlink:href="#DejaVuSans-76" transform="translate(251.464844 0)"/>
      <use xlink:href="#DejaVuSans-65" transform="translate(310.644531 0)"/>
      <use xlink:href="#DejaVuSans-6c" transform="translate(372.167969 0)"/>
      <use xlink:href="#DejaVuSans-6f" transform="translate(399.951172 0)"/>
      <use xlink:href="#DejaVuSans-63" transform="translate(461.132812 0)"/>
      <use xlink:href="#DejaVuSans-69" transform="translate(516.113281 0)"/>
      <use xlink:href="#DejaVuSans-74" transform="translate(543.896484 0)"/>
      <use xlink:href="#DejaVuSans-79" transform="translate(583.105469 0)"/>
      <use xlink:href="#DejaVuSans-20" transform="translate(642.285156 0)"/>
      <use xlink:href="#DejaVuSans-20" transform="translate(674.072266 0)"/>
      <use xlink:href="#DejaVuSans-5b" transform="translate(705.859375 0)"/>
      <use xlink:href="#DejaVuSans-6d" transform="translate(744.873047 0)"/>
      <use xlink:href="#DejaVuSans-2f" transform="translate(842.285156 0)"/>
      <use xlink:href="#DejaVuSans-73" transform="translate(875.976562 0)"/>
      <use xlink:href="#DejaVuSans-5d" transform="translate(928.076172 0)"/>
     </g>
    </g>
   </g>
   <g id="matplotlib.axis_2">
    <g id="ytick_1">
     <g id="line2d_13">
      <path d="M 58.520313 311.138047 
L 460.280313 311.138047 
" clip-path="url(#p4df8010ed9)" style="fill: none; stroke: #e8e7e3; stroke-width: 0.9; stroke-linecap: square"/>
     </g>
     <g id="line2d_14"/>
     <g id="text_8">
      <!-- 0.6 -->
      <g style="fill: #52514e" transform="translate(38.322031 315.127227) scale(0.105 -0.105)">
       <defs>
        <path id="DejaVuSans-30" d="M 2034 4250 
Q 1547 4250 1301 3770 
Q 1056 3291 1056 2328 
Q 1056 1369 1301 889 
Q 1547 409 2034 409 
Q 2525 409 2770 889 
Q 3016 1369 3016 2328 
Q 3016 3291 2770 3770 
Q 2525 4250 2034 4250 
z
M 2034 4750 
Q 2819 4750 3233 4129 
Q 3647 3509 3647 2328 
Q 3647 1150 3233 529 
Q 2819 -91 2034 -91 
Q 1250 -91 836 529 
Q 422 1150 422 2328 
Q 422 3509 836 4129 
Q 1250 4750 2034 4750 
z
" transform="scale(0.015625)"/>
        <path id="DejaVuSans-2e" d="M 684 794 
L 1344 794 
L 1344 0 
L 684 0 
L 684 794 
z
" transform="scale(0.015625)"/>
       </defs>
       <use xlink:href="#DejaVuSans-30"/>
       <use xlink:href="#DejaVuSans-2e" transform="translate(63.623047 0)"/>
       <use xlink:href="#DejaVuSans-36" transform="translate(95.410156 0)"/>
      </g>
     </g>
    </g>
    <g id="ytick_2">
     <g id="line2d_15">
      <path d="M 58.520313 282.626047 
L 460.280313 282.626047 
" clip-path="url(#p4df8010ed9)" style="fill: none; stroke: #e8e7e3; stroke-width: 0.9; stroke-linecap: square"/>
     </g>
     <g id="line2d_16"/>
     <g id="text_9">
      <!-- 0.8 -->
      <g style="fill: #52514e" transform="translate(38.322031 286.615227) scale(0.105 -0.105)">
       <defs>
        <path id="DejaVuSans-38" d="M 2034 2216 
Q 1584 2216 1326 1975 
Q 1069 1734 1069 1313 
Q 1069 891 1326 650 
Q 1584 409 2034 409 
Q 2484 409 2743 651 
Q 3003 894 3003 1313 
Q 3003 1734 2745 1975 
Q 2488 2216 2034 2216 
z
M 1403 2484 
Q 997 2584 770 2862 
Q 544 3141 544 3541 
Q 544 4100 942 4425 
Q 1341 4750 2034 4750 
Q 2731 4750 3128 4425 
Q 3525 4100 3525 3541 
Q 3525 3141 3298 2862 
Q 3072 2584 2669 2484 
Q 3125 2378 3379 2068 
Q 3634 1759 3634 1313 
Q 3634 634 3220 271 
Q 2806 -91 2034 -91 
Q 1263 -91 848 271 
Q 434 634 434 1313 
Q 434 1759 690 2068 
Q 947 2378 1403 2484 
z
M 1172 3481 
Q 1172 3119 1398 2916 
Q 1625 2713 2034 2713 
Q 2441 2713 2670 2916 
Q 2900 3119 2900 3481 
Q 2900 3844 2670 4047 
Q 2441 4250 2034 4250 
Q 1625 4250 1398 4047 
Q 1172 3844 1172 3481 
z
" transform="scale(0.015625)"/>
       </defs>
       <use xlink:href="#DejaVuSans-30"/>
       <use xlink:href="#DejaVuSans-2e" transform="translate(63.623047 0)"/>
       <use xlink:href="#DejaVuSans-38" transform="translate(95.410156 0)"/>
      </g>
     </g>
    </g>
    <g id="ytick_3">
     <g id="line2d_17">
      <path d="M 58.520313 254.114047 
L 460.280313 254.114047 
" clip-path="url(#p4df8010ed9)" style="fill: none; stroke: #e8e7e3; stroke-width: 0.9; stroke-linecap: square"/>
     </g>
     <g id="line2d_18"/>
     <g id="text_10">
      <!-- 1.0 -->
      <g style="fill: #52514e" transform="translate(38.322031 258.103227) scale(0.105 -0.105)">
       <use xlink:href="#DejaVuSans-31"/>
       <use xlink:href="#DejaVuSans-2e" transform="translate(63.623047 0)"/>
       <use xlink:href="#DejaVuSans-30" transform="translate(95.410156 0)"/>
      </g>
     </g>
    </g>
    <g id="ytick_4">
     <g id="line2d_19">
      <path d="M 58.520313 225.602047 
L 460.280313 225.602047 
" clip-path="url(#p4df8010ed9)" style="fill: none; stroke: #e8e7e3; stroke-width: 0.9; stroke-linecap: square"/>
     </g>
     <g id="line2d_20"/>
     <g id="text_11">
      <!-- 1.2 -->
      <g style="fill: #52514e" transform="translate(38.322031 229.591227) scale(0.105 -0.105)">
       <use xlink:href="#DejaVuSans-31"/>
       <use xlink:href="#DejaVuSans-2e" transform="translate(63.623047 0)"/>
       <use xlink:href="#DejaVuSans-32" transform="translate(95.410156 0)"/>
      </g>
     </g>
    </g>
    <g id="ytick_5">
     <g id="line2d_21">
      <path d="M 58.520313 197.090047 
L 460.280313 197.090047 
" clip-path="url(#p4df8010ed9)" style="fill: none; stroke: #e8e7e3; stroke-width: 0.9; stroke-linecap: square"/>
     </g>
     <g id="line2d_22"/>
     <g id="text_12">
      <!-- 1.4 -->
      <g style="fill: #52514e" transform="translate(38.322031 201.079227) scale(0.105 -0.105)">
       <use xlink:href="#DejaVuSans-31"/>
       <use xlink:href="#DejaVuSans-2e" transform="translate(63.623047 0)"/>
       <use xlink:href="#DejaVuSans-34" transform="translate(95.410156 0)"/>
      </g>
     </g>
    </g>
    <g id="ytick_6">
     <g id="line2d_23">
      <path d="M 58.520313 168.578047 
L 460.280313 168.578047 
" clip-path="url(#p4df8010ed9)" style="fill: none; stroke: #e8e7e3; stroke-width: 0.9; stroke-linecap: square"/>
     </g>
     <g id="line2d_24"/>
     <g id="text_13">
      <!-- 1.6 -->
      <g style="fill: #52514e" transform="translate(38.322031 172.567227) scale(0.105 -0.105)">
       <use xlink:href="#DejaVuSans-31"/>
       <use xlink:href="#DejaVuSans-2e" transform="translate(63.623047 0)"/>
       <use xlink:href="#DejaVuSans-36" transform="translate(95.410156 0)"/>
      </g>
     </g>
    </g>
    <g id="ytick_7">
     <g id="line2d_25">
      <path d="M 58.520313 140.066047 
L 460.280313 140.066047 
" clip-path="url(#p4df8010ed9)" style="fill: none; stroke: #e8e7e3; stroke-width: 0.9; stroke-linecap: square"/>
     </g>
     <g id="line2d_26"/>
     <g id="text_14">
      <!-- 1.8 -->
      <g style="fill: #52514e" transform="translate(38.322031 144.055227) scale(0.105 -0.105)">
       <use xlink:href="#DejaVuSans-31"/>
       <use xlink:href="#DejaVuSans-2e" transform="translate(63.623047 0)"/>
       <use xlink:href="#DejaVuSans-38" transform="translate(95.410156 0)"/>
      </g>
     </g>
    </g>
    <g id="ytick_8">
     <g id="line2d_27">
      <path d="M 58.520313 111.554047 
L 460.280313 111.554047 
" clip-path="url(#p4df8010ed9)" style="fill: none; stroke: #e8e7e3; stroke-width: 0.9; stroke-linecap: square"/>
     </g>
     <g id="line2d_28"/>
     <g id="text_15">
      <!-- 2.0 -->
      <g style="fill: #52514e" transform="translate(38.322031 115.543227) scale(0.105 -0.105)">
       <use xlink:href="#DejaVuSans-32"/>
       <use xlink:href="#DejaVuSans-2e" transform="translate(63.623047 0)"/>
       <use xlink:href="#DejaVuSans-30" transform="translate(95.410156 0)"/>
      </g>
     </g>
    </g>
    <g id="ytick_9">
     <g id="line2d_29">
      <path d="M 58.520313 83.042047 
L 460.280313 83.042047 
" clip-path="url(#p4df8010ed9)" style="fill: none; stroke: #e8e7e3; stroke-width: 0.9; stroke-linecap: square"/>
     </g>
     <g id="line2d_30"/>
     <g id="text_16">
      <!-- 2.2 -->
      <g style="fill: #52514e" transform="translate(38.322031 87.031227) scale(0.105 -0.105)">
       <use xlink:href="#DejaVuSans-32"/>
       <use xlink:href="#DejaVuSans-2e" transform="translate(63.623047 0)"/>
       <use xlink:href="#DejaVuSans-32" transform="translate(95.410156 0)"/>
      </g>
     </g>
    </g>
    <g id="text_17">
     <!-- $R_{th}$  [K/W] -->
     <g style="fill: #52514e" transform="translate(28.138359 211.808047) rotate(-90) scale(0.105 -0.105)">
      <defs>
       <path id="DejaVuSans-Oblique-52" d="M 1613 4147 
L 1294 2491 
L 2106 2491 
Q 2584 2491 2879 2755 
Q 3175 3019 3175 3444 
Q 3175 3784 2976 3965 
Q 2778 4147 2406 4147 
L 1613 4147 
z
M 2772 2241 
Q 2972 2194 3105 2009 
Q 3238 1825 3413 1275 
L 3809 0 
L 3144 0 
L 2778 1197 
Q 2638 1659 2453 1815 
Q 2269 1972 1888 1972 
L 1191 1972 
L 806 0 
L 172 0 
L 1081 4666 
L 2503 4666 
Q 3150 4666 3495 4373 
Q 3841 4081 3841 3531 
Q 3841 3044 3547 2687 
Q 3253 2331 2772 2241 
z
" transform="scale(0.015625)"/>
       <path id="DejaVuSans-Oblique-74" d="M 2706 3500 
L 2619 3053 
L 1472 3053 
L 1100 1153 
Q 1081 1047 1072 975 
Q 1063 903 1063 863 
Q 1063 663 1183 572 
Q 1303 481 1569 481 
L 2150 481 
L 2053 0 
L 1503 0 
Q 991 0 739 200 
Q 488 400 488 806 
Q 488 878 497 964 
Q 506 1050 525 1153 
L 897 3053 
L 409 3053 
L 500 3500 
L 978 3500 
L 1172 4494 
L 1747 4494 
L 1556 3500 
L 2706 3500 
z
" transform="scale(0.015625)"/>
       <path id="DejaVuSans-Oblique-68" d="M 3566 2113 
L 3156 0 
L 2578 0 
L 2988 2091 
Q 3016 2238 3031 2350 
Q 3047 2463 3047 2528 
Q 3047 2791 2881 2937 
Q 2716 3084 2419 3084 
Q 1956 3084 1617 2771 
Q 1278 2459 1178 1941 
L 800 0 
L 225 0 
L 1172 4863 
L 1747 4863 
L 1375 2950 
Q 1594 3244 1934 3414 
Q 2275 3584 2650 3584 
Q 3113 3584 3367 3334 
Q 3622 3084 3622 2631 
Q 3622 2519 3608 2391 
Q 3594 2263 3566 2113 
z
" transform="scale(0.015625)"/>
       <path id="DejaVuSans-4b" d="M 628 4666 
L 1259 4666 
L 1259 2694 
L 3353 4666 
L 4166 4666 
L 1850 2491 
L 4331 0 
L 3500 0 
L 1259 2247 
L 1259 0 
L 628 0 
L 628 4666 
z
" transform="scale(0.015625)"/>
       <path id="DejaVuSans-57" d="M 213 4666 
L 850 4666 
L 1831 722 
L 2809 4666 
L 3519 4666 
L 4500 722 
L 5478 4666 
L 6119 4666 
L 4947 0 
L 4153 0 
L 3169 4050 
L 2175 0 
L 1381 0 
L 213 4666 
z
" transform="scale(0.015625)"/>
      </defs>
      <use xlink:href="#DejaVuSans-Oblique-52" transform="translate(0 0.015625)"/>
      <use xlink:href="#DejaVuSans-Oblique-74" transform="translate(69.482422 -16.390625) scale(0.7)"/>
      <use xlink:href="#DejaVuSans-Oblique-68" transform="translate(96.928711 -16.390625) scale(0.7)"/>
      <use xlink:href="#DejaVuSans-20" transform="translate(144.02832 0.015625)"/>
      <use xlink:href="#DejaVuSans-20" transform="translate(175.81543 0.015625)"/>
      <use xlink:href="#DejaVuSans-5b" transform="translate(207.602539 0.015625)"/>
      <use xlink:href="#DejaVuSans-4b" transform="translate(246.616211 0.015625)"/>
      <use xlink:href="#DejaVuSans-2f" transform="translate(312.192383 0.015625)"/>
      <use xlink:href="#DejaVuSans-57" transform="translate(345.883789 0.015625)"/>
      <use xlink:href="#DejaVuSans-5d" transform="translate(444.760742 0.015625)"/>
     </g>
    </g>
   </g>
   <g id="FillBetweenPolyCollection_1">
    <defs>
     <path id="m30c4a1dc35" d="M 68.910657 -296.04838 
L 68.910657 -284.710777 
L 70.196419 -281.059365 
L 71.482181 -277.525745 
L 72.767943 -274.103768 
L 74.053704 -270.787725 
L 75.339466 -267.572306 
L 76.625228 -264.452566 
L 77.910989 -261.423891 
L 79.196751 -258.481972 
L 80.482513 -255.622779 
L 81.768275 -252.842539 
L 83.054036 -250.137715 
L 84.339798 -247.504985 
L 85.62556 -244.94123 
L 86.911322 -242.443515 
L 88.197083 -240.009077 
L 89.482845 -237.63531 
L 90.768607 -235.319756 
L 92.054369 -233.060095 
L 93.34013 -230.854133 
L 94.625892 -228.699794 
L 95.911654 -226.595112 
L 97.197415 -224.538224 
L 98.483177 -222.527364 
L 99.768939 -220.560856 
L 101.054701 -218.637106 
L 102.340462 -216.754599 
L 103.626224 -214.911896 
L 104.911986 -213.107625 
L 106.197748 -211.34048 
L 107.483509 -209.609215 
L 108.769271 -207.912644 
L 110.055033 -206.249631 
L 111.340795 -204.619096 
L 112.626556 -203.020003 
L 113.912318 -201.451363 
L 115.19808 -199.91223 
L 116.483842 -198.401699 
L 117.769603 -196.918901 
L 119.055365 -195.463006 
L 120.341127 -194.033217 
L 121.626888 -192.628769 
L 122.91265 -191.24893 
L 124.198412 -189.892994 
L 125.484174 -188.560286 
L 126.769935 -187.250155 
L 128.055697 -185.961977 
L 129.341459 -184.695151 
L 130.627221 -183.449098 
L 131.912982 -182.223261 
L 133.198744 -181.017105 
L 134.484506 -179.830113 
L 135.770268 -178.661786 
L 137.056029 -177.511646 
L 138.341791 -176.379229 
L 139.627553 -175.264089 
L 140.913314 -174.165794 
L 142.199076 -173.083928 
L 143.484838 -172.01809 
L 144.7706 -170.96789 
L 146.056361 -169.932954 
L 147.342123 -168.912918 
L 148.627885 -167.907431 
L 149.913647 -166.916154 
L 151.199408 -165.938757 
L 152.48517 -164.974924 
L 153.770932 -164.024345 
L 155.056694 -163.086723 
L 156.342455 -162.161767 
L 157.628217 -161.249199 
L 158.913979 -160.348746 
L 160.19974 -159.460144 
L 161.485502 -158.583139 
L 162.771264 -157.717483 
L 164.057026 -156.862934 
L 165.342787 -156.01926 
L 166.628549 -155.186234 
L 167.914311 -154.363636 
L 169.200073 -153.551251 
L 170.485834 -152.748872 
L 171.771596 -151.956297 
L 173.057358 -151.17333 
L 174.34312 -150.39978 
L 175.628881 -149.635461 
L 176.914643 -148.880192 
L 178.200405 -148.133798 
L 179.486166 -147.396109 
L 180.771928 -146.666957 
L 182.05769 -145.94618 
L 183.343452 -145.233622 
L 184.629213 -144.529128 
L 185.914975 -143.832548 
L 187.200737 -143.143737 
L 188.486499 -142.462553 
L 189.77226 -141.788857 
L 191.058022 -141.122514 
L 192.343784 -140.463393 
L 193.629546 -139.811365 
L 194.915307 -139.166305 
L 196.201069 -138.528091 
L 197.486831 -137.896603 
L 198.772593 -137.271726 
L 200.058354 -136.653345 
L 201.344116 -136.041351 
L 202.629878 -135.435634 
L 203.915639 -134.83609 
L 205.201401 -134.242614 
L 206.487163 -133.655107 
L 207.772925 -133.073469 
L 209.058686 -132.497604 
L 210.344448 -131.927419 
L 211.63021 -131.362821 
L 212.915972 -130.803721 
L 214.201733 -130.25003 
L 215.487495 -129.701663 
L 216.773257 -129.158536 
L 218.059019 -128.620567 
L 219.34478 -128.087674 
L 220.630542 -127.55978 
L 221.916304 -127.036807 
L 223.202065 -126.518681 
L 224.487827 -126.005327 
L 225.773589 -125.496673 
L 227.059351 -124.992649 
L 228.345112 -124.493185 
L 229.630874 -123.998214 
L 230.916636 -123.507669 
L 232.202398 -123.021486 
L 233.488159 -122.539599 
L 234.773921 -122.061949 
L 236.059683 -121.588472 
L 237.345445 -121.119109 
L 238.631206 -120.653802 
L 239.916968 -120.192493 
L 241.20273 -119.735125 
L 242.488491 -119.281643 
L 243.774253 -118.831993 
L 245.060015 -118.386122 
L 246.345777 -117.943977 
L 247.631538 -117.505508 
L 248.9173 -117.070664 
L 250.203062 -116.639396 
L 251.488824 -116.211655 
L 252.774585 -115.787395 
L 254.060347 -115.366568 
L 255.346109 -114.949129 
L 256.631871 -114.535034 
L 257.917632 -114.124237 
L 259.203394 -113.716697 
L 260.489156 -113.31237 
L 261.774918 -112.911216 
L 263.060679 -112.513192 
L 264.346441 -112.118259 
L 265.632203 -111.726378 
L 266.917964 -111.337509 
L 268.203726 -110.951615 
L 269.489488 -110.568658 
L 270.77525 -110.188602 
L 272.061011 -109.81141 
L 273.346773 -109.437046 
L 274.632535 -109.065477 
L 275.918297 -108.696668 
L 277.204058 -108.330585 
L 278.48982 -107.967194 
L 279.775582 -107.606464 
L 281.061344 -107.248362 
L 282.347105 -106.892857 
L 283.632867 -106.539918 
L 284.918629 -106.189515 
L 286.20439 -105.841616 
L 287.490152 -105.496194 
L 288.775914 -105.153219 
L 290.061676 -104.812663 
L 291.347437 -104.474497 
L 292.633199 -104.138694 
L 293.918961 -103.805227 
L 295.204723 -103.474068 
L 296.490484 -103.145193 
L 297.776246 -102.818574 
L 299.062008 -102.494187 
L 300.34777 -102.172007 
L 301.633531 -101.852007 
L 302.919293 -101.534166 
L 304.205055 -101.218457 
L 305.490816 -100.904859 
L 306.776578 -100.593347 
L 308.06234 -100.2839 
L 309.348102 -99.976493 
L 310.633863 -99.671106 
L 311.919625 -99.367716 
L 313.205387 -99.066303 
L 314.491149 -98.766844 
L 315.77691 -98.469318 
L 317.062672 -98.173707 
L 318.348434 -97.879988 
L 319.634196 -97.588143 
L 320.919957 -97.298151 
L 322.205719 -97.009993 
L 323.491481 -96.72365 
L 324.777242 -96.439104 
L 326.063004 -96.156335 
L 327.348766 -95.875326 
L 328.634528 -95.596058 
L 329.920289 -95.318514 
L 331.206051 -95.042677 
L 332.491813 -94.768528 
L 333.777575 -94.496051 
L 335.063336 -94.225229 
L 336.349098 -93.956046 
L 337.63486 -93.688485 
L 338.920622 -93.42253 
L 340.206383 -93.158166 
L 341.492145 -92.895376 
L 342.777907 -92.634146 
L 344.063669 -92.37446 
L 345.34943 -92.116302 
L 346.635192 -91.859659 
L 347.920954 -91.604516 
L 349.206715 -91.350858 
L 350.492477 -91.09867 
L 351.778239 -90.84794 
L 353.064001 -90.598652 
L 354.349762 -90.350794 
L 355.635524 -90.104352 
L 356.921286 -89.859313 
L 358.207048 -89.615663 
L 359.492809 -89.373389 
L 360.778571 -89.132479 
L 362.064333 -88.89292 
L 363.350095 -88.6547 
L 364.635856 -88.417806 
L 365.921618 -88.182227 
L 367.20738 -87.947949 
L 368.493141 -87.714961 
L 369.778903 -87.483253 
L 371.064665 -87.252811 
L 372.350427 -87.023625 
L 373.636188 -86.795683 
L 374.92195 -86.568974 
L 376.207712 -86.343488 
L 377.493474 -86.119213 
L 378.779235 -85.896139 
L 380.064997 -85.674255 
L 381.350759 -85.453551 
L 382.636521 -85.234016 
L 383.922282 -85.01564 
L 385.208044 -84.798413 
L 386.493806 -84.582326 
L 387.779567 -84.367367 
L 389.065329 -84.153529 
L 390.351091 -83.9408 
L 391.636853 -83.729172 
L 392.922614 -83.518635 
L 394.208376 -83.309179 
L 395.494138 -83.100797 
L 396.7799 -82.893478 
L 398.065661 -82.687213 
L 399.351423 -82.481995 
L 400.637185 -82.277814 
L 401.922947 -82.074661 
L 403.208708 -81.872529 
L 404.49447 -81.671408 
L 405.780232 -81.47129 
L 407.065994 -81.272167 
L 408.351755 -81.074031 
L 409.637517 -80.876874 
L 410.923279 -80.680687 
L 412.20904 -80.485464 
L 413.494802 -80.291195 
L 414.780564 -80.097875 
L 416.066326 -79.905494 
L 417.352087 -79.714045 
L 418.637849 -79.523521 
L 419.923611 -79.333915 
L 421.209373 -79.14522 
L 422.495134 -78.957427 
L 423.780896 -78.77053 
L 425.066658 -78.584522 
L 426.35242 -78.399396 
L 427.638181 -78.215145 
L 428.923943 -78.031763 
L 430.209705 -77.849242 
L 431.495466 -77.667576 
L 432.781228 -77.486758 
L 434.06699 -77.306781 
L 435.352752 -77.127641 
L 436.638513 -76.949329 
L 437.924275 -76.771839 
L 439.210037 -76.595166 
L 440.495799 -76.419303 
L 441.78156 -76.244244 
L 443.067322 -76.069983 
L 444.353084 -75.896515 
L 445.638846 -75.723832 
L 446.924607 -75.551929 
L 448.210369 -75.380801 
L 449.496131 -75.210441 
L 450.781892 -75.040845 
L 452.067654 -74.872005 
L 453.353416 -74.703918 
L 453.353416 -78.560361 
L 453.353416 -78.560361 
L 452.067654 -78.734436 
L 450.781892 -78.90929 
L 449.496131 -79.084928 
L 448.210369 -79.261356 
L 446.924607 -79.438581 
L 445.638846 -79.616607 
L 444.353084 -79.795442 
L 443.067322 -79.97509 
L 441.78156 -80.155559 
L 440.495799 -80.336854 
L 439.210037 -80.518981 
L 437.924275 -80.701948 
L 436.638513 -80.88576 
L 435.352752 -81.070424 
L 434.06699 -81.255947 
L 432.781228 -81.442335 
L 431.495466 -81.629594 
L 430.209705 -81.817732 
L 428.923943 -82.006755 
L 427.638181 -82.19667 
L 426.35242 -82.387484 
L 425.066658 -82.579205 
L 423.780896 -82.771839 
L 422.495134 -82.965394 
L 421.209373 -83.159877 
L 419.923611 -83.355294 
L 418.637849 -83.551655 
L 417.352087 -83.748966 
L 416.066326 -83.947234 
L 414.780564 -84.146468 
L 413.494802 -84.346676 
L 412.20904 -84.547865 
L 410.923279 -84.750043 
L 409.637517 -84.953218 
L 408.351755 -85.157399 
L 407.065994 -85.362593 
L 405.780232 -85.568809 
L 404.49447 -85.776056 
L 403.208708 -85.984342 
L 401.922947 -86.193675 
L 400.637185 -86.404065 
L 399.351423 -86.615519 
L 398.065661 -86.828048 
L 396.7799 -87.04166 
L 395.494138 -87.256365 
L 394.208376 -87.472171 
L 392.922614 -87.689087 
L 391.636853 -87.907125 
L 390.351091 -88.126292 
L 389.065329 -88.346599 
L 387.779567 -88.568055 
L 386.493806 -88.790671 
L 385.208044 -89.014456 
L 383.922282 -89.239422 
L 382.636521 -89.465577 
L 381.350759 -89.692932 
L 380.064997 -89.921499 
L 378.779235 -90.151287 
L 377.493474 -90.382308 
L 376.207712 -90.614572 
L 374.92195 -90.848091 
L 373.636188 -91.082876 
L 372.350427 -91.318937 
L 371.064665 -91.556288 
L 369.778903 -91.794939 
L 368.493141 -92.034902 
L 367.20738 -92.276189 
L 365.921618 -92.518813 
L 364.635856 -92.762784 
L 363.350095 -93.008117 
L 362.064333 -93.254824 
L 360.778571 -93.502917 
L 359.492809 -93.752408 
L 358.207048 -94.003313 
L 356.921286 -94.255642 
L 355.635524 -94.509411 
L 354.349762 -94.764632 
L 353.064001 -95.02132 
L 351.778239 -95.279488 
L 350.492477 -95.53915 
L 349.206715 -95.800321 
L 347.920954 -96.063015 
L 346.635192 -96.327248 
L 345.34943 -96.593034 
L 344.063669 -96.860387 
L 342.777907 -97.129325 
L 341.492145 -97.399861 
L 340.206383 -97.672012 
L 338.920622 -97.945794 
L 337.63486 -98.221223 
L 336.349098 -98.498315 
L 335.063336 -98.777087 
L 333.777575 -99.057557 
L 332.491813 -99.33974 
L 331.206051 -99.623655 
L 329.920289 -99.909319 
L 328.634528 -100.19675 
L 327.348766 -100.485967 
L 326.063004 -100.776986 
L 324.777242 -101.069828 
L 323.491481 -101.364511 
L 322.205719 -101.661054 
L 320.919957 -101.959477 
L 319.634196 -102.259799 
L 318.348434 -102.562041 
L 317.062672 -102.866223 
L 315.77691 -103.172366 
L 314.491149 -103.48049 
L 313.205387 -103.790616 
L 311.919625 -104.102768 
L 310.633863 -104.416965 
L 309.348102 -104.733231 
L 308.06234 -105.051589 
L 306.776578 -105.37206 
L 305.490816 -105.694669 
L 304.205055 -106.019438 
L 302.919293 -106.346393 
L 301.633531 -106.675558 
L 300.34777 -107.006956 
L 299.062008 -107.340614 
L 297.776246 -107.676557 
L 296.490484 -108.014811 
L 295.204723 -108.355402 
L 293.918961 -108.698357 
L 292.633199 -109.043704 
L 291.347437 -109.391469 
L 290.061676 -109.741682 
L 288.775914 -110.09437 
L 287.490152 -110.449563 
L 286.20439 -110.80729 
L 284.918629 -111.167582 
L 283.632867 -111.530468 
L 282.347105 -111.89598 
L 281.061344 -112.264149 
L 279.775582 -112.635008 
L 278.48982 -113.008588 
L 277.204058 -113.384924 
L 275.918297 -113.764048 
L 274.632535 -114.145996 
L 273.346773 -114.530802 
L 272.061011 -114.918501 
L 270.77525 -115.30913 
L 269.489488 -115.702725 
L 268.203726 -116.099324 
L 266.917964 -116.498965 
L 265.632203 -116.901687 
L 264.346441 -117.307528 
L 263.060679 -117.71653 
L 261.774918 -118.128733 
L 260.489156 -118.544178 
L 259.203394 -118.962908 
L 257.917632 -119.384966 
L 256.631871 -119.810397 
L 255.346109 -120.239244 
L 254.060347 -120.671553 
L 252.774585 -121.107371 
L 251.488824 -121.546745 
L 250.203062 -121.989723 
L 248.9173 -122.436354 
L 247.631538 -122.886689 
L 246.345777 -123.340778 
L 245.060015 -123.798674 
L 243.774253 -124.260428 
L 242.488491 -124.726096 
L 241.20273 -125.195733 
L 239.916968 -125.669393 
L 238.631206 -126.147136 
L 237.345445 -126.629019 
L 236.059683 -127.115102 
L 234.773921 -127.605446 
L 233.488159 -128.100112 
L 232.202398 -128.599165 
L 230.916636 -129.102668 
L 229.630874 -129.610688 
L 228.345112 -130.123291 
L 227.059351 -130.640548 
L 225.773589 -131.162527 
L 224.487827 -131.689301 
L 223.202065 -132.220942 
L 221.916304 -132.757526 
L 220.630542 -133.299129 
L 219.34478 -133.845828 
L 218.059019 -134.397704 
L 216.773257 -134.954838 
L 215.487495 -135.517313 
L 214.201733 -136.085215 
L 212.915972 -136.65863 
L 211.63021 -137.237647 
L 210.344448 -137.822358 
L 209.058686 -138.412855 
L 207.772925 -139.009234 
L 206.487163 -139.611592 
L 205.201401 -140.220028 
L 203.915639 -140.834645 
L 202.629878 -141.455548 
L 201.344116 -142.082842 
L 200.058354 -142.716638 
L 198.772593 -143.357047 
L 197.486831 -144.004185 
L 196.201069 -144.658168 
L 194.915307 -145.319117 
L 193.629546 -145.987157 
L 192.343784 -146.662412 
L 191.058022 -147.345014 
L 189.77226 -148.035094 
L 188.486499 -148.732789 
L 187.200737 -149.438239 
L 185.914975 -150.151588 
L 184.629213 -150.872982 
L 183.343452 -151.602573 
L 182.05769 -152.340515 
L 180.771928 -153.086968 
L 179.486166 -153.842095 
L 178.200405 -154.606064 
L 176.914643 -155.379046 
L 175.628881 -156.16122 
L 174.34312 -156.952767 
L 173.057358 -157.753874 
L 171.771596 -158.564733 
L 170.485834 -159.385542 
L 169.200073 -160.216504 
L 167.914311 -161.057829 
L 166.628549 -161.909732 
L 165.342787 -162.772433 
L 164.057026 -163.646161 
L 162.771264 -164.531152 
L 161.485502 -165.427646 
L 160.19974 -166.335893 
L 158.913979 -167.256149 
L 157.628217 -168.188679 
L 156.342455 -169.133757 
L 155.056694 -170.091662 
L 153.770932 -171.062686 
L 152.48517 -172.047128 
L 151.199408 -173.045296 
L 149.913647 -174.057511 
L 148.627885 -175.0841 
L 147.342123 -176.125406 
L 146.056361 -177.181779 
L 144.7706 -178.253584 
L 143.484838 -179.341195 
L 142.199076 -180.445002 
L 140.913314 -181.565408 
L 139.627553 -182.702828 
L 138.341791 -183.857693 
L 137.056029 -185.030451 
L 135.770268 -186.221563 
L 134.484506 -187.431509 
L 133.198744 -188.660786 
L 131.912982 -189.90991 
L 130.627221 -191.179415 
L 129.341459 -192.469856 
L 128.055697 -193.781812 
L 126.769935 -195.115879 
L 125.484174 -196.472681 
L 124.198412 -197.852864 
L 122.91265 -199.257103 
L 121.626888 -200.686097 
L 120.341127 -202.140576 
L 119.055365 -203.621299 
L 117.769603 -205.129058 
L 116.483842 -206.664678 
L 115.19808 -208.22902 
L 113.912318 -209.822982 
L 112.626556 -211.447502 
L 111.340795 -213.10356 
L 110.055033 -214.792181 
L 108.769271 -216.514435 
L 107.483509 -218.271444 
L 106.197748 -220.064383 
L 104.911986 -221.894479 
L 103.626224 -223.763025 
L 102.340462 -225.671371 
L 101.054701 -227.620939 
L 99.768939 -229.61322 
L 98.483177 -231.649782 
L 97.197415 -233.732276 
L 95.911654 -235.862436 
L 94.625892 -238.042094 
L 93.34013 -240.273179 
L 92.054369 -242.557725 
L 90.768607 -244.897883 
L 89.482845 -247.295924 
L 88.197083 -249.754253 
L 86.911322 -252.275414 
L 85.62556 -254.862106 
L 84.339798 -257.517191 
L 83.054036 -260.243708 
L 81.768275 -263.044887 
L 80.482513 -265.924169 
L 79.196751 -268.885216 
L 77.910989 -271.931936 
L 76.625228 -275.068503 
L 75.339466 -278.299379 
L 74.053704 -281.629341 
L 72.767943 -285.063513 
L 71.482181 -288.607393 
L 70.196419 -292.266893 
L 68.910657 -296.04838 
z
"/>
    </defs>
    <g clip-path="url(#p4df8010ed9)">
     <use xlink:href="#m30c4a1dc35" x="0" y="363.122109" style="fill: #2a78d6; fill-opacity: 0.13"/>
    </g>
   </g>
   <g id="line2d_31">
    <path d="M 58.520313 171.87546 
L 460.280313 171.87546 
" clip-path="url(#p4df8010ed9)" style="fill: none; stroke-dasharray: 10,8; stroke-dashoffset: 0; stroke: #1baf7a; stroke-width: 2"/>
   </g>
   <g id="patch_3">
    <path d="M 58.520313 311.138047 
L 58.520313 61.658047 
" style="fill: none; stroke: #e8e7e3; stroke-linejoin: miter; stroke-linecap: square"/>
   </g>
   <g id="patch_4">
    <path d="M 58.520313 311.138047 
L 460.280313 311.138047 
" style="fill: none; stroke: #e8e7e3; stroke-linejoin: miter; stroke-linecap: square"/>
   </g>
   <g id="line2d_32">
    <path d="M 79.301002 117.662743 
L 148.569968 197.5719 
L 217.838933 232.978101 
L 287.107899 254.08696 
L 356.376864 268.494074 
L 425.64583 279.130476 
" clip-path="url(#p4df8010ed9)" style="fill: none; stroke-dasharray: 7.4,3.2; stroke-dashoffset: 0; stroke: #eb6834; stroke-width: 2"/>
    <defs>
     <path id="m5dfd8b016e" d="M -3 3 
L 3 3 
L 3 -3 
L -3 -3 
z
" style="stroke: #ffffff; stroke-width: 1.6; stroke-linejoin: miter"/>
    </defs>
    <g clip-path="url(#p4df8010ed9)">
     <use xlink:href="#m5dfd8b016e" x="79.301002" y="117.662743" style="fill: #eb6834; stroke: #ffffff; stroke-width: 1.6; stroke-linejoin: miter"/>
     <use xlink:href="#m5dfd8b016e" x="148.569968" y="197.5719" style="fill: #eb6834; stroke: #ffffff; stroke-width: 1.6; stroke-linejoin: miter"/>
     <use xlink:href="#m5dfd8b016e" x="217.838933" y="232.978101" style="fill: #eb6834; stroke: #ffffff; stroke-width: 1.6; stroke-linejoin: miter"/>
     <use xlink:href="#m5dfd8b016e" x="287.107899" y="254.08696" style="fill: #eb6834; stroke: #ffffff; stroke-width: 1.6; stroke-linejoin: miter"/>
     <use xlink:href="#m5dfd8b016e" x="356.376864" y="268.494074" style="fill: #eb6834; stroke: #ffffff; stroke-width: 1.6; stroke-linejoin: miter"/>
     <use xlink:href="#m5dfd8b016e" x="425.64583" y="279.130476" style="fill: #eb6834; stroke: #ffffff; stroke-width: 1.6; stroke-linejoin: miter"/>
    </g>
   </g>
   <g id="text_18">
    <!-- a ducted-flow assumption predicts -->
    <g style="fill: #1baf7a" transform="translate(294.034795 151.797428) scale(0.09 -0.09)">
     <defs>
      <path id="DejaVuSans-61" d="M 2194 1759 
Q 1497 1759 1228 1600 
Q 959 1441 959 1056 
Q 959 750 1161 570 
Q 1363 391 1709 391 
Q 2188 391 2477 730 
Q 2766 1069 2766 1631 
L 2766 1759 
L 2194 1759 
z
M 3341 1997 
L 3341 0 
L 2766 0 
L 2766 531 
Q 2569 213 2275 61 
Q 1981 -91 1556 -91 
Q 1019 -91 701 211 
Q 384 513 384 1019 
Q 384 1609 779 1909 
Q 1175 2209 1959 2209 
L 2766 2209 
L 2766 2266 
Q 2766 2663 2505 2880 
Q 2244 3097 1772 3097 
Q 1472 3097 1187 3025 
Q 903 2953 641 2809 
L 641 3341 
Q 956 3463 1253 3523 
Q 1550 3584 1831 3584 
Q 2591 3584 2966 3190 
Q 3341 2797 3341 1997 
z
" transform="scale(0.015625)"/>
      <path id="DejaVuSans-64" d="M 2906 2969 
L 2906 4863 
L 3481 4863 
L 3481 0 
L 2906 0 
L 2906 525 
Q 2725 213 2448 61 
Q 2172 -91 1784 -91 
Q 1150 -91 751 415 
Q 353 922 353 1747 
Q 353 2572 751 3078 
Q 1150 3584 1784 3584 
Q 2172 3584 2448 3432 
Q 2725 3281 2906 2969 
z
M 947 1747 
Q 947 1113 1208 752 
Q 1469 391 1925 391 
Q 2381 391 2643 752 
Q 2906 1113 2906 1747 
Q 2906 2381 2643 2742 
Q 2381 3103 1925 3103 
Q 1469 3103 1208 2742 
Q 947 2381 947 1747 
z
" transform="scale(0.015625)"/>
      <path id="DejaVuSans-75" d="M 544 1381 
L 544 3500 
L 1119 3500 
L 1119 1403 
Q 1119 906 1312 657 
Q 1506 409 1894 409 
Q 2359 409 2629 706 
Q 2900 1003 2900 1516 
L 2900 3500 
L 3475 3500 
L 3475 0 
L 2900 0 
L 2900 538 
Q 2691 219 2414 64 
Q 2138 -91 1772 -91 
Q 1169 -91 856 284 
Q 544 659 544 1381 
z
M 1991 3584 
L 1991 3584 
z
" transform="scale(0.015625)"/>
      <path id="DejaVuSans-2d" d="M 313 2009 
L 1997 2009 
L 1997 1497 
L 313 1497 
L 313 2009 
z
" transform="scale(0.015625)"/>
      <path id="DejaVuSans-66" d="M 2375 4863 
L 2375 4384 
L 1825 4384 
Q 1516 4384 1395 4259 
Q 1275 4134 1275 3809 
L 1275 3500 
L 2222 3500 
L 2222 3053 
L 1275 3053 
L 1275 0 
L 697 0 
L 697 3053 
L 147 3053 
L 147 3500 
L 697 3500 
L 697 3744 
Q 697 4328 969 4595 
Q 1241 4863 1831 4863 
L 2375 4863 
z
" transform="scale(0.015625)"/>
      <path id="DejaVuSans-77" d="M 269 3500 
L 844 3500 
L 1563 769 
L 2278 3500 
L 2956 3500 
L 3675 769 
L 4391 3500 
L 4966 3500 
L 4050 0 
L 3372 0 
L 2619 2869 
L 1863 0 
L 1184 0 
L 269 3500 
z
" transform="scale(0.015625)"/>
      <path id="DejaVuSans-70" d="M 1159 525 
L 1159 -1331 
L 581 -1331 
L 581 3500 
L 1159 3500 
L 1159 2969 
Q 1341 3281 1617 3432 
Q 1894 3584 2278 3584 
Q 2916 3584 3314 3078 
Q 3713 2572 3713 1747 
Q 3713 922 3314 415 
Q 2916 -91 2278 -91 
Q 1894 -91 1617 61 
Q 1341 213 1159 525 
z
M 3116 1747 
Q 3116 2381 2855 2742 
Q 2594 3103 2138 3103 
Q 1681 3103 1420 2742 
Q 1159 2381 1159 1747 
Q 1159 1113 1420 752 
Q 1681 391 2138 391 
Q 2594 391 2855 752 
Q 3116 1113 3116 1747 
z
" transform="scale(0.015625)"/>
      <path id="DejaVuSans-72" d="M 2631 2963 
Q 2534 3019 2420 3045 
Q 2306 3072 2169 3072 
Q 1681 3072 1420 2755 
Q 1159 2438 1159 1844 
L 1159 0 
L 581 0 
L 581 3500 
L 1159 3500 
L 1159 2956 
Q 1341 3275 1631 3429 
Q 1922 3584 2338 3584 
Q 2397 3584 2469 3576 
Q 2541 3569 2628 3553 
L 2631 2963 
z
" transform="scale(0.015625)"/>
     </defs>
     <use xlink:href="#DejaVuSans-61"/>
     <use xlink:href="#DejaVuSans-20" transform="translate(61.279297 0)"/>
     <use xlink:href="#DejaVuSans-64" transform="translate(93.066406 0)"/>
     <use xlink:href="#DejaVuSans-75" transform="translate(156.542969 0)"/>
     <use xlink:href="#DejaVuSans-63" transform="translate(219.921875 0)"/>
     <use xlink:href="#DejaVuSans-74" transform="translate(274.902344 0)"/>
     <use xlink:href="#DejaVuSans-65" transform="translate(314.111328 0)"/>
     <use xlink:href="#DejaVuSans-64" transform="translate(375.634766 0)"/>
     <use xlink:href="#DejaVuSans-2d" transform="translate(439.111328 0)"/>
     <use xlink:href="#DejaVuSans-66" transform="translate(475.195312 0)"/>
     <use xlink:href="#DejaVuSans-6c" transform="translate(510.400391 0)"/>
     <use xlink:href="#DejaVuSans-6f" transform="translate(538.183594 0)"/>
     <use xlink:href="#DejaVuSans-77" transform="translate(599.365234 0)"/>
     <use xlink:href="#DejaVuSans-20" transform="translate(681.152344 0)"/>
     <use xlink:href="#DejaVuSans-61" transform="translate(712.939453 0)"/>
     <use xlink:href="#DejaVuSans-73" transform="translate(774.21875 0)"/>
     <use xlink:href="#DejaVuSans-73" transform="translate(826.318359 0)"/>
     <use xlink:href="#DejaVuSans-75" transform="translate(878.417969 0)"/>
     <use xlink:href="#DejaVuSans-6d" transform="translate(941.796875 0)"/>
     <use xlink:href="#DejaVuSans-70" transform="translate(1039.208984 0)"/>
     <use xlink:href="#DejaVuSans-74" transform="translate(1102.685547 0)"/>
     <use xlink:href="#DejaVuSans-69" transform="translate(1141.894531 0)"/>
     <use xlink:href="#DejaVuSans-6f" transform="translate(1169.677734 0)"/>
     <use xlink:href="#DejaVuSans-6e" transform="translate(1230.859375 0)"/>
     <use xlink:href="#DejaVuSans-20" transform="translate(1294.238281 0)"/>
     <use xlink:href="#DejaVuSans-70" transform="translate(1326.025391 0)"/>
     <use xlink:href="#DejaVuSans-72" transform="translate(1389.501953 0)"/>
     <use xlink:href="#DejaVuSans-65" transform="translate(1428.365234 0)"/>
     <use xlink:href="#DejaVuSans-64" transform="translate(1489.888672 0)"/>
     <use xlink:href="#DejaVuSans-69" transform="translate(1553.365234 0)"/>
     <use xlink:href="#DejaVuSans-63" transform="translate(1581.148438 0)"/>
     <use xlink:href="#DejaVuSans-74" transform="translate(1636.128906 0)"/>
     <use xlink:href="#DejaVuSans-73" transform="translate(1675.337891 0)"/>
    </g>
    <!-- no velocity dependence at all -->
    <g style="fill: #1baf7a" transform="translate(294.034795 161.87546) scale(0.09 -0.09)">
     <use xlink:href="#DejaVuSans-6e"/>
     <use xlink:href="#DejaVuSans-6f" transform="translate(63.378906 0)"/>
     <use xlink:href="#DejaVuSans-20" transform="translate(124.560547 0)"/>
     <use xlink:href="#DejaVuSans-76" transform="translate(156.347656 0)"/>
     <use xlink:href="#DejaVuSans-65" transform="translate(215.527344 0)"/>
     <use xlink:href="#DejaVuSans-6c" transform="translate(277.050781 0)"/>
     <use xlink:href="#DejaVuSans-6f" transform="translate(304.833984 0)"/>
     <use xlink:href="#DejaVuSans-63" transform="translate(366.015625 0)"/>
     <use xlink:href="#DejaVuSans-69" transform="translate(420.996094 0)"/>
     <use xlink:href="#DejaVuSans-74" transform="translate(448.779297 0)"/>
     <use xlink:href="#DejaVuSans-79" transform="translate(487.988281 0)"/>
     <use xlink:href="#DejaVuSans-20" transform="translate(547.167969 0)"/>
     <use xlink:href="#DejaVuSans-64" transform="translate(578.955078 0)"/>
     <use xlink:href="#DejaVuSans-65" transform="translate(642.431641 0)"/>
     <use xlink:href="#DejaVuSans-70" transform="translate(703.955078 0)"/>
     <use xlink:href="#DejaVuSans-65" transform="translate(767.431641 0)"/>
     <use xlink:href="#DejaVuSans-6e" transform="translate(828.955078 0)"/>
     <use xlink:href="#DejaVuSans-64" transform="translate(892.333984 0)"/>
     <use xlink:href="#DejaVuSans-65" transform="translate(955.810547 0)"/>
     <use xlink:href="#DejaVuSans-6e" transform="translate(1017.333984 0)"/>
     <use xlink:href="#DejaVuSans-63" transform="translate(1080.712891 0)"/>
     <use xlink:href="#DejaVuSans-65" transform="translate(1135.693359 0)"/>
     <use xlink:href="#DejaVuSans-20" transform="translate(1197.216797 0)"/>
     <use xlink:href="#DejaVuSans-61" transform="translate(1229.003906 0)"/>
     <use xlink:href="#DejaVuSans-74" transform="translate(1290.283203 0)"/>
     <use xlink:href="#DejaVuSans-20" transform="translate(1329.492188 0)"/>
     <use xlink:href="#DejaVuSans-61" transform="translate(1361.279297 0)"/>
     <use xlink:href="#DejaVuSans-6c" transform="translate(1422.558594 0)"/>
     <use xlink:href="#DejaVuSans-6c" transform="translate(1450.341797 0)"/>
    </g>
   </g>
   <g id="text_19">
    <!-- within 5 % of the CFD at every point, -->
    <g style="fill: #52514e" transform="translate(89.691347 274.839325) scale(0.095 -0.095)">
     <defs>
      <path id="DejaVuSans-68" d="M 3513 2113 
L 3513 0 
L 2938 0 
L 2938 2094 
Q 2938 2591 2744 2837 
Q 2550 3084 2163 3084 
Q 1697 3084 1428 2787 
Q 1159 2491 1159 1978 
L 1159 0 
L 581 0 
L 581 4863 
L 1159 4863 
L 1159 2956 
Q 1366 3272 1645 3428 
Q 1925 3584 2291 3584 
Q 2894 3584 3203 3211 
Q 3513 2838 3513 2113 
z
" transform="scale(0.015625)"/>
      <path id="DejaVuSans-25" d="M 4653 2053 
Q 4381 2053 4226 1822 
Q 4072 1591 4072 1178 
Q 4072 772 4226 539 
Q 4381 306 4653 306 
Q 4919 306 5073 539 
Q 5228 772 5228 1178 
Q 5228 1588 5073 1820 
Q 4919 2053 4653 2053 
z
M 4653 2450 
Q 5147 2450 5437 2106 
Q 5728 1763 5728 1178 
Q 5728 594 5436 251 
Q 5144 -91 4653 -91 
Q 4153 -91 3862 251 
Q 3572 594 3572 1178 
Q 3572 1766 3864 2108 
Q 4156 2450 4653 2450 
z
M 1428 4353 
Q 1159 4353 1004 4120 
Q 850 3888 850 3481 
Q 850 3069 1003 2837 
Q 1156 2606 1428 2606 
Q 1700 2606 1854 2837 
Q 2009 3069 2009 3481 
Q 2009 3884 1853 4118 
Q 1697 4353 1428 4353 
z
M 4250 4750 
L 4750 4750 
L 1831 -91 
L 1331 -91 
L 4250 4750 
z
M 1428 4750 
Q 1922 4750 2215 4408 
Q 2509 4066 2509 3481 
Q 2509 2891 2217 2550 
Q 1925 2209 1428 2209 
Q 931 2209 642 2551 
Q 353 2894 353 3481 
Q 353 4063 643 4406 
Q 934 4750 1428 4750 
z
" transform="scale(0.015625)"/>
      <path id="DejaVuSans-43" d="M 4122 4306 
L 4122 3641 
Q 3803 3938 3442 4084 
Q 3081 4231 2675 4231 
Q 1875 4231 1450 3742 
Q 1025 3253 1025 2328 
Q 1025 1406 1450 917 
Q 1875 428 2675 428 
Q 3081 428 3442 575 
Q 3803 722 4122 1019 
L 4122 359 
Q 3791 134 3420 21 
Q 3050 -91 2638 -91 
Q 1578 -91 968 557 
Q 359 1206 359 2328 
Q 359 3453 968 4101 
Q 1578 4750 2638 4750 
Q 3056 4750 3426 4639 
Q 3797 4528 4122 4306 
z
" transform="scale(0.015625)"/>
      <path id="DejaVuSans-46" d="M 628 4666 
L 3309 4666 
L 3309 4134 
L 1259 4134 
L 1259 2759 
L 3109 2759 
L 3109 2228 
L 1259 2228 
L 1259 0 
L 628 0 
L 628 4666 
z
" transform="scale(0.015625)"/>
      <path id="DejaVuSans-44" d="M 1259 4147 
L 1259 519 
L 2022 519 
Q 2988 519 3436 956 
Q 3884 1394 3884 2338 
Q 3884 3275 3436 3711 
Q 2988 4147 2022 4147 
L 1259 4147 
z
M 628 4666 
L 1925 4666 
Q 3281 4666 3915 4102 
Q 4550 3538 4550 2338 
Q 4550 1131 3912 565 
Q 3275 0 1925 0 
L 628 0 
L 628 4666 
z
" transform="scale(0.015625)"/>
      <path id="DejaVuSans-2c" d="M 750 794 
L 1409 794 
L 1409 256 
L 897 -744 
L 494 -744 
L 750 256 
L 750 794 
z
" transform="scale(0.015625)"/>
     </defs>
     <use xlink:href="#DejaVuSans-77"/>
     <use xlink:href="#DejaVuSans-69" transform="translate(81.787109 0)"/>
     <use xlink:href="#DejaVuSans-74" transform="translate(109.570312 0)"/>
     <use xlink:href="#DejaVuSans-68" transform="translate(148.779297 0)"/>
     <use xlink:href="#DejaVuSans-69" transform="translate(212.158203 0)"/>
     <use xlink:href="#DejaVuSans-6e" transform="translate(239.941406 0)"/>
     <use xlink:href="#DejaVuSans-20" transform="translate(303.320312 0)"/>
     <use xlink:href="#DejaVuSans-35" transform="translate(335.107422 0)"/>
     <use xlink:href="#DejaVuSans-20" transform="translate(398.730469 0)"/>
     <use xlink:href="#DejaVuSans-25" transform="translate(430.517578 0)"/>
     <use xlink:href="#DejaVuSans-20" transform="translate(525.537109 0)"/>
     <use xlink:href="#DejaVuSans-6f" transform="translate(557.324219 0)"/>
     <use xlink:href="#DejaVuSans-66" transform="translate(618.505859 0)"/>
     <use xlink:href="#DejaVuSans-20" transform="translate(653.710938 0)"/>
     <use xlink:href="#DejaVuSans-74" transform="translate(685.498047 0)"/>
     <use xlink:href="#DejaVuSans-68" transform="translate(724.707031 0)"/>
     <use xlink:href="#DejaVuSans-65" transform="translate(788.085938 0)"/>
     <use xlink:href="#DejaVuSans-20" transform="translate(849.609375 0)"/>
     <use xlink:href="#DejaVuSans-43" transform="translate(881.396484 0)"/>
     <use xlink:href="#DejaVuSans-46" transform="translate(951.220703 0)"/>
     <use xlink:href="#DejaVuSans-44" transform="translate(1008.740234 0)"/>
     <use xlink:href="#DejaVuSans-20" transform="translate(1085.742188 0)"/>
     <use xlink:href="#DejaVuSans-61" transform="translate(1117.529297 0)"/>
     <use xlink:href="#DejaVuSans-74" transform="translate(1178.808594 0)"/>
     <use xlink:href="#DejaVuSans-20" transform="translate(1218.017578 0)"/>
     <use xlink:href="#DejaVuSans-65" transform="translate(1249.804688 0)"/>
     <use xlink:href="#DejaVuSans-76" transform="translate(1311.328125 0)"/>
     <use xlink:href="#DejaVuSans-65" transform="translate(1370.507812 0)"/>
     <use xlink:href="#DejaVuSans-72" transform="translate(1432.03125 0)"/>
     <use xlink:href="#DejaVuSans-79" transform="translate(1473.144531 0)"/>
     <use xlink:href="#DejaVuSans-20" transform="translate(1532.324219 0)"/>
     <use xlink:href="#DejaVuSans-70" transform="translate(1564.111328 0)"/>
     <use xlink:href="#DejaVuSans-6f" transform="translate(1627.587891 0)"/>
     <use xlink:href="#DejaVuSans-69" transform="translate(1688.769531 0)"/>
     <use xlink:href="#DejaVuSans-6e" transform="translate(1716.552734 0)"/>
     <use xlink:href="#DejaVuSans-74" transform="translate(1779.931641 0)"/>
     <use xlink:href="#DejaVuSans-2c" transform="translate(1819.140625 0)"/>
    </g>
    <!-- with a crossover near 4 m/s -->
    <g style="fill: #52514e" transform="translate(89.691347 285.477247) scale(0.095 -0.095)">
     <use xlink:href="#DejaVuSans-77"/>
     <use xlink:href="#DejaVuSans-69" transform="translate(81.787109 0)"/>
     <use xlink:href="#DejaVuSans-74" transform="translate(109.570312 0)"/>
     <use xlink:href="#DejaVuSans-68" transform="translate(148.779297 0)"/>
     <use xlink:href="#DejaVuSans-20" transform="translate(212.158203 0)"/>
     <use xlink:href="#DejaVuSans-61" transform="translate(243.945312 0)"/>
     <use xlink:href="#DejaVuSans-20" transform="translate(305.224609 0)"/>
     <use xlink:href="#DejaVuSans-63" transform="translate(337.011719 0)"/>
     <use xlink:href="#DejaVuSans-72" transform="translate(391.992188 0)"/>
     <use xlink:href="#DejaVuSans-6f" transform="translate(430.855469 0)"/>
     <use xlink:href="#DejaVuSans-73" transform="translate(492.037109 0)"/>
     <use xlink:href="#DejaVuSans-73" transform="translate(544.136719 0)"/>
     <use xlink:href="#DejaVuSans-6f" transform="translate(596.236328 0)"/>
     <use xlink:href="#DejaVuSans-76" transform="translate(657.417969 0)"/>
     <use xlink:href="#DejaVuSans-65" transform="translate(716.597656 0)"/>
     <use xlink:href="#DejaVuSans-72" transform="translate(778.121094 0)"/>
     <use xlink:href="#DejaVuSans-20" transform="translate(819.234375 0)"/>
     <use xlink:href="#DejaVuSans-6e" transform="translate(851.021484 0)"/>
     <use xlink:href="#DejaVuSans-65" transform="translate(914.400391 0)"/>
     <use xlink:href="#DejaVuSans-61" transform="translate(975.923828 0)"/>
     <use xlink:href="#DejaVuSans-72" transform="translate(1037.203125 0)"/>
     <use xlink:href="#DejaVuSans-20" transform="translate(1078.316406 0)"/>
     <use xlink:href="#DejaVuSans-34" transform="translate(1110.103516 0)"/>
     <use xlink:href="#DejaVuSans-20" transform="translate(1173.726562 0)"/>
     <use xlink:href="#DejaVuSans-6d" transform="translate(1205.513672 0)"/>
     <use xlink:href="#DejaVuSans-2f" transform="translate(1302.925781 0)"/>
     <use xlink:href="#DejaVuSans-73" transform="translate(1336.617188 0)"/>
    </g>
   </g>
   <g id="text_20">
    <!-- the same comparison was 8-28 % off before the boundary layer was resolved -->
    <g style="fill: #52514e" transform="translate(58.520313 50.682344) scale(0.095 -0.095)">
     <defs>
      <path id="DejaVuSans-62" d="M 3116 1747 
Q 3116 2381 2855 2742 
Q 2594 3103 2138 3103 
Q 1681 3103 1420 2742 
Q 1159 2381 1159 1747 
Q 1159 1113 1420 752 
Q 1681 391 2138 391 
Q 2594 391 2855 752 
Q 3116 1113 3116 1747 
z
M 1159 2969 
Q 1341 3281 1617 3432 
Q 1894 3584 2278 3584 
Q 2916 3584 3314 3078 
Q 3713 2572 3713 1747 
Q 3713 922 3314 415 
Q 2916 -91 2278 -91 
Q 1894 -91 1617 61 
Q 1341 213 1159 525 
L 1159 0 
L 581 0 
L 581 4863 
L 1159 4863 
L 1159 2969 
z
" transform="scale(0.015625)"/>
     </defs>
     <use xlink:href="#DejaVuSans-74"/>
     <use xlink:href="#DejaVuSans-68" transform="translate(39.208984 0)"/>
     <use xlink:href="#DejaVuSans-65" transform="translate(102.587891 0)"/>
     <use xlink:href="#DejaVuSans-20" transform="translate(164.111328 0)"/>
     <use xlink:href="#DejaVuSans-73" transform="translate(195.898438 0)"/>
     <use xlink:href="#DejaVuSans-61" transform="translate(247.998047 0)"/>
     <use xlink:href="#DejaVuSans-6d" transform="translate(309.277344 0)"/>
     <use xlink:href="#DejaVuSans-65" transform="translate(406.689453 0)"/>
     <use xlink:href="#DejaVuSans-20" transform="translate(468.212891 0)"/>
     <use xlink:href="#DejaVuSans-63" transform="translate(500 0)"/>
     <use xlink:href="#DejaVuSans-6f" transform="translate(554.980469 0)"/>
     <use xlink:href="#DejaVuSans-6d" transform="translate(616.162109 0)"/>
     <use xlink:href="#DejaVuSans-70" transform="translate(713.574219 0)"/>
     <use xlink:href="#DejaVuSans-61" transform="translate(777.050781 0)"/>
     <use xlink:href="#DejaVuSans-72" transform="translate(838.330078 0)"/>
     <use xlink:href="#DejaVuSans-69" transform="translate(879.443359 0)"/>
     <use xlink:href="#DejaVuSans-73" transform="translate(907.226562 0)"/>
     <use xlink:href="#DejaVuSans-6f" transform="translate(959.326172 0)"/>
     <use xlink:href="#DejaVuSans-6e" transform="translate(1020.507812 0)"/>
     <use xlink:href="#DejaVuSans-20" transform="translate(1083.886719 0)"/>
     <use xlink:href="#DejaVuSans-77" transform="translate(1115.673828 0)"/>
     <use xlink:href="#DejaVuSans-61" transform="translate(1197.460938 0)"/>
     <use xlink:href="#DejaVuSans-73" transform="translate(1258.740234 0)"/>
     <use xlink:href="#DejaVuSans-20" transform="translate(1310.839844 0)"/>
     <use xlink:href="#DejaVuSans-38" transform="translate(1342.626953 0)"/>
     <use xlink:href="#DejaVuSans-2d" transform="translate(1406.25 0)"/>
     <use xlink:href="#DejaVuSans-32" transform="translate(1442.333984 0)"/>
     <use xlink:href="#DejaVuSans-38" transform="translate(1505.957031 0)"/>
     <use xlink:href="#DejaVuSans-20" transform="translate(1569.580078 0)"/>
     <use xlink:href="#DejaVuSans-25" transform="translate(1601.367188 0)"/>
     <use xlink:href="#DejaVuSans-20" transform="translate(1696.386719 0)"/>
     <use xlink:href="#DejaVuSans-6f" transform="translate(1728.173828 0)"/>
     <use xlink:href="#DejaVuSans-66" transform="translate(1789.355469 0)"/>
     <use xlink:href="#DejaVuSans-66" transform="translate(1824.560547 0)"/>
     <use xlink:href="#DejaVuSans-20" transform="translate(1859.765625 0)"/>
     <use xlink:href="#DejaVuSans-62" transform="translate(1891.552734 0)"/>
     <use xlink:href="#DejaVuSans-65" transform="translate(1955.029297 0)"/>
     <use xlink:href="#DejaVuSans-66" transform="translate(2016.552734 0)"/>
     <use xlink:href="#DejaVuSans-6f" transform="translate(2051.757812 0)"/>
     <use xlink:href="#DejaVuSans-72" transform="translate(2112.939453 0)"/>
     <use xlink:href="#DejaVuSans-65" transform="translate(2151.802734 0)"/>
     <use xlink:href="#DejaVuSans-20" transform="translate(2213.326172 0)"/>
     <use xlink:href="#DejaVuSans-74" transform="translate(2245.113281 0)"/>
     <use xlink:href="#DejaVuSans-68" transform="translate(2284.322266 0)"/>
     <use xlink:href="#DejaVuSans-65" transform="translate(2347.701172 0)"/>
     <use xlink:href="#DejaVuSans-20" transform="translate(2409.224609 0)"/>
     <use xlink:href="#DejaVuSans-62" transform="translate(2441.011719 0)"/>
     <use xlink:href="#DejaVuSans-6f" transform="translate(2504.488281 0)"/>
     <use xlink:href="#DejaVuSans-75" transform="translate(2565.669922 0)"/>
     <use xlink:href="#DejaVuSans-6e" transform="translate(2629.048828 0)"/>
     <use xlink:href="#DejaVuSans-64" transform="translate(2692.427734 0)"/>
     <use xlink:href="#DejaVuSans-61" transform="translate(2755.904297 0)"/>
     <use xlink:href="#DejaVuSans-72" transform="translate(2817.183594 0)"/>
     <use xlink:href="#DejaVuSans-79" transform="translate(2858.296875 0)"/>
     <use xlink:href="#DejaVuSans-20" transform="translate(2917.476562 0)"/>
     <use xlink:href="#DejaVuSans-6c" transform="translate(2949.263672 0)"/>
     <use xlink:href="#DejaVuSans-61" transform="translate(2977.046875 0)"/>
     <use xlink:href="#DejaVuSans-79" transform="translate(3038.326172 0)"/>
     <use xlink:href="#DejaVuSans-65" transform="translate(3097.505859 0)"/>
     <use xlink:href="#DejaVuSans-72" transform="translate(3159.029297 0)"/>
     <use xlink:href="#DejaVuSans-20" transform="translate(3200.142578 0)"/>
     <use xlink:href="#DejaVuSans-77" transform="translate(3231.929688 0)"/>
     <use xlink:href="#DejaVuSans-61" transform="translate(3313.716797 0)"/>
     <use xlink:href="#DejaVuSans-73" transform="translate(3374.996094 0)"/>
     <use xlink:href="#DejaVuSans-20" transform="translate(3427.095703 0)"/>
     <use xlink:href="#DejaVuSans-72" transform="translate(3458.882812 0)"/>
     <use xlink:href="#DejaVuSans-65" transform="translate(3497.746094 0)"/>
     <use xlink:href="#DejaVuSans-73" transform="translate(3559.269531 0)"/>
     <use xlink:href="#DejaVuSans-6f" transform="translate(3611.369141 0)"/>
     <use xlink:href="#DejaVuSans-6c" transform="translate(3672.550781 0)"/>
     <use xlink:href="#DejaVuSans-76" transform="translate(3700.333984 0)"/>
     <use xlink:href="#DejaVuSans-65" transform="translate(3759.513672 0)"/>
     <use xlink:href="#DejaVuSans-64" transform="translate(3821.037109 0)"/>
    </g>
   </g>
   <g id="text_21">
    <!-- An independent 1-D model agrees to within 5 % -->
    <g style="fill: #0b0b0b" transform="translate(58.520313 29.658047) scale(0.125 -0.125)">
     <defs>
      <path id="DejaVuSans-Bold-41" d="M 3419 850 
L 1538 850 
L 1241 0 
L 31 0 
L 1759 4666 
L 3194 4666 
L 4922 0 
L 3713 0 
L 3419 850 
z
M 1838 1716 
L 3116 1716 
L 2478 3572 
L 1838 1716 
z
" transform="scale(0.015625)"/>
      <path id="DejaVuSans-Bold-6e" d="M 4056 2131 
L 4056 0 
L 2931 0 
L 2931 347 
L 2931 1631 
Q 2931 2084 2911 2256 
Q 2891 2428 2841 2509 
Q 2775 2619 2662 2680 
Q 2550 2741 2406 2741 
Q 2056 2741 1856 2470 
Q 1656 2200 1656 1722 
L 1656 0 
L 538 0 
L 538 3500 
L 1656 3500 
L 1656 2988 
Q 1909 3294 2193 3439 
Q 2478 3584 2822 3584 
Q 3428 3584 3742 3212 
Q 4056 2841 4056 2131 
z
" transform="scale(0.015625)"/>
      <path id="DejaVuSans-Bold-20" transform="scale(0.015625)"/>
      <path id="DejaVuSans-Bold-69" d="M 538 3500 
L 1656 3500 
L 1656 0 
L 538 0 
L 538 3500 
z
M 538 4863 
L 1656 4863 
L 1656 3950 
L 538 3950 
L 538 4863 
z
" transform="scale(0.015625)"/>
      <path id="DejaVuSans-Bold-64" d="M 2919 2988 
L 2919 4863 
L 4044 4863 
L 4044 0 
L 2919 0 
L 2919 506 
Q 2688 197 2409 53 
Q 2131 -91 1766 -91 
Q 1119 -91 703 423 
Q 288 938 288 1747 
Q 288 2556 703 3070 
Q 1119 3584 1766 3584 
Q 2128 3584 2408 3439 
Q 2688 3294 2919 2988 
z
M 2181 722 
Q 2541 722 2730 984 
Q 2919 1247 2919 1747 
Q 2919 2247 2730 2509 
Q 2541 2772 2181 2772 
Q 1825 2772 1636 2509 
Q 1447 2247 1447 1747 
Q 1447 1247 1636 984 
Q 1825 722 2181 722 
z
" transform="scale(0.015625)"/>
      <path id="DejaVuSans-Bold-65" d="M 4031 1759 
L 4031 1441 
L 1416 1441 
Q 1456 1047 1700 850 
Q 1944 653 2381 653 
Q 2734 653 3104 758 
Q 3475 863 3866 1075 
L 3866 213 
Q 3469 63 3072 -14 
Q 2675 -91 2278 -91 
Q 1328 -91 801 392 
Q 275 875 275 1747 
Q 275 2603 792 3093 
Q 1309 3584 2216 3584 
Q 3041 3584 3536 3087 
Q 4031 2591 4031 1759 
z
M 2881 2131 
Q 2881 2450 2695 2645 
Q 2509 2841 2209 2841 
Q 1884 2841 1681 2658 
Q 1478 2475 1428 2131 
L 2881 2131 
z
" transform="scale(0.015625)"/>
      <path id="DejaVuSans-Bold-70" d="M 1656 506 
L 1656 -1331 
L 538 -1331 
L 538 3500 
L 1656 3500 
L 1656 2988 
Q 1888 3294 2169 3439 
Q 2450 3584 2816 3584 
Q 3463 3584 3878 3070 
Q 4294 2556 4294 1747 
Q 4294 938 3878 423 
Q 3463 -91 2816 -91 
Q 2450 -91 2169 54 
Q 1888 200 1656 506 
z
M 2400 2772 
Q 2041 2772 1848 2508 
Q 1656 2244 1656 1747 
Q 1656 1250 1848 986 
Q 2041 722 2400 722 
Q 2759 722 2948 984 
Q 3138 1247 3138 1747 
Q 3138 2247 2948 2509 
Q 2759 2772 2400 2772 
z
" transform="scale(0.015625)"/>
      <path id="DejaVuSans-Bold-74" d="M 1759 4494 
L 1759 3500 
L 2913 3500 
L 2913 2700 
L 1759 2700 
L 1759 1216 
Q 1759 972 1856 886 
Q 1953 800 2241 800 
L 2816 800 
L 2816 0 
L 1856 0 
Q 1194 0 917 276 
Q 641 553 641 1216 
L 641 2700 
L 84 2700 
L 84 3500 
L 641 3500 
L 641 4494 
L 1759 4494 
z
" transform="scale(0.015625)"/>
      <path id="DejaVuSans-Bold-31" d="M 750 831 
L 1813 831 
L 1813 3847 
L 722 3622 
L 722 4441 
L 1806 4666 
L 2950 4666 
L 2950 831 
L 4013 831 
L 4013 0 
L 750 0 
L 750 831 
z
" transform="scale(0.015625)"/>
      <path id="DejaVuSans-Bold-2d" d="M 347 2297 
L 2309 2297 
L 2309 1388 
L 347 1388 
L 347 2297 
z
" transform="scale(0.015625)"/>
      <path id="DejaVuSans-Bold-44" d="M 1791 3756 
L 1791 909 
L 2222 909 
Q 2959 909 3348 1275 
Q 3738 1641 3738 2338 
Q 3738 3031 3350 3393 
Q 2963 3756 2222 3756 
L 1791 3756 
z
M 588 4666 
L 1856 4666 
Q 2919 4666 3439 4514 
Q 3959 4363 4331 4000 
Q 4659 3684 4818 3271 
Q 4978 2859 4978 2338 
Q 4978 1809 4818 1395 
Q 4659 981 4331 666 
Q 3956 303 3431 151 
Q 2906 0 1856 0 
L 588 0 
L 588 4666 
z
" transform="scale(0.015625)"/>
      <path id="DejaVuSans-Bold-6d" d="M 3781 2919 
Q 3994 3244 4286 3414 
Q 4578 3584 4928 3584 
Q 5531 3584 5847 3212 
Q 6163 2841 6163 2131 
L 6163 0 
L 5038 0 
L 5038 1825 
Q 5041 1866 5042 1909 
Q 5044 1953 5044 2034 
Q 5044 2406 4934 2573 
Q 4825 2741 4581 2741 
Q 4263 2741 4089 2478 
Q 3916 2216 3909 1719 
L 3909 0 
L 2784 0 
L 2784 1825 
Q 2784 2406 2684 2573 
Q 2584 2741 2328 2741 
Q 2006 2741 1831 2477 
Q 1656 2213 1656 1722 
L 1656 0 
L 531 0 
L 531 3500 
L 1656 3500 
L 1656 2988 
Q 1863 3284 2130 3434 
Q 2397 3584 2719 3584 
Q 3081 3584 3359 3409 
Q 3638 3234 3781 2919 
z
" transform="scale(0.015625)"/>
      <path id="DejaVuSans-Bold-6f" d="M 2203 2784 
Q 1831 2784 1636 2517 
Q 1441 2250 1441 1747 
Q 1441 1244 1636 976 
Q 1831 709 2203 709 
Q 2569 709 2762 976 
Q 2956 1244 2956 1747 
Q 2956 2250 2762 2517 
Q 2569 2784 2203 2784 
z
M 2203 3584 
Q 3106 3584 3614 3096 
Q 4122 2609 4122 1747 
Q 4122 884 3614 396 
Q 3106 -91 2203 -91 
Q 1297 -91 786 396 
Q 275 884 275 1747 
Q 275 2609 786 3096 
Q 1297 3584 2203 3584 
z
" transform="scale(0.015625)"/>
      <path id="DejaVuSans-Bold-6c" d="M 538 4863 
L 1656 4863 
L 1656 0 
L 538 0 
L 538 4863 
z
" transform="scale(0.015625)"/>
      <path id="DejaVuSans-Bold-61" d="M 2106 1575 
Q 1756 1575 1579 1456 
Q 1403 1338 1403 1106 
Q 1403 894 1545 773 
Q 1688 653 1941 653 
Q 2256 653 2472 879 
Q 2688 1106 2688 1447 
L 2688 1575 
L 2106 1575 
z
M 3816 1997 
L 3816 0 
L 2688 0 
L 2688 519 
Q 2463 200 2181 54 
Q 1900 -91 1497 -91 
Q 953 -91 614 226 
Q 275 544 275 1050 
Q 275 1666 698 1953 
Q 1122 2241 2028 2241 
L 2688 2241 
L 2688 2328 
Q 2688 2594 2478 2717 
Q 2269 2841 1825 2841 
Q 1466 2841 1156 2769 
Q 847 2697 581 2553 
L 581 3406 
Q 941 3494 1303 3539 
Q 1666 3584 2028 3584 
Q 2975 3584 3395 3211 
Q 3816 2838 3816 1997 
z
" transform="scale(0.015625)"/>
      <path id="DejaVuSans-Bold-67" d="M 2919 594 
Q 2688 288 2409 144 
Q 2131 0 1766 0 
Q 1125 0 706 504 
Q 288 1009 288 1791 
Q 288 2575 706 3076 
Q 1125 3578 1766 3578 
Q 2131 3578 2409 3434 
Q 2688 3291 2919 2981 
L 2919 3500 
L 4044 3500 
L 4044 353 
Q 4044 -491 3511 -936 
Q 2978 -1381 1966 -1381 
Q 1638 -1381 1331 -1331 
Q 1025 -1281 716 -1178 
L 716 -306 
Q 1009 -475 1290 -558 
Q 1572 -641 1856 -641 
Q 2406 -641 2662 -400 
Q 2919 -159 2919 353 
L 2919 594 
z
M 2181 2772 
Q 1834 2772 1640 2515 
Q 1447 2259 1447 1791 
Q 1447 1309 1634 1061 
Q 1822 813 2181 813 
Q 2531 813 2725 1069 
Q 2919 1325 2919 1791 
Q 2919 2259 2725 2515 
Q 2531 2772 2181 2772 
z
" transform="scale(0.015625)"/>
      <path id="DejaVuSans-Bold-72" d="M 3138 2547 
Q 2991 2616 2845 2648 
Q 2700 2681 2553 2681 
Q 2122 2681 1889 2404 
Q 1656 2128 1656 1613 
L 1656 0 
L 538 0 
L 538 3500 
L 1656 3500 
L 1656 2925 
Q 1872 3269 2151 3426 
Q 2431 3584 2822 3584 
Q 2878 3584 2943 3579 
Q 3009 3575 3134 3559 
L 3138 2547 
z
" transform="scale(0.015625)"/>
      <path id="DejaVuSans-Bold-73" d="M 3272 3391 
L 3272 2541 
Q 2913 2691 2578 2766 
Q 2244 2841 1947 2841 
Q 1628 2841 1473 2761 
Q 1319 2681 1319 2516 
Q 1319 2381 1436 2309 
Q 1553 2238 1856 2203 
L 2053 2175 
Q 2913 2066 3209 1816 
Q 3506 1566 3506 1031 
Q 3506 472 3093 190 
Q 2681 -91 1863 -91 
Q 1516 -91 1145 -36 
Q 775 19 384 128 
L 384 978 
Q 719 816 1070 734 
Q 1422 653 1784 653 
Q 2113 653 2278 743 
Q 2444 834 2444 1013 
Q 2444 1163 2330 1236 
Q 2216 1309 1875 1350 
L 1678 1375 
Q 931 1469 631 1722 
Q 331 1975 331 2491 
Q 331 3047 712 3315 
Q 1094 3584 1881 3584 
Q 2191 3584 2531 3537 
Q 2872 3491 3272 3391 
z
" transform="scale(0.015625)"/>
      <path id="DejaVuSans-Bold-77" d="M 225 3500 
L 1313 3500 
L 1900 1088 
L 2491 3500 
L 3425 3500 
L 4013 1113 
L 4603 3500 
L 5691 3500 
L 4769 0 
L 3547 0 
L 2956 2406 
L 2369 0 
L 1147 0 
L 225 3500 
z
" transform="scale(0.015625)"/>
      <path id="DejaVuSans-Bold-68" d="M 4056 2131 
L 4056 0 
L 2931 0 
L 2931 347 
L 2931 1625 
Q 2931 2084 2911 2256 
Q 2891 2428 2841 2509 
Q 2775 2619 2662 2680 
Q 2550 2741 2406 2741 
Q 2056 2741 1856 2470 
Q 1656 2200 1656 1722 
L 1656 0 
L 538 0 
L 538 4863 
L 1656 4863 
L 1656 2988 
Q 1909 3294 2193 3439 
Q 2478 3584 2822 3584 
Q 3428 3584 3742 3212 
Q 4056 2841 4056 2131 
z
" transform="scale(0.015625)"/>
      <path id="DejaVuSans-Bold-35" d="M 678 4666 
L 3669 4666 
L 3669 3781 
L 1638 3781 
L 1638 3059 
Q 1775 3097 1914 3117 
Q 2053 3138 2203 3138 
Q 3056 3138 3531 2711 
Q 4006 2284 4006 1522 
Q 4006 766 3489 337 
Q 2972 -91 2053 -91 
Q 1656 -91 1267 -14 
Q 878 63 494 219 
L 494 1166 
Q 875 947 1217 837 
Q 1559 728 1863 728 
Q 2300 728 2551 942 
Q 2803 1156 2803 1522 
Q 2803 1891 2551 2103 
Q 2300 2316 1863 2316 
Q 1603 2316 1309 2248 
Q 1016 2181 678 2041 
L 678 4666 
z
" transform="scale(0.015625)"/>
      <path id="DejaVuSans-Bold-25" d="M 4959 1925 
Q 4738 1925 4616 1733 
Q 4494 1541 4494 1184 
Q 4494 825 4614 633 
Q 4734 441 4959 441 
Q 5184 441 5303 633 
Q 5422 825 5422 1184 
Q 5422 1541 5301 1733 
Q 5181 1925 4959 1925 
z
M 4959 2450 
Q 5541 2450 5875 2112 
Q 6209 1775 6209 1184 
Q 6209 594 5875 251 
Q 5541 -91 4959 -91 
Q 4378 -91 4042 251 
Q 3706 594 3706 1184 
Q 3706 1772 4042 2111 
Q 4378 2450 4959 2450 
z
M 2094 -91 
L 1403 -91 
L 4319 4750 
L 5013 4750 
L 2094 -91 
z
M 1453 4750 
Q 2034 4750 2367 4411 
Q 2700 4072 2700 3481 
Q 2700 2891 2367 2550 
Q 2034 2209 1453 2209 
Q 872 2209 539 2550 
Q 206 2891 206 3481 
Q 206 4072 539 4411 
Q 872 4750 1453 4750 
z
M 1453 4225 
Q 1228 4225 1106 4031 
Q 984 3838 984 3481 
Q 984 3122 1106 2926 
Q 1228 2731 1453 2731 
Q 1678 2731 1798 2926 
Q 1919 3122 1919 3481 
Q 1919 3838 1797 4031 
Q 1675 4225 1453 4225 
z
" transform="scale(0.015625)"/>
     </defs>
     <use xlink:href="#DejaVuSans-Bold-41"/>
     <use xlink:href="#DejaVuSans-Bold-6e" transform="translate(77.392578 0)"/>
     <use xlink:href="#DejaVuSans-Bold-20" transform="translate(148.583984 0)"/>
     <use xlink:href="#DejaVuSans-Bold-69" transform="translate(183.398438 0)"/>
     <use xlink:href="#DejaVuSans-Bold-6e" transform="translate(217.675781 0)"/>
     <use xlink:href="#DejaVuSans-Bold-64" transform="translate(288.867188 0)"/>
     <use xlink:href="#DejaVuSans-Bold-65" transform="translate(360.449219 0)"/>
     <use xlink:href="#DejaVuSans-Bold-70" transform="translate(428.271484 0)"/>
     <use xlink:href="#DejaVuSans-Bold-65" transform="translate(499.853516 0)"/>
     <use xlink:href="#DejaVuSans-Bold-6e" transform="translate(567.675781 0)"/>
     <use xlink:href="#DejaVuSans-Bold-64" transform="translate(638.867188 0)"/>
     <use xlink:href="#DejaVuSans-Bold-65" transform="translate(710.449219 0)"/>
     <use xlink:href="#DejaVuSans-Bold-6e" transform="translate(778.271484 0)"/>
     <use xlink:href="#DejaVuSans-Bold-74" transform="translate(849.462891 0)"/>
     <use xlink:href="#DejaVuSans-Bold-20" transform="translate(897.265625 0)"/>
     <use xlink:href="#DejaVuSans-Bold-31" transform="translate(932.080078 0)"/>
     <use xlink:href="#DejaVuSans-Bold-2d" transform="translate(1001.660156 0)"/>
     <use xlink:href="#DejaVuSans-Bold-44" transform="translate(1043.164062 0)"/>
     <use xlink:href="#DejaVuSans-Bold-20" transform="translate(1126.171875 0)"/>
     <use xlink:href="#DejaVuSans-Bold-6d" transform="translate(1160.986328 0)"/>
     <use xlink:href="#DejaVuSans-Bold-6f" transform="translate(1265.185547 0)"/>
     <use xlink:href="#DejaVuSans-Bold-64" transform="translate(1333.886719 0)"/>
     <use xlink:href="#DejaVuSans-Bold-65" transform="translate(1405.46875 0)"/>
     <use xlink:href="#DejaVuSans-Bold-6c" transform="translate(1473.291016 0)"/>
     <use xlink:href="#DejaVuSans-Bold-20" transform="translate(1507.568359 0)"/>
     <use xlink:href="#DejaVuSans-Bold-61" transform="translate(1542.382812 0)"/>
     <use xlink:href="#DejaVuSans-Bold-67" transform="translate(1609.863281 0)"/>
     <use xlink:href="#DejaVuSans-Bold-72" transform="translate(1681.445312 0)"/>
     <use xlink:href="#DejaVuSans-Bold-65" transform="translate(1730.761719 0)"/>
     <use xlink:href="#DejaVuSans-Bold-65" transform="translate(1798.583984 0)"/>
     <use xlink:href="#DejaVuSans-Bold-73" transform="translate(1866.40625 0)"/>
     <use xlink:href="#DejaVuSans-Bold-20" transform="translate(1925.927734 0)"/>
     <use xlink:href="#DejaVuSans-Bold-74" transform="translate(1960.742188 0)"/>
     <use xlink:href="#DejaVuSans-Bold-6f" transform="translate(2008.544922 0)"/>
     <use xlink:href="#DejaVuSans-Bold-20" transform="translate(2077.246094 0)"/>
     <use xlink:href="#DejaVuSans-Bold-77" transform="translate(2112.060547 0)"/>
     <use xlink:href="#DejaVuSans-Bold-69" transform="translate(2204.443359 0)"/>
     <use xlink:href="#DejaVuSans-Bold-74" transform="translate(2238.720703 0)"/>
     <use xlink:href="#DejaVuSans-Bold-68" transform="translate(2286.523438 0)"/>
     <use xlink:href="#DejaVuSans-Bold-69" transform="translate(2357.714844 0)"/>
     <use xlink:href="#DejaVuSans-Bold-6e" transform="translate(2391.992188 0)"/>
     <use xlink:href="#DejaVuSans-Bold-20" transform="translate(2463.183594 0)"/>
     <use xlink:href="#DejaVuSans-Bold-35" transform="translate(2497.998047 0)"/>
     <use xlink:href="#DejaVuSans-Bold-20" transform="translate(2567.578125 0)"/>
     <use xlink:href="#DejaVuSans-Bold-25" transform="translate(2602.392578 0)"/>
    </g>
   </g>
   <g id="line2d_33">
    <path d="M 79.301002 104.428185 
L 148.569968 188.55498 
L 217.838933 228.915854 
L 287.107899 254.053459 
L 356.376864 271.556263 
L 425.64583 284.477901 
" clip-path="url(#p4df8010ed9)" style="fill: none; stroke: #2a78d6; stroke-width: 2; stroke-linecap: square"/>
    <defs>
     <path id="m2c4bd10e97" d="M 0 3.25 
C 0.86191 3.25 1.688635 2.907559 2.298097 2.298097 
C 2.907559 1.688635 3.25 0.86191 3.25 0 
C 3.25 -0.86191 2.907559 -1.688635 2.298097 -2.298097 
C 1.688635 -2.907559 0.86191 -3.25 0 -3.25 
C -0.86191 -3.25 -1.688635 -2.907559 -2.298097 -2.298097 
C -2.907559 -1.688635 -3.25 -0.86191 -3.25 0 
C -3.25 0.86191 -2.907559 1.688635 -2.298097 2.298097 
C -1.688635 2.907559 -0.86191 3.25 0 3.25 
z
" style="stroke: #ffffff; stroke-width: 1.6"/>
    </defs>
    <g clip-path="url(#p4df8010ed9)">
     <use xlink:href="#m2c4bd10e97" x="79.301002" y="104.428185" style="fill: #2a78d6; stroke: #ffffff; stroke-width: 1.6"/>
     <use xlink:href="#m2c4bd10e97" x="148.569968" y="188.55498" style="fill: #2a78d6; stroke: #ffffff; stroke-width: 1.6"/>
     <use xlink:href="#m2c4bd10e97" x="217.838933" y="228.915854" style="fill: #2a78d6; stroke: #ffffff; stroke-width: 1.6"/>
     <use xlink:href="#m2c4bd10e97" x="287.107899" y="254.053459" style="fill: #2a78d6; stroke: #ffffff; stroke-width: 1.6"/>
     <use xlink:href="#m2c4bd10e97" x="356.376864" y="271.556263" style="fill: #2a78d6; stroke: #ffffff; stroke-width: 1.6"/>
     <use xlink:href="#m2c4bd10e97" x="425.64583" y="284.477901" style="fill: #2a78d6; stroke: #ffffff; stroke-width: 1.6"/>
    </g>
   </g>
   <g id="legend_1">
    <g id="line2d_34">
     <path d="M 272.453438 74.101562 
L 281.953438 74.101562 
L 291.453438 74.101562 
" style="fill: none; stroke: #2a78d6; stroke-width: 2; stroke-linecap: square"/>
     <g>
      <use xlink:href="#m2c4bd10e97" x="281.953438" y="74.101562" style="fill: #2a78d6; stroke: #ffffff; stroke-width: 1.6"/>
     </g>
    </g>
    <g id="text_22">
     <!-- CFD, boundary layer resolved -->
     <g style="fill: #0b0b0b" transform="translate(299.053438 77.426562) scale(0.095 -0.095)">
      <use xlink:href="#DejaVuSans-43"/>
      <use xlink:href="#DejaVuSans-46" transform="translate(69.824219 0)"/>
      <use xlink:href="#DejaVuSans-44" transform="translate(127.34375 0)"/>
      <use xlink:href="#DejaVuSans-2c" transform="translate(204.345703 0)"/>
      <use xlink:href="#DejaVuSans-20" transform="translate(236.132812 0)"/>
      <use xlink:href="#DejaVuSans-62" transform="translate(267.919922 0)"/>
      <use xlink:href="#DejaVuSans-6f" transform="translate(331.396484 0)"/>
      <use xlink:href="#DejaVuSans-75" transform="translate(392.578125 0)"/>
      <use xlink:href="#DejaVuSans-6e" transform="translate(455.957031 0)"/>
      <use xlink:href="#DejaVuSans-64" transform="translate(519.335938 0)"/>
      <use xlink:href="#DejaVuSans-61" transform="translate(582.8125 0)"/>
      <use xlink:href="#DejaVuSans-72" transform="translate(644.091797 0)"/>
      <use xlink:href="#DejaVuSans-79" transform="translate(685.205078 0)"/>
      <use xlink:href="#DejaVuSans-20" transform="translate(744.384766 0)"/>
      <use xlink:href="#DejaVuSans-6c" transform="translate(776.171875 0)"/>
      <use xlink:href="#DejaVuSans-61" transform="translate(803.955078 0)"/>
      <use xlink:href="#DejaVuSans-79" transform="translate(865.234375 0)"/>
      <use xlink:href="#DejaVuSans-65" transform="translate(924.414062 0)"/>
      <use xlink:href="#DejaVuSans-72" transform="translate(985.9375 0)"/>
      <use xlink:href="#DejaVuSans-20" transform="translate(1027.050781 0)"/>
      <use xlink:href="#DejaVuSans-72" transform="translate(1058.837891 0)"/>
      <use xlink:href="#DejaVuSans-65" transform="translate(1097.701172 0)"/>
      <use xlink:href="#DejaVuSans-73" transform="translate(1159.224609 0)"/>
      <use xlink:href="#DejaVuSans-6f" transform="translate(1211.324219 0)"/>
      <use xlink:href="#DejaVuSans-6c" transform="translate(1272.505859 0)"/>
      <use xlink:href="#DejaVuSans-76" transform="translate(1300.289062 0)"/>
      <use xlink:href="#DejaVuSans-65" transform="translate(1359.46875 0)"/>
      <use xlink:href="#DejaVuSans-64" transform="translate(1420.992188 0)"/>
     </g>
    </g>
    <g id="line2d_35">
     <path d="M 272.453438 88.045781 
L 281.953438 88.045781 
L 291.453438 88.045781 
" style="fill: none; stroke-dasharray: 7.4,3.2; stroke-dashoffset: 0; stroke: #eb6834; stroke-width: 2"/>
     <g>
      <use xlink:href="#m5dfd8b016e" x="281.953438" y="88.045781" style="fill: #eb6834; stroke: #ffffff; stroke-width: 1.6; stroke-linejoin: miter"/>
     </g>
    </g>
    <g id="text_23">
     <!-- 1-D model, laminar flat plate -->
     <g style="fill: #0b0b0b" transform="translate(299.053438 91.370781) scale(0.095 -0.095)">
      <use xlink:href="#DejaVuSans-31"/>
      <use xlink:href="#DejaVuSans-2d" transform="translate(63.623047 0)"/>
      <use xlink:href="#DejaVuSans-44" transform="translate(99.707031 0)"/>
      <use xlink:href="#DejaVuSans-20" transform="translate(176.708984 0)"/>
      <use xlink:href="#DejaVuSans-6d" transform="translate(208.496094 0)"/>
      <use xlink:href="#DejaVuSans-6f" transform="translate(305.908203 0)"/>
      <use xlink:href="#DejaVuSans-64" transform="translate(367.089844 0)"/>
      <use xlink:href="#DejaVuSans-65" transform="translate(430.566406 0)"/>
      <use xlink:href="#DejaVuSans-6c" transform="translate(492.089844 0)"/>
      <use xlink:href="#DejaVuSans-2c" transform="translate(519.873047 0)"/>
      <use xlink:href="#DejaVuSans-20" transform="translate(551.660156 0)"/>
      <use xlink:href="#DejaVuSans-6c" transform="translate(583.447266 0)"/>
      <use xlink:href="#DejaVuSans-61" transform="translate(611.230469 0)"/>
      <use xlink:href="#DejaVuSans-6d" transform="translate(672.509766 0)"/>
      <use xlink:href="#DejaVuSans-69" transform="translate(769.921875 0)"/>
      <use xlink:href="#DejaVuSans-6e" transform="translate(797.705078 0)"/>
      <use xlink:href="#DejaVuSans-61" transform="translate(861.083984 0)"/>
      <use xlink:href="#DejaVuSans-72" transform="translate(922.363281 0)"/>
      <use xlink:href="#DejaVuSans-20" transform="translate(963.476562 0)"/>
      <use xlink:href="#DejaVuSans-66" transform="translate(995.263672 0)"/>
      <use xlink:href="#DejaVuSans-6c" transform="translate(1030.46875 0)"/>
      <use xlink:href="#DejaVuSans-61" transform="translate(1058.251953 0)"/>
      <use xlink:href="#DejaVuSans-74" transform="translate(1119.53125 0)"/>
      <use xlink:href="#DejaVuSans-20" transform="translate(1158.740234 0)"/>
      <use xlink:href="#DejaVuSans-70" transform="translate(1190.527344 0)"/>
      <use xlink:href="#DejaVuSans-6c" transform="translate(1254.003906 0)"/>
      <use xlink:href="#DejaVuSans-61" transform="translate(1281.787109 0)"/>
      <use xlink:href="#DejaVuSans-74" transform="translate(1343.066406 0)"/>
      <use xlink:href="#DejaVuSans-65" transform="translate(1382.275391 0)"/>
     </g>
    </g>
    <g id="line2d_36">
     <path d="M 272.453438 101.99 
L 281.953438 101.99 
L 291.453438 101.99 
" style="fill: none; stroke-dasharray: 10,8; stroke-dashoffset: 0; stroke: #1baf7a; stroke-width: 2"/>
    </g>
    <g id="text_24">
     <!-- 1-D model, fully-developed duct -->
     <g style="fill: #0b0b0b" transform="translate(299.053438 105.315) scale(0.095 -0.095)">
      <use xlink:href="#DejaVuSans-31"/>
      <use xlink:href="#DejaVuSans-2d" transform="translate(63.623047 0)"/>
      <use xlink:href="#DejaVuSans-44" transform="translate(99.707031 0)"/>
      <use xlink:href="#DejaVuSans-20" transform="translate(176.708984 0)"/>
      <use xlink:href="#DejaVuSans-6d" transform="translate(208.496094 0)"/>
      <use xlink:href="#DejaVuSans-6f" transform="translate(305.908203 0)"/>
      <use xlink:href="#DejaVuSans-64" transform="translate(367.089844 0)"/>
      <use xlink:href="#DejaVuSans-65" transform="translate(430.566406 0)"/>
      <use xlink:href="#DejaVuSans-6c" transform="translate(492.089844 0)"/>
      <use xlink:href="#DejaVuSans-2c" transform="translate(519.873047 0)"/>
      <use xlink:href="#DejaVuSans-20" transform="translate(551.660156 0)"/>
      <use xlink:href="#DejaVuSans-66" transform="translate(583.447266 0)"/>
      <use xlink:href="#DejaVuSans-75" transform="translate(618.652344 0)"/>
      <use xlink:href="#DejaVuSans-6c" transform="translate(682.03125 0)"/>
      <use xlink:href="#DejaVuSans-6c" transform="translate(709.814453 0)"/>
      <use xlink:href="#DejaVuSans-79" transform="translate(737.597656 0)"/>
      <use xlink:href="#DejaVuSans-2d" transform="translate(795.027344 0)"/>
      <use xlink:href="#DejaVuSans-64" transform="translate(831.111328 0)"/>
      <use xlink:href="#DejaVuSans-65" transform="translate(894.587891 0)"/>
      <use xlink:href="#DejaVuSans-76" transform="translate(956.111328 0)"/>
      <use xlink:href="#DejaVuSans-65" transform="translate(1015.291016 0)"/>
      <use xlink:href="#DejaVuSans-6c" transform="translate(1076.814453 0)"/>
      <use xlink:href="#DejaVuSans-6f" transform="translate(1104.597656 0)"/>
      <use xlink:href="#DejaVuSans-70" transform="translate(1165.779297 0)"/>
      <use xlink:href="#DejaVuSans-65" transform="translate(1229.255859 0)"/>
      <use xlink:href="#DejaVuSans-64" transform="translate(1290.779297 0)"/>
      <use xlink:href="#DejaVuSans-20" transform="translate(1354.255859 0)"/>
      <use xlink:href="#DejaVuSans-64" transform="translate(1386.042969 0)"/>
      <use xlink:href="#DejaVuSans-75" transform="translate(1449.519531 0)"/>
      <use xlink:href="#DejaVuSans-63" transform="translate(1512.898438 0)"/>
      <use xlink:href="#DejaVuSans-74" transform="translate(1567.878906 0)"/>
     </g>
    </g>
   </g>
  </g>
 </g>
 <defs>
  <clipPath id="p4df8010ed9">
   <rect x="58.520313" y="61.658047" width="401.76" height="249.48"/>
  </clipPath>
 </defs>
</svg>
